Aujourdnuit.glyphspackage
{
glyphname = exclam;
layers = (
{
background = {
shapes = (
{
pos = (-99,0);
ref = B;
},
{
pos = (-199,0);
ref = e;
}
);
};
layerId = m003;
shapes = (
{
closed = 1;
nodes = (
(32,579,o),
(58,385,o),
(58,234,cs),
(58,227,o),
(56,215,o),
(66,215,cs),
(76,215,o),
(74,226,o),
(74,234,cs),
(74,385,o),
(100,581,o),
(100,661,cs),
(100,694,o),
(91,710,o),
(65,710,cs),
(41,710,o),
(32,692,o),
(32,657,cs)
);
},
{
pos = (3,0);
ref = period;
}
);
width = 143;
},
{
layerId = m002;
shapes = (
{
closed = 1;
nodes = (
(50,579,o),
(76,385,o),
(76,234,cs),
(76,226,o),
(73,215,o),
(87,215,cs),
(100,215,o),
(98,225,o),
(98,234,cs),
(98,385,o),
(124,581,o),
(124,661,cs),
(124,694,o),
(115,710,o),
(86,710,cs),
(59,710,o),
(50,692,o),
(50,657,cs)
);
},
{
pos = (6,0);
ref = period;
}
);
width = 200;
}
);
metricLeft = "=period";
metricRight = "=period";
unicode = 33;
}
{
glyphname = numbersign;
layers = (
{
layerId = m003;
shapes = (
{
closed = 1;
nodes = (
(96,-10,o),
(97,-6,o),
(112,6,cs),
(122,14,o),
(121,20,o),
(127,36,cs),
(187,206,ls),
(190,213,o),
(194,216,o),
(201,216,cs),
(314,216,ls),
(322,216,o),
(327,211,o),
(324,202,cs),
(250,0,ls),
(247,-7,o),
(248,-10,o),
(252,-10,cs),
(256,-10,o),
(257,-6,o),
(272,6,cs),
(282,14,o),
(281,20,o),
(287,36,cs),
(347,206,ls),
(350,213,o),
(354,216,o),
(361,216,cs),
(459,216,ls),
(468,216,o),
(473,217,o),
(484,224,cs),
(491,228,o),
(496,230,o),
(496,233,cs),
(496,235,o),
(494,235,o),
(490,235,cs),
(373,235,ls),
(365,235,o),
(360,240,o),
(363,249,cs),
(433,445,ls),
(436,452,o),
(440,455,o),
(447,455,cs),
(539,455,ls),
(548,455,o),
(553,456,o),
(564,463,cs),
(571,467,o),
(576,469,o),
(576,472,cs),
(576,474,o),
(574,474,o),
(570,474,cs),
(459,474,ls),
(451,474,o),
(446,479,o),
(449,488,cs),
(527,700,ls),
(530,707,o),
(529,710,o),
(525,710,cs),
(521,710,o),
(520,706,o),
(505,694,cs),
(495,686,o),
(496,680,o),
(490,664,cs),
(426,484,ls),
(424,478,o),
(420,474,o),
(413,474,cs),
(299,474,ls),
(291,474,o),
(286,479,o),
(289,488,cs),
(367,700,ls),
(370,707,o),
(369,710,o),
(365,710,cs),
(361,710,o),
(360,706,o),
(345,694,cs),
(335,686,o),
(336,680,o),
(330,664,cs),
(266,484,ls),
(264,478,o),
(260,474,o),
(253,474,cs),
(147,474,ls),
(138,474,o),
(133,473,o),
(122,466,cs),
(115,462,o),
(110,460,o),
(110,457,cs),
(110,455,o),
(112,455,o),
(116,455,cs),
(241,455,ls),
(250,455,o),
(254,450,o),
(251,441,cs),
(180,245,l),
(177,238,o),
(173,235,o),
(166,235,cs),
(67,235,ls),
(58,235,o),
(53,234,o),
(42,227,cs),
(35,223,o),
(30,221,o),
(30,218,cs),
(30,216,o),
(32,216,o),
(36,216,cs),
(154,216,ls),
(162,216,o),
(167,211,o),
(164,202,cs),
(90,0,ls),
(87,-7,o),
(88,-10,o),
(92,-10,cs)
);
},
{
closed = 1;
nodes = (
(205,235,o),
(200,240,o),
(203,249,cs),
(273,445,ls),
(276,452,o),
(280,455,o),
(287,455,cs),
(401,455,ls),
(410,455,o),
(414,450,o),
(411,441,cs),
(340,245,ls),
(337,238,o),
(333,235,o),
(326,235,cs),
(213,235,ls)
);
}
);
width = 606;
},
{
layerId = m002;
shapes = (
{
closed = 1;
nodes = (
(43,-10,o),
(56,-5,o),
(70,6,cs),
(81,15,o),
(86,24,o),
(97,36,cs),
(266,210,ls),
(271,215,o),
(274,216,o),
(279,216,cs),
(572,216,ls),
(581,216,o),
(582,207,o),
(577,201,cs),
(380,0,ls),
(374,-7,o),
(383,-10,o),
(388,-10,cs),
(393,-10,o),
(406,-5,o),
(420,6,cs),
(431,15,o),
(436,24,o),
(447,36,cs),
(616,210,ls),
(621,215,o),
(624,216,o),
(629,216,cs),
(758,216,ls),
(768,216,o),
(774,217,o),
(785,224,cs),
(792,228,o),
(798,231,o),
(798,233,cs),
(798,235,o),
(793,235,o),
(789,235,cs),
(659,235,ls),
(649,235,o),
(650,245,o),
(655,250,cs),
(848,449,ls),
(853,454,o),
(856,455,o),
(861,455,cs),
(954,455,ls),
(964,455,o),
(970,456,o),
(981,463,cs),
(988,467,o),
(994,470,o),
(994,472,cs),
(994,474,o),
(989,474,o),
(985,474,cs),
(892,474,ls),
(883,474,o),
(882,483,o),
(887,489,cs),
(1094,700,ls),
(1101,708,o),
(1093,710,o),
(1088,710,cs),
(1083,710,o),
(1070,705,o),
(1056,694,cs),
(1045,685,o),
(1038,676,o),
(1027,664,cs),
(848,480,ls),
(843,475,o),
(840,474,o),
(835,474,cs),
(542,474,ls),
(533,474,o),
(532,483,o),
(537,489,cs),
(744,700,ls),
(751,708,o),
(743,710,o),
(738,710,cs),
(733,710,o),
(720,705,o),
(706,694,cs),
(695,685,o),
(688,676,o),
(677,664,cs),
(498,480,ls),
(493,475,o),
(490,474,o),
(485,474,cs),
(342,474,ls),
(332,474,o),
(326,473,o),
(315,466,cs),
(308,462,o),
(302,459,o),
(302,457,cs),
(302,455,o),
(307,455,o),
(311,455,cs),
(455,455,ls),
(464,455,o),
(465,446,o),
(460,440,cs),
(266,241,ls),
(261,236,o),
(258,235,o),
(253,235,cs),
(126,235,ls),
(116,235,o),
(110,234,o),
(99,227,cs),
(92,223,o),
(86,220,o),
(86,218,cs),
(86,216,o),
(91,216,o),
(95,216,cs),
(222,216,ls),
(231,216,o),
(232,207,o),
(227,201,cs),
(30,0,ls),
(24,-7,o),
(33,-10,o),
(38,-10,cs)
);
},
{
closed = 1;
nodes = (
(299,235,o),
(300,245,o),
(305,250,cs),
(498,449,ls),
(503,454,o),
(506,455,o),
(511,455,cs),
(805,455,ls),
(814,455,o),
(815,446,o),
(810,440,cs),
(616,241,ls),
(611,236,o),
(608,235,o),
(603,235,cs),
(309,235,ls)
);
}
);
width = 1124;
}
);
unicode = 35;
}
{
glyphname = dollar;
layers = (
{
background = {
shapes = (
{
pos = (5,0);
ref = S;
},
{
pos = (110,103);
ref = bar;
scale = (1,0.9541);
}
);
};
layerId = m003;
shapes = (
{
closed = 1;
nodes = (
(151,-88,o),
(152,-85,o),
(152,-69,cs),
(152,-52,o),
(152,-36,o),
(152,-20,cs),
(152,-13,o),
(156,-10,o),
(162,-10,cs),
(262,-2,o),
(270,114,o),
(270,153,cs),
(270,236,o),
(239,299,o),
(163,393,cs),
(160,398,o),
(159,401,o),
(159,406,cs),
(159,498,o),
(159,591,o),
(160,683,cs),
(160,692,o),
(163,694,o),
(171,692,cs),
(212,675,o),
(231,620,o),
(230,526,cs),
(230,506,o),
(235,501,o),
(241,501,cs),
(246,501,o),
(248,505,o),
(248,511,cs),
(248,523,o),
(239,552,o),
(239,615,cs),
(239,662,o),
(245,686,o),
(246,695,cs),
(248,710,o),
(241,710,o),
(239,710,cs),
(229,710,o),
(229,693,o),
(214,693,cs),
(204,693,o),
(188,702,o),
(169,707,cs),
(163,709,o),
(160,712,o),
(160,718,cs),
(160,752,ls),
(160,768,o),
(159,771,o),
(152,771,cs),
(145,771,o),
(144,768,o),
(144,752,cs),
(144,720,ls),
(144,714,o),
(141,710,o),
(134,710,cs),
(70,704,o),
(30,642,o),
(30,547,cs),
(30,474,o),
(56,406,o),
(130,316,cs),
(135,309,o),
(137,305,o),
(137,300,cs),
(138,206,o),
(137,112,o),
(137,17,cs),
(137,8,o),
(134,6,o),
(126,8,cs),
(77,23,o),
(49,81,o),
(47,173,cs),
(47,196,o),
(45,201,o),
(39,201,cs),
(33,201,o),
(31,195,o),
(31,189,cs),
(31,176,o),
(39,132,o),
(39,80,cs),
(39,28,o),
(31,11,o),
(31,1,cs),
(31,-6,o),
(34,-10,o),
(39,-10,cs),
(49,-10,o),
(49,7,o),
(64,7,cs),
(78,7,o),
(97,-4,o),
(126,-8,cs),
(133,-9,o),
(136,-12,o),
(136,-18,cs),
(136,-69,ls),
(136,-85,o),
(137,-88,o),
(144,-88,cs)
);
},
{
closed = 1;
nodes = (
(153,5,o),
(151,7,o),
(151,15,cs),
(151,100,o),
(150,185,o),
(151,270,cs),
(151,286,o),
(154,287,o),
(164,274,cs),
(210,213,o),
(229,164,o),
(229,109,cs),
(229,48,o),
(205,11,o),
(161,6,cs)
);
},
{
closed = 1;
nodes = (
(85,495,o),
(68,538,o),
(68,590,cs),
(68,611,o),
(70,679,o),
(122,694,cs),
(139,699,o),
(144,698,o),
(144,687,cs),
(145,604,o),
(145,520,o),
(145,437,cs),
(145,421,o),
(142,420,o),
(132,433,cs)
);
}
);
width = 300;
},
{
background = {
shapes = (
{
pos = (5,0);
ref = S;
},
{
pos = (292,103);
ref = bar;
scale = (1,0.9541);
}
);
};
layerId = m002;
shapes = (
{
closed = 1;
nodes = (
(338,-88,o),
(339,-85,o),
(339,-69,cs),
(339,-53,o),
(339,-38,o),
(339,-22,cs),
(339,-11,o),
(341,-10,o),
(356,-10,cs),
(534,-10,o),
(633,60,o),
(633,180,cs),
(633,316,o),
(464,369,o),
(350,406,cs),
(345,408,o),
(342,411,o),
(342,419,cs),
(342,508,o),
(342,597,o),
(343,685,cs),
(343,694,o),
(346,697,o),
(352,697,cs),
(522,695,o),
(587,643,o),
(587,509,cs),
(587,490,o),
(585,480,o),
(598,480,cs),
(605,480,o),
(609,483,o),
(609,491,cs),
(609,502,o),
(602,552,o),
(602,615,cs),
(602,662,o),
(606,686,o),
(608,692,c),
(611,709,o),
(604,710,o),
(598,710,cs),
(579,710,o),
(589,688,o),
(567,688,cs),
(508,688,o),
(472,707,o),
(352,710,cs),
(346,710,o),
(343,714,o),
(343,722,cs),
(343,752,ls),
(343,768,o),
(342,771,o),
(332,771,cs),
(322,771,o),
(321,768,o),
(321,752,cs),
(321,722,ls),
(321,713,o),
(318,710,o),
(312,710,cs),
(139,707,o),
(27,651,o),
(27,546,cs),
(27,422,o),
(211,379,o),
(310,347,cs),
(316,345,o),
(318,343,o),
(318,334,cs),
(319,230,o),
(318,123,o),
(317,19,cs),
(317,9,o),
(314,7,o),
(307,7,cs),
(112,13,o),
(52,59,o),
(52,191,cs),
(52,210,o),
(54,220,o),
(41,220,cs),
(34,220,o),
(30,217,o),
(30,209,cs),
(30,198,o),
(37,132,o),
(37,73,cs),
(37,28,o),
(33,14,o),
(31,8,c),
(28,-9,o),
(35,-10,o),
(41,-10,cs),
(60,-10,o),
(50,12,o),
(72,12,cs),
(138,12,o),
(178,-6,o),
(308,-10,cs),
(314,-10,o),
(317,-13,o),
(317,-22,cs),
(317,-69,ls),
(317,-85,o),
(318,-88,o),
(328,-88,cs)
);
},
{
closed = 1;
nodes = (
(340,7,o),
(338,8,o),
(338,19,cs),
(338,119,o),
(337,224,o),
(338,325,cs),
(338,335,o),
(340,337,o),
(348,334,cs),
(521,273,o),
(576,223,o),
(576,148,cs),
(576,58,o),
(497,7,o),
(354,7,cs)
);
},
{
closed = 1;
nodes = (
(127,478,o),
(81,514,o),
(81,572,cs),
(81,646,o),
(159,689,o),
(300,696,cs),
(314,697,o),
(321,694,o),
(321,685,cs),
(322,600,o),
(322,515,o),
(322,428,cs),
(322,416,o),
(321,416,o),
(311,419,cs)
);
}
);
width = 660;
},
{
associatedMasterId = m003;
layerId = "58023F7B-84FC-46FA-A660-CAC30AF2741E";
name = "20 Jun 23 at 13:39";
shapes = (
{
ref = S;
},
{
pos = (105,103);
ref = bar;
scale = (1,0.9541);
}
);
width = 300;
}
);
metricLeft = S;
metricRight = S;
unicode = 36;
}
{
glyphname = ampersand;
layers = (
{
background = {
shapes = (
{
pos = (100,0);
ref = eight;
}
);
};
layerId = m003;
shapes = (
{
closed = 1;
nodes = (
(262,-13,o),
(298,-1,o),
(329,22,cs),
(332,25,o),
(336,25,o),
(340,22,cs),
(367,1,o),
(395,-10,o),
(424,-10,cs),
(473,-10,o),
(509,19,o),
(524,71,cs),
(537,116,o),
(528,145,o),
(505,145,cs),
(489,145,o),
(480,131,o),
(480,107,cs),
(480,41,o),
(460,4,o),
(424,4,cs),
(401,4,o),
(379,15,o),
(358,38,cs),
(355,42,o),
(355,46,o),
(358,49,cs),
(397,88,o),
(425,145,o),
(442,212,cs),
(441,207,o),
(454,323,o),
(494,327,cs),
(504,328,o),
(520,325,o),
(520,336,cs),
(520,339,o),
(520,345,o),
(505,343,cs),
(496,342,o),
(472,334,o),
(425,334,cs),
(362,334,o),
(333,343,o),
(321,343,cs),
(315,343,o),
(311,341,o),
(311,336,cs),
(311,330,o),
(316,326,o),
(336,326,cs),
(418,326,o),
(446,289,o),
(416,180,cs),
(403,133,o),
(384,89,o),
(352,59,cs),
(348,55,o),
(344,55,o),
(341,60,cs),
(300,117,o),
(264,221,o),
(238,363,cs),
(237,367,o),
(239,370,o),
(242,373,cs),
(252,381,o),
(262,388,o),
(272,396,cs),
(365,465,o),
(409,520,o),
(412,590,cs),
(415,657,o),
(367,710,o),
(303,710,cs),
(188,710,o),
(135,572,o),
(176,360,cs),
(177,355,o),
(175,352,o),
(172,349,cs),
(110,301,o),
(40,231,o),
(40,145,cs),
(40,50,o),
(106,-13,o),
(221,-13,cs)
);
},
{
closed = 1;
nodes = (
(100,209,o),
(119,256,o),
(173,312,cs),
(180,319,o),
(184,319,o),
(186,311,cs),
(218,195,o),
(264,98,o),
(315,43,cs),
(320,38,o),
(320,34,o),
(313,32,cs),
(293,22,o),
(268,17,o),
(238,17,cs),
(149,17,o),
(100,63,o),
(100,147,cs)
);
},
{
closed = 1;
nodes = (
(203,590,o),
(230,694,o),
(303,694,cs),
(340,694,o),
(365,649,o),
(365,582,cs),
(365,498,o),
(304,441,o),
(242,399,cs),
(235,393,o),
(232,395,o),
(231,404,cs)
);
}
);
width = 560;
},
{
layerId = m002;
shapes = (
{
closed = 1;
nodes = (
(508,-13,o),
(578,1,o),
(638,27,cs),
(641,29,o),
(643,29,o),
(649,27,cs),
(705,3,o),
(765,-10,o),
(824,-10,cs),
(931,-10,o),
(1007,19,o),
(1026,87,cs),
(1039,133,o),
(1029,168,o),
(997,168,cs),
(967,168,o),
(959,150,o),
(956,114,cs),
(948,31,o),
(905,4,o),
(822,4,cs),
(777,4,o),
(732,16,o),
(685,38,cs),
(677,42,o),
(676,49,o),
(683,52,c),
(745,91,o),
(794,144,o),
(826,212,cs),
(863,288,o),
(870,326,o),
(941,326,cs),
(951,326,o),
(986,327,o),
(985,340,cs),
(984,347,o),
(979,349,o),
(968,349,cs),
(931,347,o),
(885,334,o),
(792,334,cs),
(697,334,o),
(607,348,o),
(579,348,cs),
(565,348,o),
(560,342,o),
(561,336,cs),
(562,329,o),
(570,324,o),
(596,324,cs),
(780,324,o),
(836,300,o),
(807,228,cs),
(776,151,o),
(725,94,o),
(659,57,cs),
(654,55,o),
(653,55,o),
(648,58,cs),
(551,116,o),
(457,218,o),
(385,350,c),
(381,355,o),
(382,361,o),
(386,363,cs),
(402,370,o),
(418,376,o),
(435,383,cs),
(661,469,o),
(730,519,o),
(729,582,cs),
(728,659,o),
(632,710,o),
(489,710,cs),
(264,710,o),
(180,580,o),
(292,366,cs),
(296,359,o),
(295,354,o),
(290,352,cs),
(117,283,o),
(57,218,o),
(69,139,cs),
(86,32,o),
(204,-13,o),
(429,-13,cs)
);
},
{
closed = 1;
nodes = (
(144,210,o),
(179,264,o),
(297,323,cs),
(311,330,o),
(313,330,o),
(317,323,cs),
(390,202,o),
(494,105,o),
(605,47,cs),
(614,43,o),
(618,37,o),
(607,33,cs),
(559,16,o),
(507,7,o),
(448,7,cs),
(273,7,o),
(169,50,o),
(155,141,cs)
);
},
{
closed = 1;
nodes = (
(271,583,o),
(333,694,o),
(492,694,cs),
(577,694,o),
(645,652,o),
(650,585,cs),
(656,504,o),
(567,455,o),
(373,384,cs),
(367,382,o),
(367,382,o),
(363,391,c)
);
}
);
width = 1026;
},
{
anchors = (
{
name = bottom;
pos = (147,0);
},
{
name = top;
pos = (130,700);
}
);
associatedMasterId = m003;
background = {
shapes = (
{
closed = 1;
nodes = (
(198,-13,o),
(246,83,o),
(286,203,cs),
(313,288,o),
(323,303,o),
(349,305,c),
(191,318,l),
(192,306,l),
(274,306,o),
(292,269,o),
(259,171,cs),
(233,97,o),
(187,22,o),
(114,22,cs),
(60,22,o),
(24,71,o),
(24,146,cs),
(24,222,o),
(65,298,o),
(138,358,cs),
(216,422,o),
(274,489,o),
(278,580,cs),
(280,653,o),
(230,710,o),
(169,710,cs),
(100,710,o),
(46,642,o),
(46,526,cs),
(46,226,o),
(149,-10,o),
(280,-10,cs),
(329,-10,o),
(365,19,o),
(380,71,cs),
(393,116,o),
(384,145,o),
(361,145,cs),
(345,145,o),
(336,131,o),
(336,107,cs),
(336,41,o),
(316,4,o),
(280,4,cs),
(180,4,o),
(102,239,o),
(102,538,cs),
(102,649,o),
(126,694,o),
(169,694,cs),
(207,694,o),
(231,649,o),
(231,582,cs),
(231,522,o),
(210,442,o),
(107,357,cs),
(16,281,o),
(-34,213,o),
(-34,136,cs),
(-34,50,o),
(18,-13,o),
(97,-13,cs)
);
},
{
closed = 1;
nodes = (
(192,312,l),
(289,306,o),
(254,289,o),
(350,305,cs),
(360,306,o),
(376,302,o),
(376,313,cs),
(376,316,o),
(376,322,o),
(361,320,cs),
(352,319,o),
(328,314,o),
(281,314,cs),
(218,314,o),
(189,323,o),
(177,323,cs),
(171,323,o),
(167,321,o),
(167,316,cs),
(167,310,o),
(172,306,o),
(192,306,c)
);
}
);
};
backgroundImage = {
imagePath = "/var/folders/8r/mj7_lzkd2f95pkjst07k_2q00000gn/T/TemporaryItems/NSIRD_screencaptureui_bTSOOX/Screenshot 2023-06-19 at 14.52.24.png";
pos = (405,0);
};
layerId = "2D9EF9C2-3BD7-4260-BA5B-4FA47C636F2B";
name = "19 Jun 23 at 16:11";
shapes = (
{
closed = 1;
nodes = (
(198,-13,o),
(246,83,o),
(286,203,cs),
(313,288,o),
(323,303,o),
(349,305,c),
(191,318,l),
(192,306,l),
(274,306,o),
(292,269,o),
(259,171,cs),
(233,97,o),
(187,22,o),
(114,22,cs),
(60,22,o),
(24,71,o),
(24,146,cs),
(24,222,o),
(65,298,o),
(138,358,cs),
(216,422,o),
(274,489,o),
(278,580,cs),
(280,653,o),
(230,710,o),
(169,710,cs),
(100,710,o),
(46,642,o),
(46,526,cs),
(46,226,o),
(149,-10,o),
(280,-10,cs),
(329,-10,o),
(365,19,o),
(380,71,cs),
(393,116,o),
(384,145,o),
(361,145,cs),
(345,145,o),
(336,131,o),
(336,107,cs),
(336,41,o),
(316,4,o),
(280,4,cs),
(180,4,o),
(102,239,o),
(102,538,cs),
(102,649,o),
(126,694,o),
(169,694,cs),
(207,694,o),
(231,649,o),
(231,582,cs),
(231,522,o),
(210,442,o),
(107,357,cs),
(16,281,o),
(-34,213,o),
(-34,136,cs),
(-34,50,o),
(18,-13,o),
(97,-13,cs)
);
},
{
closed = 1;
nodes = (
(192,312,l),
(289,306,o),
(254,289,o),
(350,305,cs),
(360,306,o),
(376,302,o),
(376,313,cs),
(376,316,o),
(376,322,o),
(361,320,cs),
(352,319,o),
(328,314,o),
(281,314,cs),
(218,314,o),
(189,323,o),
(177,323,cs),
(171,323,o),
(167,321,o),
(167,316,cs),
(167,310,o),
(172,306,o),
(192,306,c)
);
}
);
width = 290;
},
{
anchors = (
{
name = bottom;
pos = (321,0);
},
{
name = top;
pos = (304,700);
}
);
associatedMasterId = m003;
background = {
shapes = (
{
closed = 1;
nodes = (
(372,-13,o),
(420,83,o),
(460,203,cs),
(487,288,o),
(497,303,o),
(523,305,c),
(365,318,l),
(366,306,l),
(448,306,o),
(466,269,o),
(433,171,cs),
(407,97,o),
(361,22,o),
(288,22,cs),
(234,22,o),
(198,71,o),
(198,146,cs),
(198,222,o),
(239,298,o),
(312,358,cs),
(390,422,o),
(448,489,o),
(452,580,cs),
(454,653,o),
(404,710,o),
(343,710,cs),
(274,710,o),
(220,642,o),
(220,526,cs),
(220,226,o),
(323,-10,o),
(454,-10,cs),
(503,-10,o),
(539,19,o),
(554,71,cs),
(567,116,o),
(558,145,o),
(535,145,cs),
(519,145,o),
(510,131,o),
(510,107,cs),
(510,41,o),
(490,4,o),
(454,4,cs),
(354,4,o),
(276,239,o),
(276,538,cs),
(276,649,o),
(300,694,o),
(343,694,cs),
(381,694,o),
(405,649,o),
(405,582,cs),
(405,522,o),
(384,442,o),
(281,357,cs),
(190,281,o),
(140,213,o),
(140,136,cs),
(140,50,o),
(192,-13,o),
(271,-13,cs)
);
},
{
closed = 1;
nodes = (
(366,312,l),
(463,306,o),
(428,289,o),
(524,305,cs),
(534,306,o),
(550,302,o),
(550,313,cs),
(550,316,o),
(550,322,o),
(535,320,cs),
(526,319,o),
(502,314,o),
(455,314,cs),
(392,314,o),
(363,323,o),
(351,323,cs),
(345,323,o),
(341,321,o),
(341,316,cs),
(341,310,o),
(346,306,o),
(366,306,c)
);
}
);
};
backgroundImage = {
imagePath = "/var/folders/8r/mj7_lzkd2f95pkjst07k_2q00000gn/T/TemporaryItems/NSIRD_screencaptureui_bTSOOX/Screenshot 2023-06-19 at 14.52.24.png";
pos = (579,0);
};
layerId = "2430CBE8-1684-4982-B216-475732E17BAD";
name = "19 Jun 23 at 16:15";
shapes = (
{
closed = 1;
nodes = (
(362,-13,o),
(420,83,o),
(460,203,cs),
(487,288,o),
(497,303,o),
(523,305,c),
(365,318,l),
(366,306,l),
(448,306,o),
(466,269,o),
(433,171,cs),
(407,97,o),
(351,22,o),
(238,22,cs),
(142,22,o),
(98,70,o),
(98,147,cs),
(98,271,o),
(232,356,o),
(272,386,cs),
(365,455,o),
(409,520,o),
(412,590,cs),
(415,657,o),
(367,710,o),
(303,710,cs),
(234,710,o),
(170,642,o),
(170,526,cs),
(170,226,o),
(323,-10,o),
(454,-10,cs),
(503,-10,o),
(539,19,o),
(554,71,cs),
(567,116,o),
(558,145,o),
(535,145,cs),
(519,145,o),
(510,131,o),
(510,107,cs),
(510,41,o),
(490,4,o),
(454,4,cs),
(354,4,o),
(223,239,o),
(223,538,cs),
(223,649,o),
(260,694,o),
(303,694,cs),
(340,694,o),
(365,649,o),
(365,582,cs),
(365,511,o),
(321,442,o),
(241,388,cs),
(188,352,o),
(40,269,o),
(40,141,cs),
(40,50,o),
(106,-13,o),
(221,-13,cs)
);
},
{
closed = 1;
nodes = (
(366,312,l),
(463,306,o),
(428,289,o),
(524,305,cs),
(534,306,o),
(550,302,o),
(550,313,cs),
(550,316,o),
(550,322,o),
(535,320,cs),
(526,319,o),
(502,314,o),
(455,314,cs),
(392,314,o),
(363,323,o),
(351,323,cs),
(345,323,o),
(341,321,o),
(341,316,cs),
(341,310,o),
(346,306,o),
(366,306,c)
);
}
);
width = 600;
},
{
anchors = (
{
name = bottom;
pos = (321,0);
},
{
name = top;
pos = (304,700);
}
);
associatedMasterId = m003;
background = {
anchors = (
{
name = bottom;
pos = (321,0);
},
{
name = top;
pos = (304,700);
}
);
shapes = (
{
closed = 1;
nodes = (
(362,-13,o),
(420,83,o),
(460,203,cs),
(487,288,o),
(497,303,o),
(523,305,c),
(365,318,l),
(366,306,l),
(448,306,o),
(466,269,o),
(433,171,cs),
(407,97,o),
(351,22,o),
(238,22,cs),
(142,22,o),
(98,70,o),
(98,147,cs),
(98,271,o),
(232,356,o),
(272,386,cs),
(365,455,o),
(409,520,o),
(412,590,cs),
(415,657,o),
(367,710,o),
(303,710,cs),
(234,710,o),
(170,642,o),
(170,526,cs),
(170,226,o),
(323,-10,o),
(454,-10,cs),
(503,-10,o),
(539,19,o),
(554,71,cs),
(567,116,o),
(558,145,o),
(535,145,cs),
(519,145,o),
(510,131,o),
(510,107,cs),
(510,41,o),
(490,4,o),
(454,4,cs),
(354,4,o),
(223,239,o),
(223,538,cs),
(223,649,o),
(260,694,o),
(303,694,cs),
(340,694,o),
(365,649,o),
(365,582,cs),
(365,511,o),
(321,442,o),
(241,388,cs),
(188,352,o),
(40,269,o),
(40,141,cs),
(40,50,o),
(106,-13,o),
(221,-13,cs)
);
},
{
closed = 1;
nodes = (
(366,312,l),
(463,306,o),
(428,289,o),
(524,305,cs),
(534,306,o),
(550,302,o),
(550,313,cs),
(550,316,o),
(550,322,o),
(535,320,cs),
(526,319,o),
(502,314,o),
(455,314,cs),
(392,314,o),
(363,323,o),
(351,323,cs),
(345,323,o),
(341,321,o),
(341,316,cs),
(341,310,o),
(346,306,o),
(366,306,c)
);
}
);
};
backgroundImage = {
imagePath = "/var/folders/8r/mj7_lzkd2f95pkjst07k_2q00000gn/T/TemporaryItems/NSIRD_screencaptureui_bTSOOX/Screenshot 2023-06-19 at 14.52.24.png";
pos = (579,0);
};
layerId = "C02DECA2-1169-461B-AC7A-376CD2A59075";
name = "19 Jun 23 at 16:21";
shapes = (
{
closed = 1;
nodes = (
(332,-13,o),
(408,80,o),
(442,212,cs),
(467,308,o),
(467,323,o),
(493,325,c),
(335,338,l),
(336,326,l),
(418,326,o),
(446,289,o),
(416,180,cs),
(392,95,o),
(351,22,o),
(238,22,cs),
(142,22,o),
(98,70,o),
(98,147,cs),
(98,271,o),
(232,366,o),
(272,396,cs),
(365,465,o),
(409,520,o),
(412,590,cs),
(415,657,o),
(367,710,o),
(303,710,cs),
(185,710,o),
(140,563,o),
(190,341,cs),
(239,115,o),
(323,-10,o),
(424,-10,cs),
(473,-10,o),
(509,19,o),
(524,71,cs),
(537,116,o),
(528,145,o),
(505,145,cs),
(489,145,o),
(480,131,o),
(480,107,cs),
(480,41,o),
(460,4,o),
(424,4,cs),
(347,4,o),
(273,152,o),
(236,376,cs),
(203,580,o),
(227,694,o),
(303,694,cs),
(340,694,o),
(365,649,o),
(365,582,cs),
(365,511,o),
(321,452,o),
(241,398,cs),
(188,362,o),
(40,269,o),
(40,141,cs),
(40,50,o),
(106,-13,o),
(221,-13,cs)
);
},
{
closed = 1;
nodes = (
(336,332,l),
(433,326,o),
(398,309,o),
(494,325,cs),
(504,326,o),
(520,322,o),
(520,333,cs),
(520,336,o),
(520,342,o),
(505,340,cs),
(496,339,o),
(472,334,o),
(425,334,cs),
(362,334,o),
(333,343,o),
(321,343,cs),
(315,343,o),
(311,341,o),
(311,336,cs),
(311,330,o),
(316,326,o),
(336,326,c)
);
}
);
width = 600;
},
{
associatedMasterId = m002;
layerId = "D9F3E8D2-FE18-44BF-BB2B-544392A1C59E";
name = "14 Jul 23 at 15:34";
shapes = (
{
closed = 1;
nodes = (
(558,-13,o),
(711,67,o),
(802,212,cs),
(861,306,o),
(874,322,o),
(926,327,c),
(610,338,l),
(612,326,l),
(776,326,o),
(827,292,o),
(791,228,cs),
(710,86,o),
(568,7,o),
(394,7,cs),
(218,7,o),
(120,57,o),
(120,147,cs),
(120,236,o),
(194,291,o),
(439,383,cs),
(670,470,o),
(758,520,o),
(764,590,cs),
(770,657,o),
(674,710,o),
(546,710,cs),
(310,710,o),
(214,564,o),
(308,341,cs),
(396,130,o),
(579,-10,o),
(768,-10,cs),
(874,-10,o),
(947,19,o),
(982,87,cs),
(1006,132,o),
(998,168,o),
(964,168,cs),
(942,168,o),
(931,151,o),
(922,114,cs),
(901,32,o),
(852,4,o),
(768,4,cs),
(609,4,o),
(451,152,o),
(372,376,cs),
(300,580,o),
(394,694,o),
(546,694,cs),
(620,694,o),
(690,649,o),
(690,582,cs),
(690,511,o),
(577,450,o),
(354,375,cs),
(126,296,o),
(40,233,o),
(40,145,cs),
(40,37,o),
(148,-13,o),
(372,-13,cs)
);
},
{
closed = 1;
nodes = (
(612,332,l),
(806,326,o),
(736,309,o),
(928,327,cs),
(948,329,o),
(980,326,o),
(980,337,cs),
(980,345,o),
(969,349,o),
(950,348,cs),
(932,347,o),
(884,334,o),
(790,334,cs),
(664,334,o),
(606,348,o),
(582,348,cs),
(569,348,o),
(562,344,o),
(562,338,cs),
(562,330,o),
(572,326,o),
(612,326,c)
);
}
);
width = 1026;
},
{
associatedMasterId = m003;
background = {
shapes = (
{
pos = (100,0);
ref = eight;
}
);
};
layerId = "0DA7AEBF-6C58-4752-BD70-78E55702E257";
name = "14 Jul 23 at 15:34";
shapes = (
{
closed = 1;
nodes = (
(332,-13,o),
(408,80,o),
(442,212,cs),
(467,308,o),
(467,322,o),
(493,327,c),
(335,338,l),
(336,326,l),
(418,326,o),
(446,289,o),
(416,180,cs),
(392,95,o),
(351,17,o),
(238,17,cs),
(149,17,o),
(100,63,o),
(100,147,cs),
(100,238,o),
(140,296,o),
(272,396,cs),
(365,465,o),
(409,520,o),
(412,590,cs),
(415,657,o),
(367,710,o),
(303,710,cs),
(185,710,o),
(132,564,o),
(179,341,cs),
(223,130,o),
(322,-10,o),
(424,-10,cs),
(473,-10,o),
(509,19,o),
(524,71,cs),
(537,116,o),
(528,145,o),
(505,145,cs),
(489,145,o),
(480,131,o),
(480,107,cs),
(480,41,o),
(460,4,o),
(424,4,cs),
(345,4,o),
(278,137,o),
(236,376,cs),
(200,580,o),
(227,694,o),
(303,694,cs),
(340,694,o),
(365,649,o),
(365,582,cs),
(365,511,o),
(321,452,o),
(241,398,cs),
(188,362,o),
(40,269,o),
(40,145,cs),
(40,50,o),
(106,-13,o),
(221,-13,cs)
);
},
{
closed = 1;
nodes = (
(336,332,l),
(433,326,o),
(398,309,o),
(494,327,cs),
(504,329,o),
(520,325,o),
(520,336,cs),
(520,339,o),
(520,345,o),
(505,343,cs),
(496,342,o),
(472,334,o),
(425,334,cs),
(362,334,o),
(333,343,o),
(321,343,cs),
(315,343,o),
(311,341,o),
(311,336,cs),
(311,330,o),
(316,326,o),
(336,326,c)
);
}
);
width = 560;
},
{
associatedMasterId = m002;
layerId = "53546DD9-529B-4F0E-9D78-3EACA9AE50F7";
name = "5 Jun 24 at 15:14";
shapes = (
{
closed = 1;
nodes = (
(451,-13,o),
(523,1,o),
(587,27,cs),
(591,29,o),
(593,29,o),
(598,27,cs),
(651,3,o),
(709,-10,o),
(768,-10,cs),
(875,-10,o),
(950,20,o),
(985,87,cs),
(1009,133,o),
(1001,168,o),
(964,168,cs),
(939,168,o),
(928,150,o),
(919,114,cs),
(898,31,o),
(851,4,o),
(768,4,cs),
(723,4,o),
(680,16,o),
(636,38,cs),
(629,42,o),
(629,49,o),
(636,52,c),
(705,91,o),
(762,144,o),
(805,212,cs),
(861,302,o),
(875,320,o),
(917,326,c),
(922,326,o),
(925,327,o),
(928,327,cs),
(948,329,o),
(983,327,o),
(983,337,cs),
(983,344,o),
(970,349,o),
(950,348,cs),
(931,347,o),
(883,334,o),
(790,334,cs),
(665,334,o),
(607,348,o),
(582,348,cs),
(568,348,o),
(559,343,o),
(559,338,cs),
(559,331,o),
(571,326,o),
(612,326,cs),
(776,326,o),
(824,291,o),
(788,228,cs),
(745,151,o),
(685,94,o),
(613,57,cs),
(608,55,o),
(607,55,o),
(602,58,cs),
(514,116,o),
(436,218,o),
(385,350,c),
(382,355,o),
(384,361,o),
(388,363,cs),
(405,370,o),
(422,376,o),
(440,383,cs),
(672,470,o),
(761,521,o),
(767,590,cs),
(773,656,o),
(675,710,o),
(546,710,cs),
(321,710,o),
(216,580,o),
(295,366,cs),
(298,359,o),
(296,354,o),
(291,352,cs),
(107,283,o),
(37,224,o),
(37,145,cs),
(37,38,o),
(147,-13,o),
(372,-13,cs)
);
},
{
closed = 1;
nodes = (
(123,216,o),
(166,264,o),
(293,323,cs),
(308,330,o),
(310,330,o),
(313,323,cs),
(367,202,o),
(456,105,o),
(558,47,cs),
(566,43,o),
(569,37,o),
(557,33,cs),
(507,16,o),
(453,7,o),
(394,7,cs),
(219,7,o),
(123,56,o),
(123,147,cs)
);
},
{
closed = 1;
nodes = (
(308,583,o),
(397,694,o),
(546,694,cs),
(618,694,o),
(687,650,o),
(687,582,cs),
(687,513,o),
(584,455,o),
(379,384,cs),
(372,382,o),
(372,382,o),
(370,391,c)
);
}
);
width = 1026;
}
);
unicode = 38;
}
{
glyphname = quotesingle;
kernLeft = quote;
layers = (
{
background = {
shapes = (
{
closed = 1;
nodes = (
(15,521,o),
(16,518,o),
(21,518,cs),
(27,518,o),
(27,522,o),
(30,532,cs),
(41,574,o),
(48,610,o),
(50,628,cs),
(56,671,o),
(45,689,o),
(21,689,cs),
(-3,689,o),
(-14,671,o),
(-8,628,cs),
(-6,610,o),
(1,574,o),
(12,532,cs)
);
}
);
};
layerId = m003;
shapes = (
{
angle = 10;
pos = (-20,613);
ref = comma;
}
);
width = 136;
},
{
layerId = m002;
shapes = (
{
angle = 5;
pos = (-23,610);
ref = comma;
}
);
width = 195;
},
{
associatedMasterId = m003;
background = {
shapes = (
{
closed = 1;
nodes = (
(35,521,o),
(36,518,o),
(41,518,cs),
(47,518,o),
(47,522,o),
(50,532,cs),
(61,574,o),
(68,610,o),
(70,628,cs),
(76,671,o),
(65,689,o),
(41,689,cs),
(17,689,o),
(6,671,o),
(12,628,cs),
(14,610,o),
(21,574,o),
(32,532,cs)
);
}
);
};
layerId = "EFC950D9-C2A2-49EF-9940-10DCFF35952D";
name = "15 Mar 23 at 11:29";
shapes = (
{
closed = 1;
nodes = (
(58,584,o),
(68,640,o),
(70,658,cs),
(76,701,o),
(65,722,o),
(41,722,cs),
(17,722,o),
(6,701,o),
(12,658,cs),
(14,640,o),
(19,584,o),
(19,542,cs),
(19,532,o),
(22,528,o),
(26,528,cs),
(30,528,o),
(32,532,o),
(37,542,cs)
);
}
);
width = 82;
},
{
associatedMasterId = m003;
background = {
shapes = (
{
closed = 1;
nodes = (
(24,521,o),
(25,518,o),
(30,518,cs),
(36,518,o),
(36,522,o),
(39,532,cs),
(50,574,o),
(57,610,o),
(59,628,cs),
(65,671,o),
(54,689,o),
(30,689,cs),
(6,689,o),
(-5,671,o),
(1,628,cs),
(3,610,o),
(10,574,o),
(21,532,cs)
);
}
);
};
layerId = "28BD8886-4CC7-4204-B486-A9467E1116B6";
name = "15 Mar 23 at 11:38";
shapes = (
{
closed = 1;
nodes = (
(66,525,o),
(75,606,o),
(78,644,cs),
(81,681,o),
(72,701,o),
(50,701,cs),
(24,701,o),
(16,681,o),
(21,644,cs),
(26,606,o),
(40,524,o),
(48,516,cs),
(51,513,o),
(54,513,o),
(57,516,cs)
);
}
);
width = 99;
}
);
unicode = 39;
}
{
glyphname = parenleft;
layers = (
{
background = {
shapes = (
{
closed = 1;
nodes = (
(36,94,o),
(95,-68,o),
(188,-137,cs),
(195,-143,o),
(200,-146,o),
(203,-146,cs),
(206,-146,o),
(207,-144,o),
(207,-142,cs),
(207,-138,o),
(203,-137,o),
(194,-129,cs),
(134,-71,o),
(97,87,o),
(97,283,cs),
(97,478,o),
(134,626,o),
(185,693,cs),
(192,703,o),
(194,704,o),
(194,707,cs),
(194,709,o),
(192,710,o),
(190,710,cs),
(186,710,o),
(184,708,o),
(177,702,cs),
(97,622,o),
(36,472,o),
(36,283,cs)
);
}
);
};
layerId = m003;
shapes = (
{
closed = 1;
nodes = (
(30,114,o),
(87,-48,o),
(177,-138,cs),
(184,-144,o),
(186,-146,o),
(190,-146,cs),
(192,-146,o),
(194,-145,o),
(194,-143,cs),
(194,-140,o),
(192,-139,o),
(185,-129,cs),
(125,-46,o),
(91,102,o),
(91,282,cs),
(91,462,o),
(125,610,o),
(185,693,cs),
(192,703,o),
(194,704,o),
(194,707,cs),
(194,709,o),
(192,710,o),
(190,710,cs),
(186,710,o),
(184,708,o),
(177,702,cs),
(87,612,o),
(30,450,o),
(30,282,cs)
);
}
);
width = 189;
},
{
layerId = m002;
shapes = (
{
closed = 1;
nodes = (
(27,174,o),
(84,13,o),
(175,-78,cs),
(182,-84,o),
(185,-86,o),
(190,-86,cs),
(193,-86,o),
(197,-85,o),
(197,-83,cs),
(197,-81,o),
(195,-80,o),
(187,-69,cs),
(128,13,o),
(94,162,o),
(94,342,cs),
(94,522,o),
(128,671,o),
(187,753,cs),
(195,764,o),
(197,765,o),
(197,767,cs),
(197,769,o),
(193,770,o),
(190,770,cs),
(185,770,o),
(182,768,o),
(175,762,cs),
(84,671,o),
(27,510,o),
(27,342,cs)
);
}
);
width = 204;
},
{
associatedMasterId = m002;
layerId = "C6FF6510-CAE1-4D35-8081-227AC9B2D980";
name = "5 Jun 24 at 17:12";
shapes = (
{
closed = 1;
nodes = (
(27,114,o),
(84,-47,o),
(175,-138,cs),
(182,-144,o),
(185,-146,o),
(190,-146,cs),
(193,-146,o),
(197,-145,o),
(197,-143,cs),
(197,-141,o),
(195,-140,o),
(187,-129,cs),
(128,-47,o),
(94,102,o),
(94,282,cs),
(94,462,o),
(128,611,o),
(187,693,cs),
(195,704,o),
(197,705,o),
(197,707,cs),
(197,709,o),
(193,710,o),
(190,710,cs),
(185,710,o),
(182,708,o),
(175,702,cs),
(84,611,o),
(27,450,o),
(27,282,cs)
);
}
);
width = 204;
}
);
metricLeft = O;
unicode = 40;
}
{
glyphname = asterisk;
layers = (
{
background = {
shapes = (
{
closed = 1;
nodes = (
(313,503,qs),
(313,532,o),
(287,543,qs),
(271,550,o),
(249,555,o),
(222,558,qs),
(188,563,ls),
(179,565,o),
(179,573,qs),
(179,582,o),
(188,582,q),
(222,587,ls),
(247,591,o),
(271,596,o),
(287,602,qs),
(313,613,o),
(313,641,qs),
(313,654,o),
(308,662,qs),
(298,678,o),
(276,678,qs),
(257,678,o),
(242,666,qs),
(232,658,o),
(220,645,qs),
(212,637,o),
(208,630,q),
(186,602,ls),
(181,595,o),
(179,594,qs),
(174,590,o),
(170,591,qs),
(165,593,o),
(165,599,qs),
(165,606,o),
(168,612,qs),
(183,645,ls),
(191,662,o),
(198,686,o),
(198,700,qs),
(198,717,o),
(175,742,o),
(160,742,qs),
(143,742,o),
(119,720,o),
(119,703,qs),
(119,675,o),
(131,650,qs),
(146,617,ls),
(147,615,o),
(150,609,qs),
(151,606,o),
(151,600,qs),
(151,595,o),
(147,592,qs),
(144,589,o),
(129,598,o),
(124,604,qs),
(102,631,l),
(75,662,ls),
(61,676,o),
(42,676,qs),
(18,676,o),
(9,658,q),
(3,649,o),
(3,637,qs),
(3,613,o),
(27,602,qs),
(38,597,o),
(62,592,o),
(83,589,qs),
(120,584,ls),
(126,583,o),
(130,580,qs),
(134,577,o),
(134,573,qs),
(134,562,o),
(120,562,q),
(83,556,ls),
(81,556,o),
(38,548,o),
(27,544,qs),
(3,533,o),
(3,508,qs),
(3,498,o),
(18,469,o),
(42,469,qs),
(62,469,o),
(75,483,qs),
(102,514,l),
(124,541,ls),
(138,560,o),
(147,553,qs),
(151,550,o),
(151,545,qs),
(151,543,o),
(146,528,q),
(131,495,ls),
(123,479,o),
(119,463,o),
(119,441,qs),
(119,425,o),
(143,403,o),
(160,403,qs),
(176,403,o),
(198,429,o),
(198,444,qs),
(198,463,o),
(192,479,qs),
(190,485,o),
(183,500,qs),
(168,533,ls),
(167,535,o),
(166,538,qs),
(165,541,o),
(165,545,qs),
(165,553,o),
(170,554,qs),
(177,556,o),
(186,543,qs),
(208,515,ls),
(210,512,o),
(233,487,o),
(242,479,qs),
(258,466,o),
(276,466,qs),
(297,466,o),
(308,483,qs),
(313,491,o)
);
}
);
};
layerId = m003;
shapes = (
{
alignment = -1;
pos = (198,0);
ref = _astriskside;
scale = (-1,1);
},
{
alignment = -1;
angle = -121;
pos = (662,309);
ref = _astriskside;
scale = (1,-1);
},
{
alignment = -1;
pos = (116,1130);
ref = _astriskside;
scale = (1,-1);
},
{
alignment = -1;
angle = 59;
pos = (-348,821);
ref = _astriskside;
scale = (1,-1);
},
{
alignment = -1;
angle = -59;
attr = {
identifier = 90B72DF8;
};
pos = (-348,309);
ref = _astriskside;
},
{
alignment = -1;
angle = 121;
attr = {
identifier = 89751D3B;
};
pos = (662,821);
ref = _astriskside;
}
);
width = 314;
},
{
layerId = m002;
shapes = (
{
alignment = -1;
pos = (227,-9);
ref = _astriskside;
scale = (-1,1);
},
{
alignment = -1;
angle = -120;
pos = (667,292);
ref = _astriskside;
scale = (1,-1);
},
{
alignment = -1;
pos = (146,1053);
ref = _astriskside;
scale = (1,-1);
},
{
alignment = -1;
angle = 60;
pos = (-294,752);
ref = _astriskside;
scale = (1,-1);
},
{
alignment = -1;
angle = -60;
attr = {
identifier = AD950716;
};
pos = (-294,292);
ref = _astriskside;
},
{
alignment = -1;
angle = 120;
attr = {
identifier = 097F4D2E;
};
pos = (667,752);
ref = _astriskside;
}
);
width = 373;
},
{
associatedMasterId = m003;
background = {
shapes = (
{
closed = 1;
nodes = (
(436,503,qs),
(436,532,o),
(410,543,qs),
(394,550,o),
(372,555,o),
(345,558,qs),
(311,563,ls),
(302,565,o),
(302,573,qs),
(302,582,o),
(311,582,q),
(345,587,ls),
(370,591,o),
(394,596,o),
(410,602,qs),
(436,613,o),
(436,641,qs),
(436,654,o),
(431,662,qs),
(421,678,o),
(399,678,qs),
(380,678,o),
(365,666,qs),
(355,658,o),
(343,645,qs),
(335,637,o),
(331,630,q),
(309,602,ls),
(304,595,o),
(302,594,qs),
(297,590,o),
(293,591,qs),
(288,593,o),
(288,599,qs),
(288,606,o),
(291,612,qs),
(306,645,ls),
(314,662,o),
(321,686,o),
(321,700,qs),
(321,717,o),
(298,742,o),
(283,742,qs),
(266,742,o),
(242,720,o),
(242,703,qs),
(242,675,o),
(254,650,qs),
(269,617,ls),
(270,615,o),
(273,609,qs),
(274,606,o),
(274,600,qs),
(274,595,o),
(270,592,qs),
(267,589,o),
(252,598,o),
(247,604,qs),
(225,631,l),
(198,662,ls),
(184,676,o),
(165,676,qs),
(141,676,o),
(132,658,q),
(126,649,o),
(126,637,qs),
(126,613,o),
(150,602,qs),
(161,597,o),
(185,592,o),
(206,589,qs),
(243,584,ls),
(249,583,o),
(253,580,qs),
(257,577,o),
(257,573,qs),
(257,562,o),
(243,562,q),
(206,556,ls),
(204,556,o),
(161,548,o),
(150,544,qs),
(126,533,o),
(126,508,qs),
(126,498,o),
(141,469,o),
(165,469,qs),
(185,469,o),
(198,483,qs),
(225,514,l),
(247,541,ls),
(261,560,o),
(270,553,qs),
(274,550,o),
(274,545,qs),
(274,543,o),
(269,528,q),
(254,495,ls),
(246,479,o),
(242,463,o),
(242,441,qs),
(242,425,o),
(266,403,o),
(283,403,qs),
(299,403,o),
(321,429,o),
(321,444,qs),
(321,463,o),
(315,479,qs),
(313,485,o),
(306,500,qs),
(291,533,ls),
(290,535,o),
(289,538,qs),
(288,541,o),
(288,545,qs),
(288,553,o),
(293,554,qs),
(300,556,o),
(309,543,qs),
(331,515,ls),
(333,512,o),
(356,487,o),
(365,479,qs),
(381,466,o),
(399,466,qs),
(420,466,o),
(431,483,qs),
(436,491,o)
);
}
);
};
layerId = "7C6E1C02-C33A-4102-80A8-4619368A4016";
name = "23 Feb 23 at 18:22";
shapes = (
{
alignment = -1;
pos = (574,0);
ref = _astriskside;
scale = (-1,1);
},
{
alignment = -1;
pos = (-16,1145);
ref = _astriskside;
scale = (1,-1);
},
{
alignment = -1;
angle = -121;
pos = (921,530);
ref = _astriskside;
scale = (1,-1);
},
{
alignment = -1;
angle = 59;
pos = (-363,617);
ref = _astriskside;
scale = (1,-1);
},
{
alignment = -1;
angle = 121;
pos = (-59,24);
ref = _astriskside;
scale = (1,-1);
},
{
alignment = -1;
angle = -59;
pos = (619,1121);
ref = _astriskside;
scale = (1,-1);
}
);
width = 600;
}
);
unicode = 42;
}
{
glyphname = plus;
layers = (
{
layerId = m003;
shapes = (
{
closed = 1;
nodes = (
(163,341,o),
(387,341,o),
(451,339,cs),
(458,339,o),
(461,343,o),
(462,351,cs),
(463,362,o),
(461,367,o),
(453,367,cs),
(392,365,o),
(168,365,o),
(104,367,cs),
(96,367,o),
(90,359,o),
(90,347,cs),
(90,342,o),
(93,339,o),
(99,339,cs)
);
},
{
closed = 1;
nodes = (
(263,464,o),
(263,240,o),
(261,176,cs),
(261,169,o),
(265,166,o),
(273,165,cs),
(284,164,o),
(288,166,o),
(288,174,cs),
(286,235,o),
(286,459,o),
(288,523,cs),
(288,531,o),
(281,537,o),
(269,537,cs),
(264,537,o),
(261,534,o),
(261,528,cs)
);
}
);
width = 581;
},
{
layerId = m002;
shapes = (
{
closed = 1;
nodes = (
(103,341,o),
(327,341,o),
(391,339,cs),
(401,339,o),
(404,344,o),
(405,351,cs),
(406,362,o),
(404,367,o),
(393,367,cs),
(332,365,o),
(108,365,o),
(44,367,cs),
(33,367,o),
(27,359,o),
(27,347,cs),
(27,343,o),
(31,339,o),
(39,339,cs)
);
},
{
closed = 1;
nodes = (
(200,464,o),
(200,240,o),
(198,176,cs),
(198,170,o),
(203,166,o),
(213,165,cs),
(225,164,o),
(231,167,o),
(231,174,cs),
(229,235,o),
(229,459,o),
(231,523,cs),
(231,530,o),
(223,537,o),
(209,537,cs),
(204,537,o),
(198,535,o),
(198,528,cs)
);
}
);
width = 432;
},
{
associatedMasterId = m003;
layerId = "B2DA110A-38A4-419B-853E-D7226147048C";
width = 600;
},
{
associatedMasterId = m003;
layerId = "80E92C96-C334-4262-9295-0CA97DA0BE55";
name = "20 Jun 23 at 14:17";
shapes = (
{
pos = (-20,214);
ref = emdash;
scale = (1,0.5);
},
{
angle = -90;
pos = (162,650);
ref = emdash;
scale = (1,0.5);
}
);
width = 581;
}
);
unicode = 43;
}
{
glyphname = comma;
kernLeft = comma;
layers = (
{
associatedMasterId = m003;
layerId = "B826CCEB-93D1-4672-AA88-F03DC20D1A32";
width = 600;
},
{
associatedMasterId = m003;
layerId = "E785B07C-7638-40DD-A08B-5080B4C14061";
width = 600;
},
{
background = {
shapes = (
{
closed = 1;
nodes = (
(80,-10,o),
(85,-21,o),
(78,-35,cs),
(74,-46,o),
(59,-66,o),
(35,-89,cs),
(23,-100,o),
(26,-115,o),
(38,-115,cs),
(43,-115,o),
(48,-113,o),
(53,-107,cs),
(83,-72,o),
(124,-22,o),
(124,34,cs),
(124,67,o),
(105,86,o),
(76,86,cs),
(50,86,o),
(30,69,o),
(30,40,cs),
(30,20,o),
(43,3,o),
(69,-6,cs)
);
}
);
};
layerId = m003;
shapes = (
{
closed = 1;
nodes = (
(87,-10,o),
(90,-16,o),
(87,-26,cs),
(81,-46,o),
(67,-67,o),
(41,-92,cs),
(28,-105,o),
(35,-117,o),
(44,-117,cs),
(49,-117,o),
(52,-114,o),
(55,-111,cs),
(89,-77,o),
(117,-23,o),
(116,42,cs),
(116,72,o),
(100,93,o),
(79,93,cs),
(57,93,o),
(39,73,o),
(39,42,cs),
(39,18,o),
(53,1,o),
(75,-6,cs)
);
}
);
width = 147;
},
{
associatedMasterId = m002;
layerId = "5D4FC7AB-A203-4CE5-8703-C6F1965FF0E6";
width = 600;
},
{
associatedMasterId = m002;
layerId = "0903C161-9ABC-43FC-A297-DD65356FEE4B";
width = 600;
},
{
background = {
shapes = (
{
pos = (45,10);
ref = period;
}
);
};
layerId = m002;
shapes = (
{
closed = 1;
nodes = (
(108,-12,o),
(111,-19,o),
(105,-33,cs),
(99,-50,o),
(79,-68,o),
(57,-89,cs),
(45,-101,o),
(48,-115,o),
(60,-115,cs),
(65,-115,o),
(70,-113,o),
(75,-107,cs),
(121,-60,o),
(146,-10,o),
(146,34,cs),
(146,67,o),
(127,86,o),
(98,86,cs),
(72,86,o),
(52,69,o),
(52,40,cs),
(52,20,o),
(65,3,o),
(91,-6,cs)
);
}
);
width = 196;
},
{
associatedMasterId = m003;
layerId = "B2DA110A-38A4-419B-853E-D7226147048C";
width = 600;
},
{
associatedMasterId = m003;
layerId = "609419F7-0735-43ED-AA4E-63565F8F1C3F";
name = "23 Feb 23 at 16:04";
shapes = (
{
closed = 1;
nodes = (
(0,-93,o),
(4,-96,o),
(14,-94,cs),
(49,-88,o),
(84,-38,o),
(94,7,cs),
(95,12,o),
(96,18,o),
(96,25,cs),
(96,51,o),
(84,66,o),
(63,66,cs),
(41,66,o),
(27,51,o),
(27,30,cs),
(27,14,o),
(35,4,o),
(42,1,cs),
(62,-8,o),
(44,-59,o),
(27,-74,cs),
(18,-82,o),
(10,-79,o),
(5,-81,cs),
(2,-82,o),
(0,-84,o),
(0,-88,cs)
);
}
);
width = 108;
},
{
associatedMasterId = m003;
layerId = "48562A62-6A15-4B85-8689-47CB509BFB36";
name = "15 Mar 23 at 11:26";
shapes = (
{
closed = 1;
nodes = (
(61,-96,o),
(102,-25,o),
(101,31,cs),
(101,55,o),
(86,71,o),
(68,71,cs),
(44,70,o),
(33,53,o),
(37,24,cs),
(50,-70,o),
(12,-98,o),
(21,-114,cs),
(23,-116,o),
(26,-117,o),
(31,-114,cs)
);
}
);
width = 125;
}
);
unicode = 44;
}
{
glyphname = hyphen;
kernLeft = dash;
kernRight = dash;
layers = (
{
background = {
shapes = (
{
pos = (-32,0);
ref = o;
}
);
};
layerId = m003;
shapes = (
{
closed = 1;
nodes = (
(123,230,o),
(167,230,o),
(231,228,cs),
(238,228,o),
(241,232,o),
(242,240,cs),
(243,250,o),
(245,270,o),
(245,273,cs),
(245,278,o),
(242,281,o),
(236,281,cs),
(172,279,o),
(128,279,o),
(64,281,cs),
(57,281,o),
(54,277,o),
(53,269,cs),
(52,259,o),
(50,239,o),
(50,236,cs),
(50,231,o),
(53,228,o),
(59,228,cs)
);
}
);
width = 295;
},
{
layerId = m002;
shapes = (
{
closed = 1;
nodes = (
(103,230,o),
(347,230,o),
(411,228,cs),
(421,228,o),
(424,233,o),
(425,240,cs),
(426,250,o),
(428,270,o),
(428,273,cs),
(428,277,o),
(424,281,o),
(416,281,cs),
(352,279,o),
(108,279,o),
(44,281,cs),
(34,281,o),
(31,276,o),
(30,269,cs),
(29,259,o),
(27,239,o),
(27,236,cs),
(27,232,o),
(31,228,o),
(39,228,cs)
);
}
);
width = 455;
}
);
unicode = 45;
}
{
glyphname = period;
kernLeft = comma;
layers = (
{
anchors = (
{
name = top;
pos = (70,89);
}
);
layerId = m003;
shapes = (
{
closed = 1;
nodes = (
(93,-10,o),
(108,11,o),
(108,40,cs),
(108,72,o),
(95,93,o),
(74,93,cs),
(48,93,o),
(32,72,o),
(32,40,cs),
(32,10,o),
(46,-10,o),
(68,-10,cs)
);
}
);
width = 140;
},
{
anchors = (
{
name = top;
pos = (95,76);
}
);
layerId = m002;
shapes = (
{
closed = 1;
nodes = (
(126,-3,o),
(144,14,o),
(144,39,cs),
(144,64,o),
(126,83,o),
(97,83,cs),
(69,83,o),
(50,65,o),
(50,39,cs),
(50,14,o),
(67,-3,o),
(97,-3,cs)
);
}
);
width = 194;
},
{
associatedMasterId = m003;
layerId = "B2DA110A-38A4-419B-853E-D7226147048C";
width = 600;
}
);
unicode = 46;
}
{
glyphname = slash;
layers = (
{
layerId = m003;
shapes = (
{
closed = 1;
nodes = (
(55,-10,o),
(62,17,o),
(69,36,cs),
(147,257,o),
(227,479,o),
(309,700,cs),
(312,707,o),
(311,710,o),
(307,710,cs),
(291,710,o),
(284,696,o),
(272,664,cs),
(194,443,o),
(114,221,o),
(32,0,cs),
(29,-7,o),
(30,-10,o),
(34,-10,cs)
);
}
);
width = 341;
},
{
layerId = m002;
shapes = (
{
closed = 1;
nodes = (
(48,-10,o),
(69,18,o),
(86,36,cs),
(302,258,o),
(517,480,o),
(733,700,cs),
(740,708,o),
(732,710,o),
(727,710,cs),
(708,710,o),
(683,682,o),
(666,664,cs),
(450,442,o),
(235,220,o),
(19,0,cs),
(13,-7,o),
(22,-10,o),
(27,-10,cs)
);
}
);
width = 753;
}
);
unicode = 47;
}
{
glyphname = zero;
kernLeft = O;
kernRight = O;
layers = (
{
background = {
shapes = (
{
pos = (9,0);
ref = O;
}
);
};
layerId = m003;
shapes = (
{
closed = 1;
nodes = (
(266,-10,o),
(303,157,o),
(303,346,cs),
(303,570,o),
(251,710,o),
(173,710,cs),
(89,710,o),
(50,547,o),
(50,353,cs),
(50,134,o),
(100,-10,o),
(180,-10,cs)
);
},
{
closed = 1;
nodes = (
(110,608,o),
(119,694,o),
(168,694,cs),
(219,694,o),
(243,598,o),
(243,276,cs),
(243,95,o),
(234,10,o),
(185,10,cs),
(134,10,o),
(110,104,o),
(110,426,cs)
);
}
);
width = 353;
},
{
background = {
shapes = (
{
pos = (-60,0);
ref = O;
}
);
};
layerId = m002;
shapes = (
{
closed = 1;
nodes = (
(453,-10,o),
(566,147,o),
(566,346,cs),
(566,550,o),
(450,710,o),
(303,710,cs),
(160,710,o),
(47,553,o),
(47,353,cs),
(47,150,o),
(163,-10,o),
(310,-10,cs)
);
},
{
closed = 1;
nodes = (
(113,587,o),
(187,694,o),
(298,694,cs),
(419,694,o),
(500,527,o),
(500,276,cs),
(500,116,o),
(426,10,o),
(315,10,cs),
(194,10,o),
(113,176,o),
(113,426,cs)
);
}
);
width = 613;
}
);
metricLeft = "=O+20";
metricRight = "=O+20";
unicode = 48;
}
{
glyphname = one;
kernLeft = "1";
kernRight = "1";
layers = (
{
background = {
shapes = (
{
pos = (-11,429);
ref = two;
}
);
};
hints = (
{
name = _corner.LeftSerifS;
origin = (2,0);
scale = (-1.2,1);
type = Corner;
},
{
name = _corner.LeftSerifL;
origin = (2,1);
scale = (1.2,1);
type = Corner;
}
);
layerId = m003;
shapes = (
{
closed = 1;
nodes = (
(84,389,l),
(136,389,l),
(136,535,ls),
(136,580,o),
(138,690,o),
(138,701,cs),
(138,707,o),
(136,710,o),
(131,710,cs),
(127,710,o),
(125,707,o),
(123,699,cs),
(106,642,o),
(68,572,o),
(25,519,cs),
(17,510,o),
(20,500,o),
(28,500,cs),
(49,500,o),
(71,565,o),
(80,565,cs),
(85,565,o),
(85,560,o),
(85,544,cs)
);
},
{
pos = (5,0);
ref = _stem.short;
},
{
closed = 1;
nodes = (
(84,0,l),
(136,0,l),
(136,80,l),
(84,80,l)
);
}
);
width = 217;
},
{
hints = (
{
name = _corner.LeftSerifS;
origin = (2,0);
scale = (-1,1);
type = Corner;
},
{
name = _corner.LeftSerifL;
options = 1;
origin = (2,1);
type = Corner;
}
);
layerId = m002;
shapes = (
{
closed = 1;
nodes = (
(209,329,l),
(267,329,l),
(267,535,ls),
(267,580,o),
(269,690,o),
(269,701,cs),
(269,708,o),
(266,710,o),
(259,710,cs),
(253,710,o),
(250,708,o),
(248,699,cs),
(221,612,o),
(131,532,o),
(52,517,cs),
(38,515,o),
(35,500,o),
(51,500,cs),
(87,500,o),
(181,567,o),
(200,567,cs),
(212,567,o),
(210,560,o),
(210,544,cs)
);
},
{
pos = (133,0);
ref = _stem.short;
},
{
closed = 1;
nodes = (
(209,0,l),
(267,0,l),
(267,80,l),
(209,80,l)
);
}
);
width = 405;
},
{
associatedMasterId = m003;
background = {
shapes = (
{
pos = (-10,429);
ref = two;
}
);
};
layerId = "E5AD2871-EE8B-4788-8124-C1535E4C95CD";
name = "23 Feb 23 at 12:27";
shapes = (
{
closed = 1;
nodes = (
(85,389,l),
(137,389,l),
(137,535,ls),
(137,580,o),
(143,690,o),
(143,702,cs),
(143,707,o),
(141,710,o),
(137,710,cs),
(132,710,o),
(128,707,o),
(128,699,cs),
(128,642,o),
(91,596,o),
(27,596,cs),
(17,596,o),
(15,589,o),
(15,586,cs),
(15,582,o),
(18,579,o),
(26,579,cs),
(85,579,o),
(85,579,o),
(85,555,c)
);
},
{
pos = (6,0);
ref = _stem.short;
},
{
pos = (16,0);
ref = _stem.foot;
}
);
width = 202;
}
);
metricLeft = H;
metricRight = H;
unicode = 49;
}
{
glyphname = two;
kernRight = "2";
layers = (
{
background = {
shapes = (
{
closed = 1;
nodes = (
(123,61,o),
(126,67,o),
(131,72,cs),
(359,298,o),
(595,472,o),
(595,582,cs),
(595,660,o),
(498,710,o),
(346,710,cs),
(284,710,o),
(159,688,o),
(135,688,cs),
(117,688,l),
(97,508,l),
(115,509,l),
(115,646,o),
(181,697,o),
(352,697,cs),
(462,697,o),
(531,655,o),
(531,568,cs),
(531,461,o),
(443,401,o),
(161,132,cs),
(142,113,o),
(104,75,o),
(80,51,cs),
(55,26,o),
(43,14,o),
(43,5,cs),
(43,-4,o),
(55,-2,o),
(67,5,cs),
(111,29,ls),
(193,74,o),
(261,74,o),
(339,31,cs),
(394,1,o),
(432,-10,o),
(483,-10,cs),
(552,-10,o),
(593,18,o),
(605,70,cs),
(607,80,o),
(611,93,o),
(598,93,cs),
(590,93,o),
(587,89,o),
(585,75,cs),
(581,45,o),
(551,30,o),
(499,30,cs),
(461,30,o),
(436,36,o),
(396,55,cs),
(291,109,o),
(224,110,o),
(132,60,cs),
(128,58,o),
(125,57,o),
(124,59,cs)
);
}
);
};
layerId = m002;
shapes = (
{
pos = (60,0);
ref = _tip;
},
{
closed = 1;
nodes = (
(122,62,o),
(126,67,o),
(131,72,cs),
(359,298,o),
(595,472,o),
(595,582,cs),
(595,660,o),
(498,710,o),
(346,710,cs),
(284,710,o),
(159,688,o),
(135,688,cs),
(117,688,l),
(97,508,l),
(115,509,l),
(115,646,o),
(181,697,o),
(352,697,cs),
(462,697,o),
(531,655,o),
(531,568,cs),
(531,461,o),
(443,401,o),
(161,132,cs),
(142,113,o),
(104,75,o),
(80,51,cs),
(49,20,o),
(40,10,o),
(40,0,cs),
(40,-8,o),
(45,-11,o),
(51,-11,cs),
(65,-11,o),
(77,10,o),
(111,29,cs),
(193,74,o),
(258,71,o),
(339,31,cs),
(394,4,o),
(442,-13,o),
(489,-13,cs),
(558,-13,o),
(593,18,o),
(605,70,cs),
(607,80,o),
(611,93,o),
(598,93,cs),
(590,93,o),
(587,89,o),
(585,75,cs),
(581,48,o),
(551,30,o),
(515,30,cs),
(485,30,o),
(463,37,o),
(405,66,cs),
(303,117,o),
(236,116,o),
(132,60,cs),
(128,58,o),
(124,56,o),
(123,59,cs)
);
}
);
width = 647;
},
{
associatedMasterId = m003;
background = {
shapes = (
{
pos = (257,0);
ref = S;
scale = (-1,1);
},
{
pos = (27,0);
ref = three;
}
);
};
hints = (
{
name = _corner.LeftSerifS;
origin = (0,19);
type = Corner;
}
);
layerId = "0051DA8C-39EB-415A-A52E-1104DA7CC522";
name = "22 Feb 23 at 11:27";
shapes = (
{
closed = 1;
nodes = (
(45,510,o),
(46,501,o),
(54,501,cs),
(63,501,o),
(65,510,o),
(64,518,cs),
(55,638,o),
(83,697,o),
(139,697,cs),
(182,697,o),
(214,653,o),
(214,565,cs),
(214,496,o),
(197,386,o),
(54,76,cs),
(28,20,o),
(5,0,o),
(46,0,cs),
(266,0,l),
(266,59,l),
(86,59,ls),
(66,59,o),
(68,65,o),
(72,74,cs),
(178,305,o),
(267,471,o),
(267,577,cs),
(267,658,o),
(222,710,o),
(150,710,cs,{
GSSegment = {
name = _segment.curve.capheight.inner;
};
}),
(76,710,o),
(35,639,o),
(44,517,cs)
);
}
);
width = 280;
},
{
associatedMasterId = m003;
background = {
shapes = (
{
pos = (7,0);
ref = three;
}
);
};
hints = (
{
name = _corner.LeftSerifS;
origin = (0,16);
type = Corner;
}
);
layerId = "D6D715F4-CEA6-4C03-A909-61341B1605B3";
name = "22 Feb 23 at 11:36";
shapes = (
{
closed = 1;
nodes = (
(44,667,l),
(44,520,l),
(51,526,l),
(51,631,o),
(80,697,o),
(132,697,cs),
(192,697,o),
(195,657,o),
(195,565,cs),
(195,496,o),
(177,386,o),
(34,76,cs),
(8,20,o),
(-15,0,o),
(26,0,cs),
(246,0,l),
(246,59,l),
(66,59,ls),
(46,59,o),
(48,65,o),
(52,74,cs),
(158,305,o),
(247,471,o),
(247,577,cs),
(247,658,o),
(222,710,o),
(147,710,cs,{
GSSegment = {
name = _segment.curve.capheight.inner;
};
}),
(96,710,o),
(72,677,o),
(58,677,c)
);
},
{
ref = _tip;
}
);
width = 280;
},
{
associatedMasterId = m003;
background = {
hints = (
{
name = _corner.LeftSerifS;
origin = (0,16);
type = Corner;
}
);
shapes = (
{
closed = 1;
nodes = (
(53,667,l),
(53,520,l),
(60,526,l),
(60,636,o),
(89,697,o),
(141,697,cs),
(180,697,o),
(204,658,o),
(204,595,cs),
(204,496,o),
(186,386,o),
(43,76,cs),
(17,20,o),
(-6,0,o),
(35,0,cs),
(251,0,l),
(251,59,l),
(75,59,ls),
(55,59,o),
(57,65,o),
(61,74,cs),
(167,305,o),
(256,471,o),
(256,584,cs),
(256,661,o),
(214,710,o),
(146,710,cs),
(101,710,o),
(81,677,o),
(67,677,c)
);
}
);
};
hints = (
{
name = _corner.LeftSerifS;
origin = (0,16);
type = Corner;
}
);
layerId = "BF31BD2F-8D15-4E06-AB7B-5356DFC3BF9E";
name = "22 Feb 23 at 11:41";
shapes = (
{
closed = 1;
nodes = (
(53,667,l),
(53,520,l),
(60,526,l),
(60,636,o),
(89,697,o),
(140,697,cs),
(180,697,o),
(204,658,o),
(204,571,cs),
(204,496,o),
(186,386,o),
(83,164,cs),
(17,20,o),
(-6,0,o),
(35,0,cs),
(251,0,l),
(251,59,l),
(75,59,ls),
(55,59,o),
(57,65,o),
(78,112,cs),
(167,305,o),
(256,471,o),
(256,584,cs),
(256,661,o),
(214,710,o),
(152,710,cs,{
GSSegment = {
name = _segment.curve.capheight.inner;
};
}),
(101,710,o),
(81,677,o),
(67,677,c)
);
},
{
pos = (9,0);
ref = _tip;
}
);
width = 271;
},
{
associatedMasterId = m003;
background = {
hints = (
{
name = _corner.LeftSerifS;
origin = (0,16);
type = Corner;
}
);
shapes = (
{
closed = 1;
nodes = (
(53,667,l),
(53,520,l),
(60,526,l),
(60,636,o),
(89,697,o),
(141,697,cs),
(180,697,o),
(204,658,o),
(204,595,cs),
(204,496,o),
(186,386,o),
(43,76,cs),
(17,20,o),
(-6,0,o),
(35,0,cs),
(251,0,l),
(251,59,l),
(75,59,ls),
(55,59,o),
(57,65,o),
(61,74,cs),
(167,305,o),
(256,471,o),
(256,584,cs),
(256,661,o),
(214,710,o),
(146,710,cs),
(101,710,o),
(81,677,o),
(67,677,c)
);
}
);
};
hints = (
{
name = _corner.LeftSerifS;
origin = (0,16);
type = Corner;
}
);
layerId = "188149D9-1F11-43D4-81F1-E3812362E5AB";
name = "22 Feb 23 at 11:42";
shapes = (
{
closed = 1;
nodes = (
(45,667,l),
(45,520,l),
(52,526,l),
(52,636,o),
(81,697,o),
(132,697,cs),
(172,697,o),
(196,658,o),
(196,571,cs),
(196,496,o),
(186,386,o),
(83,164,cs),
(17,20,o),
(-6,0,o),
(35,0,cs),
(251,0,l),
(251,59,l),
(75,59,ls),
(55,59,o),
(57,65,o),
(78,112,cs),
(167,305,o),
(248,471,o),
(248,584,cs),
(248,661,o),
(206,710,o),
(144,710,cs,{
GSSegment = {
name = _segment.curve.capheight.inner;
};
}),
(93,710,o),
(73,677,o),
(59,677,c)
);
},
{
pos = (1,0);
ref = _tip;
}
);
width = 271;
},
{
associatedMasterId = m002;
background = {
shapes = (
{
pos = (100,0);
ref = three;
}
);
};
layerId = "DD767082-F9D9-48F2-AE2A-DF0876EC5696";
name = "22 Feb 23 at 12:07";
shapes = (
{
closed = 0;
nodes = (
(586,59,l),
(130,59,ls),
(120,59,o),
(105,60,o),
(165,100,cs),
(332,212,o),
(591,341,o),
(591,529,cs),
(591,650,o),
(493,710,o),
(334,710,cs),
(216,710,o),
(116,677,o),
(102,677,c),
(88,667,l),
(88,520,l),
(95,526,l),
(95,631,o),
(184,697,o),
(323,697,cs),
(456,697,o),
(532,637,o),
(532,523,cs),
(532,346,o),
(383,271,o),
(142,105,cs),
(18,19,o),
(-31,0,o),
(50,0,cs),
(586,0,l)
);
},
{
pos = (44,0);
ref = _tip;
}
);
width = 601;
},
{
associatedMasterId = m003;
hints = (
{
name = _corner.LeftSerifS;
origin = (1,16);
type = Corner;
}
);
layerId = "0209E7C1-26FB-4A85-B795-7B8813F719CE";
name = "22 Feb 23 at 12:58";
shapes = (
{
pos = (5,0);
ref = _tip;
},
{
closed = 1;
nodes = (
(49,667,l),
(49,520,l),
(56,526,l),
(56,636,o),
(85,697,o),
(136,697,cs),
(176,697,o),
(200,658,o),
(200,565,cs),
(200,496,o),
(187,386,o),
(82,158,cs),
(18,20,o),
(-5,0,o),
(36,0,cs),
(252,0,l),
(252,59,l),
(76,59,ls),
(56,59,o),
(58,65,o),
(84,121,cs),
(168,305,o),
(252,471,o),
(252,582,cs),
(252,661,o),
(210,710,o),
(148,710,cs,{
GSSegment = {
name = _segment.curve.capheight.inner;
};
}),
(97,710,o),
(77,677,o),
(63,677,c)
);
}
);
width = 271;
},
{
associatedMasterId = m003;
background = {
shapes = (
{
pos = (-94,0);
ref = R;
}
);
};
layerId = "3157B189-FC73-42E9-AD28-C4D8B0F12D5D";
name = "22 Feb 23 at 13:05";
shapes = (
{
pos = (11,0);
ref = _tip;
},
{
closed = 1;
nodes = (
(55,667,l),
(55,520,l),
(62,526,l),
(62,636,o),
(91,697,o),
(142,697,cs),
(182,697,o),
(206,658,o),
(206,565,cs),
(206,496,o),
(193,386,o),
(88,158,cs),
(65,109,o),
(47,75,o),
(36,51,cs),
(22,20,o),
(15,15,o),
(15,4,cs),
(15,-7,o),
(33,-10,o),
(36,8,cs),
(40,31,o),
(49,55,o),
(61,44,cs),
(77,30,o),
(103,-10,o),
(180,-10,cs),
(223,-10,o),
(243,17,o),
(256,70,cs),
(258,79,o),
(261,93,o),
(252,93,cs),
(246,93,o),
(244,88,o),
(242,75,cs),
(237,49,o),
(232,30,o),
(192,30,cs),
(144,30,o),
(123,45,o),
(93,70,cs),
(79,80,o),
(74,94,o),
(80,105,cs),
(174,304,o),
(258,471,o),
(258,582,cs),
(258,661,o),
(216,710,o),
(154,710,cs,{
GSSegment = {
name = _segment.curve.capheight.inner;
};
}),
(103,710,o),
(83,677,o),
(69,677,c)
);
}
);
width = 273;
},
{
associatedMasterId = m003;
background = {
shapes = (
{
pos = (-94,0);
ref = R;
}
);
};
layerId = "59A59FD8-06A3-430F-A4CD-1C8067B61CB3";
name = "22 Feb 23 at 13:08";
shapes = (
{
pos = (11,0);
ref = _tip;
},
{
closed = 1;
nodes = (
(45,27,o),
(73,90,o),
(80,105,cs),
(174,304,o),
(258,471,o),
(258,582,cs),
(258,661,o),
(216,710,o),
(154,710,cs,{
GSSegment = {
name = _segment.curve.capheight.inner;
};
}),
(103,710,o),
(83,677,o),
(69,677,c),
(55,667,l),
(55,520,l),
(62,526,l),
(62,636,o),
(91,697,o),
(142,697,cs),
(182,697,o),
(206,658,o),
(206,565,cs),
(206,496,o),
(193,386,o),
(88,158,cs),
(65,109,o),
(47,75,o),
(36,51,cs),
(22,20,o),
(15,15,o),
(15,4,cs),
(15,-7,o),
(28,-9,o),
(36,8,cs)
);
},
{
closed = 1;
nodes = (
(37,61,o),
(46,62,o),
(40,40,c),
(29,13,l),
(51,19,o),
(48,22,o),
(55,31,cs),
(94,82,o),
(102,84,o),
(128,32,cs),
(143,2,o),
(162,-10,o),
(190,-10,cs),
(223,-10,o),
(243,17,o),
(256,70,cs),
(258,79,o),
(261,93,o),
(252,93,cs),
(246,93,o),
(244,88,o),
(242,75,cs),
(237,49,o),
(232,30,o),
(212,30,cs),
(196,30,o),
(189,37,o),
(174,77,cs),
(145,157,o),
(96,110,o),
(64,63,cs),
(63,60,o),
(62,60,o),
(60,61,cs)
);
}
);
width = 273;
},
{
associatedMasterId = m003;
background = {
shapes = (
{
pos = (-104,0);
ref = R;
}
);
};
layerId = "59FE1A45-D85E-4AC4-AC2F-D0703A5F5FCB";
name = "22 Feb 23 at 13:13";
shapes = (
{
pos = (11,0);
ref = _tip;
},
{
closed = 1;
nodes = (
(57,59,o),
(60,63,o),
(63,70,cs),
(172,304,o),
(258,471,o),
(258,582,cs),
(258,661,o),
(216,710,o),
(154,710,cs,{
GSSegment = {
name = _segment.curve.capheight.inner;
};
}),
(103,710,o),
(83,677,o),
(69,677,c),
(55,667,l),
(55,520,l),
(62,526,l),
(62,636,o),
(91,697,o),
(142,697,cs),
(182,697,o),
(206,658,o),
(206,565,cs),
(206,496,o),
(193,386,o),
(88,158,cs),
(65,109,o),
(47,75,o),
(36,51,cs),
(22,20,o),
(15,15,o),
(15,4,cs),
(15,-6,o),
(25,-8,o),
(35,5,cs),
(55,31,ls),
(96,84,o),
(112,84,o),
(138,32,cs),
(153,3,o),
(171,-10,o),
(198,-10,cs),
(233,-10,o),
(253,17,o),
(266,70,cs),
(268,79,o),
(271,93,o),
(262,93,cs),
(256,93,o),
(254,88,o),
(252,75,cs),
(247,49,o),
(242,30,o),
(222,30,cs),
(206,30,o),
(199,37,o),
(184,77,cs),
(158,145,o),
(120,140,o),
(67,63,cs),
(65,60,o),
(62,55,o),
(60,57,cs)
);
}
);
width = 283;
},
{
associatedMasterId = m003;
background = {
hints = (
{
name = _segment.curve.capheight.inner;
origin = (0,8);
type = Segment;
}
);
shapes = (
{
closed = 1;
nodes = (
(57,59,o),
(60,63,o),
(63,70,cs),
(172,304,o),
(258,471,o),
(258,582,cs),
(258,661,o),
(216,710,o),
(154,710,cs),
(103,710,o),
(83,677,o),
(69,677,c),
(55,667,l),
(55,520,l),
(62,526,l),
(62,636,o),
(91,697,o),
(142,697,cs),
(182,697,o),
(206,658,o),
(206,565,cs),
(206,496,o),
(193,386,o),
(88,158,cs),
(65,109,o),
(47,75,o),
(36,51,cs),
(22,20,o),
(15,15,o),
(15,4,cs),
(15,-6,o),
(25,-8,o),
(35,5,cs),
(55,31,ls),
(96,84,o),
(112,84,o),
(138,32,cs),
(153,3,o),
(171,-10,o),
(198,-10,cs),
(233,-10,o),
(253,17,o),
(266,70,cs),
(268,79,o),
(271,93,o),
(262,93,cs),
(256,93,o),
(254,88,o),
(252,75,cs),
(247,49,o),
(242,30,o),
(222,30,cs),
(206,30,o),
(199,37,o),
(184,77,cs),
(158,145,o),
(120,140,o),
(67,63,cs),
(65,60,o),
(62,55,o),
(60,57,cs)
);
}
);
};
layerId = "EF380A4C-10E2-455C-8BD4-9073EBB89E76";
name = "22 Feb 23 at 13:18";
shapes = (
{
pos = (11,0);
ref = _tip;
},
{
closed = 1;
nodes = (
(69,78,o),
(72,87,o),
(75,94,cs),
(172,304,o),
(258,471,o),
(258,582,cs),
(258,661,o),
(216,710,o),
(154,710,cs,{
GSSegment = {
name = _segment.curve.capheight.inner;
};
}),
(103,710,o),
(83,677,o),
(69,677,c),
(55,667,l),
(55,520,l),
(62,526,l),
(62,636,o),
(91,697,o),
(142,697,cs),
(182,697,o),
(206,658,o),
(206,565,cs),
(206,496,o),
(193,386,o),
(90,164,cs),
(65,109,o),
(47,75,o),
(36,51,cs),
(22,20,o),
(15,15,o),
(15,4,cs),
(15,-6,o),
(25,-8,o),
(35,5,cs),
(55,31,ls),
(96,84,o),
(112,84,o),
(138,32,cs),
(153,3,o),
(171,-10,o),
(198,-10,cs),
(233,-10,o),
(253,17,o),
(266,70,cs),
(268,79,o),
(271,93,o),
(262,93,cs),
(256,93,o),
(254,88,o),
(252,75,cs),
(247,49,o),
(242,30,o),
(222,30,cs),
(206,30,o),
(199,37,o),
(184,77,cs),
(158,145,o),
(120,133,o),
(86,84,cs),
(81,77,o),
(75,75,o),
(72,77,cs)
);
}
);
width = 283;
},
{
background = {
shapes = (
{
closed = 1;
nodes = (
(112,62,o),
(116,67,o),
(121,72,cs),
(349,298,o),
(585,472,o),
(585,582,cs),
(585,660,o),
(488,710,o),
(336,710,cs),
(274,710,o),
(149,688,o),
(125,688,cs),
(107,688,l),
(87,508,l),
(105,509,l),
(105,646,o),
(171,697,o),
(342,697,cs),
(452,697,o),
(521,655,o),
(521,568,cs),
(521,461,o),
(433,401,o),
(151,132,cs),
(132,113,o),
(94,75,o),
(70,51,cs),
(39,20,o),
(30,10,o),
(30,0,cs),
(30,-8,o),
(35,-11,o),
(41,-11,cs),
(55,-11,o),
(67,10,o),
(101,29,cs),
(183,74,o),
(251,74,o),
(329,31,cs),
(384,1,o),
(422,-10,o),
(473,-10,cs),
(542,-10,o),
(583,18,o),
(595,70,cs),
(597,80,o),
(601,93,o),
(588,93,cs),
(580,93,o),
(577,89,o),
(575,75,cs),
(571,45,o),
(541,30,o),
(489,30,cs),
(451,30,o),
(426,36,o),
(386,55,cs),
(281,109,o),
(214,110,o),
(122,60,cs),
(118,58,o),
(114,56,o),
(113,59,cs)
);
}
);
};
layerId = m003;
name = "Regular Condensed";
shapes = (
{
pos = (17,0);
ref = _tip;
},
{
closed = 1;
nodes = (
(59,51,o),
(68,63,o),
(73,74,cs),
(180,304,o),
(274,471,o),
(274,582,cs),
(274,661,o),
(230,710,o),
(160,710,cs,{
GSSegment = {
name = _segment.curve.capheight.inner;
};
}),
(109,710,o),
(89,677,o),
(75,677,c),
(61,667,l),
(61,520,l),
(68,526,l),
(68,636,o),
(97,697,o),
(148,697,cs),
(192,697,o),
(214,654,o),
(214,585,cs),
(214,460,o),
(182,344,o),
(98,164,cs),
(73,109,o),
(55,75,o),
(44,51,cs),
(30,20,o),
(20,8,o),
(20,-2,cs),
(20,-10,o),
(26,-12,o),
(30,-12,cs),
(42,-12,o),
(49,10,o),
(64,23,cs),
(89,45,o),
(113,44,o),
(141,24,cs),
(169,5,o),
(186,-10,o),
(216,-10,cs),
(251,-10,o),
(271,17,o),
(284,70,cs),
(286,79,o),
(289,93,o),
(280,93,cs),
(274,93,o),
(272,88,o),
(270,75,cs),
(265,49,o),
(260,30,o),
(240,30,cs),
(224,30,o),
(209,43,o),
(187,56,cs),
(136,86,o),
(108,86,o),
(75,53,cs),
(72,50,o),
(68,46,o),
(64,48,cs)
);
}
);
width = 306;
},
{
associatedMasterId = m003;
background = {
hints = (
{
name = _segment.curve.capheight.inner;
origin = (0,8);
type = Segment;
}
);
shapes = (
{
closed = 1;
nodes = (
(57,59,o),
(60,63,o),
(63,70,cs),
(172,304,o),
(258,471,o),
(258,582,cs),
(258,661,o),
(216,710,o),
(154,710,cs),
(103,710,o),
(83,677,o),
(69,677,c),
(55,667,l),
(55,520,l),
(62,526,l),
(62,636,o),
(91,697,o),
(142,697,cs),
(182,697,o),
(206,658,o),
(206,565,cs),
(206,496,o),
(193,386,o),
(88,158,cs),
(65,109,o),
(47,75,o),
(36,51,cs),
(22,20,o),
(15,15,o),
(15,4,cs),
(15,-6,o),
(25,-8,o),
(35,5,cs),
(55,31,ls),
(96,84,o),
(112,84,o),
(138,32,cs),
(153,3,o),
(171,-10,o),
(198,-10,cs),
(233,-10,o),
(253,17,o),
(266,70,cs),
(268,79,o),
(271,93,o),
(262,93,cs),
(256,93,o),
(254,88,o),
(252,75,cs),
(247,49,o),
(242,30,o),
(222,30,cs),
(206,30,o),
(199,37,o),
(184,77,cs),
(158,145,o),
(120,140,o),
(67,63,cs),
(65,60,o),
(62,55,o),
(60,57,cs)
);
}
);
};
layerId = "15963EF8-231E-4A9F-B0C7-463C733B889D";
name = "22 Feb 23 at 13:27";
shapes = (
{
pos = (11,0);
ref = _tip;
},
{
closed = 1;
nodes = (
(57,59,o),
(60,63,o),
(63,70,cs),
(172,304,o),
(258,471,o),
(258,582,cs),
(258,661,o),
(216,710,o),
(154,710,cs,{
GSSegment = {
name = _segment.curve.capheight.inner;
};
}),
(103,710,o),
(83,677,o),
(69,677,c),
(55,667,l),
(55,520,l),
(62,526,l),
(62,636,o),
(91,697,o),
(142,697,cs),
(182,697,o),
(206,658,o),
(206,565,cs),
(206,496,o),
(193,386,o),
(90,164,cs),
(65,109,o),
(47,75,o),
(36,51,cs),
(22,20,o),
(15,15,o),
(15,4,cs),
(15,-6,o),
(25,-8,o),
(35,5,cs),
(55,31,ls),
(96,84,o),
(112,84,o),
(138,32,cs),
(153,3,o),
(171,-10,o),
(198,-10,cs),
(233,-10,o),
(253,17,o),
(266,70,cs),
(268,79,o),
(271,93,o),
(262,93,cs),
(256,93,o),
(254,88,o),
(252,75,cs),
(247,49,o),
(242,30,o),
(222,30,cs),
(206,30,o),
(199,37,o),
(184,77,cs),
(158,145,o),
(120,140,o),
(67,63,cs),
(65,60,o),
(62,55,o),
(60,57,cs)
);
}
);
width = 283;
},
{
associatedMasterId = m003;
background = {
shapes = (
{
pos = (5,0);
ref = zero;
}
);
};
layerId = "49991966-6A18-40F4-993F-5E690F4E7B61";
name = "24 Feb 23 at 16:33";
shapes = (
{
pos = (14,0);
ref = _tip;
},
{
closed = 1;
nodes = (
(62,59,o),
(65,63,o),
(68,70,cs),
(177,304,o),
(271,471,o),
(271,582,cs),
(271,661,o),
(227,710,o),
(157,710,cs,{
GSSegment = {
name = _segment.curve.capheight.inner;
};
}),
(106,710,o),
(86,677,o),
(72,677,c),
(58,667,l),
(58,520,l),
(65,526,l),
(65,636,o),
(94,697,o),
(145,697,cs),
(189,697,o),
(211,654,o),
(211,585,cs),
(211,460,o),
(179,344,o),
(95,164,cs),
(70,109,o),
(52,75,o),
(41,51,cs),
(27,20,o),
(20,15,o),
(20,5,cs),
(20,-4,o),
(30,-7,o),
(40,5,cs),
(64,33,ls),
(107,84,o),
(122,80,o),
(148,32,cs),
(165,2,o),
(183,-10,o),
(213,-10,cs),
(248,-10,o),
(268,17,o),
(281,70,cs),
(283,79,o),
(286,93,o),
(277,93,cs),
(271,93,o),
(269,88,o),
(267,75,cs),
(262,49,o),
(257,30,o),
(237,30,cs),
(221,30,o),
(211,42,o),
(200,66,cs),
(165,142,o),
(123,137,o),
(72,63,cs),
(70,60,o),
(67,55,o),
(65,57,cs)
);
}
);
width = 303;
},
{
associatedMasterId = m002;
background = {
shapes = (
{
angle = 180;
pos = (631,700);
ref = seven;
}
);
};
layerId = "7B4B3BBB-1F66-438B-8C61-C3AD0FA5B15F";
name = "14 May 24 at 18:41";
shapes = (
{
pos = (57,0);
ref = _tip;
},
{
closed = 1;
nodes = (
(121,58,o),
(123,68,o),
(128,72,c),
(356,298,o),
(592,472,o),
(592,582,cs),
(592,660,o),
(495,710,o),
(343,710,cs),
(281,710,o),
(156,688,o),
(132,688,cs),
(114,688,l),
(94,508,l),
(112,509,l),
(112,646,o),
(178,697,o),
(349,697,cs),
(459,697,o),
(528,655,o),
(528,568,cs),
(528,461,o),
(440,401,o),
(158,132,cs),
(139,113,o),
(101,75,o),
(77,51,cs),
(52,26,o),
(40,14,o),
(40,5,cs),
(40,-4,o),
(52,-2,o),
(64,5,cs),
(108,29,ls),
(190,74,o),
(258,74,o),
(336,31,cs),
(391,1,o),
(429,-10,o),
(480,-10,cs),
(549,-10,o),
(590,18,o),
(602,70,cs),
(604,80,o),
(608,93,o),
(595,93,cs),
(587,93,o),
(584,89,o),
(582,75,cs),
(578,45,o),
(548,30,o),
(496,30,cs),
(458,30,o),
(433,36,o),
(393,55,cs),
(288,109,o),
(221,110,o),
(129,60,c),
(125,57,o),
(123,56,o),
(122,57,cs)
);
}
);
width = 644;
},
{
associatedMasterId = m002;
background = {
shapes = (
{
angle = 180;
pos = (631,700);
ref = seven;
}
);
};
layerId = "CF89E309-4041-45FD-A07C-8124A58EBCAA";
name = "14 May 24 at 18:41";
shapes = (
{
pos = (57,0);
ref = _tip;
},
{
closed = 1;
nodes = (
(120,61,o),
(123,67,o),
(128,72,cs),
(356,298,o),
(592,472,o),
(592,582,cs),
(592,660,o),
(495,710,o),
(343,710,cs),
(281,710,o),
(156,688,o),
(132,688,cs),
(114,688,l),
(94,508,l),
(112,509,l),
(112,646,o),
(178,697,o),
(349,697,cs),
(459,697,o),
(528,655,o),
(528,568,cs),
(528,461,o),
(440,401,o),
(158,132,cs),
(139,113,o),
(101,75,o),
(77,51,cs),
(52,26,o),
(40,14,o),
(40,5,cs),
(40,-4,o),
(52,-2,o),
(64,5,cs),
(108,29,ls),
(190,74,o),
(258,74,o),
(336,31,cs),
(391,1,o),
(429,-10,o),
(480,-10,cs),
(549,-10,o),
(590,18,o),
(602,70,cs),
(604,80,o),
(608,93,o),
(595,93,cs),
(587,93,o),
(584,89,o),
(582,75,cs),
(578,45,o),
(548,30,o),
(496,30,cs),
(458,30,o),
(433,36,o),
(393,55,cs),
(288,109,o),
(221,110,o),
(129,60,cs),
(125,58,o),
(122,57,o),
(121,59,cs)
);
}
);
width = 644;
}
);
metricLeft = H;
metricRight = H;
unicode = 50;
}
{
glyphname = three;
layers = (
{
background = {
hints = (
{
name = _segment.curve.capheight.inner;
origin = (0,58);
type = Segment;
}
);
shapes = (
{
closed = 1;
nodes = (
(52,520,l),
(59,526,l),
(59,636,o),
(88,697,o),
(140,697,cs),
(178,697,o),
(200,657,o),
(200,585,cs),
(200,491,o),
(158,419,o),
(86,375,cs),
(75,368,o),
(63,363,o),
(54,360,cs),
(45,357,o),
(41,353,o),
(41,348,cs),
(41,338,o),
(49,338,o),
(63,345,cs),
(72,350,o),
(93,364,o),
(116,364,cs),
(179,364,o),
(214,302,o),
(214,192,cs),
(214,67,o),
(188,5,o),
(136,5,cs),
(94,5,o),
(78,35,o),
(78,107,cs),
(78,130,o),
(70,145,o),
(54,145,cs),
(28,145,o),
(20,116,o),
(34,71,cs),
(49,17,o),
(84,-10,o),
(138,-10,cs),
(215,-10,o),
(276,80,o),
(276,194,cs),
(276,306,o),
(216,377,o),
(121,377,cs),
(118,377,o),
(115,377,o),
(115,379,cs),
(115,380,o),
(116,382,o),
(118,383,cs),
(199,435,o),
(260,513,o),
(260,598,cs),
(260,667,o),
(218,710,o),
(151,710,cs),
(100,710,o),
(80,677,o),
(66,677,c),
(52,667,l)
);
}
);
};
layerId = m003;
shapes = (
{
closed = 1;
nodes = (
(216,-10,o),
(276,74,o),
(276,194,cs),
(276,310,o),
(208,390,o),
(121,376,cs),
(115,375,o),
(113,375,o),
(113,378,cs),
(113,380,o),
(116,381,o),
(118,382,cs),
(199,435,o),
(260,513,o),
(260,598,cs),
(260,667,o),
(218,710,o),
(151,710,cs,{
GSSegment = {
name = _segment.curve.capheight.inner;
};
}),
(100,710,o),
(80,677,o),
(66,677,c),
(52,667,l),
(52,520,l),
(59,526,l),
(59,636,o),
(88,697,o),
(138,697,cs),
(178,697,o),
(200,657,o),
(200,587,cs),
(200,492,o),
(164,423,o),
(90,377,cs),
(75,368,o),
(71,366,o),
(63,363,cs),
(52,359,o),
(48,356,o),
(48,351,cs),
(48,341,o),
(58,342,o),
(68,348,cs),
(83,357,o),
(103,362,o),
(121,362,cs),
(185,362,o),
(216,300,o),
(216,176,cs),
(216,66,o),
(182,5,o),
(126,5,cs),
(87,5,o),
(71,35,o),
(71,107,cs),
(71,130,o),
(63,145,o),
(47,145,cs),
(21,145,o),
(13,116,o),
(27,71,cs),
(42,17,o),
(77,-10,o),
(131,-10,cs)
);
},
{
pos = (8,0);
ref = _tip;
}
);
width = 306;
},
{
background = {
shapes = (
{
pos = (578,0);
ref = S;
scale = (-1,1);
}
);
};
layerId = m002;
shapes = (
{
closed = 1;
nodes = (
(451,-10,o),
(595,62,o),
(595,174,cs),
(595,298,o),
(388,378,o),
(219,378,cs),
(210,378,o),
(210,378,o),
(210,382,cs),
(210,386,o),
(210,386,o),
(222,390,cs),
(476,467,o),
(561,516,o),
(561,584,cs),
(561,657,o),
(460,710,o),
(317,710,cs),
(221,710,o),
(125,688,o),
(101,688,cs),
(78,688,l),
(63,509,l),
(81,509,l),
(81,646,o),
(144,697,o),
(310,697,cs),
(426,697,o),
(498,659,o),
(498,595,cs),
(498,519,o),
(410,470,o),
(143,380,cs),
(131,376,o),
(119,373,o),
(111,370,cs),
(101,367,o),
(96,364,o),
(96,360,cs),
(96,355,o),
(104,349,o),
(127,357,cs),
(146,363,o),
(161,364,o),
(204,364,cs),
(385,364,o),
(527,281,o),
(527,166,cs),
(527,75,o),
(441,5,o),
(302,5,cs),
(188,5,o),
(97,71,o),
(97,157,cs),
(97,180,o),
(89,195,o),
(70,195,cs),
(41,195,o),
(33,167,o),
(47,121,cs),
(69,42,o),
(169,-10,o),
(304,-10,cs)
);
},
{
pos = (26,0);
ref = _tip;
}
);
width = 622;
},
{
associatedMasterId = m003;
background = {
shapes = (
{
pos = (60,0);
ref = zero;
}
);
};
layerId = "094D27CE-90F1-45AC-BD89-AEC3AA95835F";
name = "21 Feb 23 at 15:22";
shapes = (
{
closed = 1;
nodes = (
(46,520,o),
(45,500,o),
(55,500,cs),
(66,500,o),
(67,519,o),
(67,530,cs),
(67,615,o),
(106,688,o),
(169,688,cs),
(216,688,o),
(245,640,o),
(245,564,cs),
(245,492,o),
(207,424,o),
(138,375,cs),
(130,369,o),
(117,364,o),
(108,363,cs),
(98,361,o),
(93,356,o),
(93,348,cs),
(93,335,o),
(108,339,o),
(116,344,cs),
(125,349,o),
(145,364,o),
(168,364,cs),
(227,364,o),
(264,298,o),
(264,192,cs),
(264,62,o),
(217,5,o),
(161,5,cs),
(121,5,o),
(78,33,o),
(78,70,cs),
(78,86,o),
(100,124,o),
(67,124,cs),
(46,124,o),
(44,84,o),
(62,51,cs),
(82,14,o),
(121,-10,o),
(163,-10,cs),
(253,-10,o),
(326,63,o),
(326,194,cs),
(326,306,o),
(267,377,o),
(173,377,cs),
(170,377,o),
(167,377,o),
(167,379,cs),
(167,380,o),
(168,381,o),
(170,383,cs),
(260,453,o),
(302,522,o),
(302,584,cs),
(302,656,o),
(251,701,o),
(180,701,cs,{
GSSegment = {
name = _segment.curve.capheight.inner;
};
}),
(93,701,o),
(46,620,o),
(46,530,cs)
);
}
);
width = 331;
},
{
associatedMasterId = m003;
background = {
shapes = (
{
closed = 1;
nodes = (
(29,520,o),
(29,510,o),
(38,510,cs),
(49,510,o),
(49,519,o),
(49,530,cs),
(49,633,o),
(77,697,o),
(122,697,cs),
(156,697,o),
(178,650,o),
(178,574,cs),
(178,492,o),
(145,422,o),
(71,375,cs),
(60,368,o),
(48,363,o),
(39,360,cs),
(30,357,o),
(26,353,o),
(26,348,cs),
(26,338,o),
(34,338,o),
(48,345,cs),
(57,350,o),
(78,364,o),
(101,364,cs),
(160,364,o),
(197,298,o),
(197,192,cs),
(197,67,o),
(171,5,o),
(119,5,cs),
(77,5,o),
(61,35,o),
(61,107,cs),
(61,130,o),
(53,145,o),
(37,145,cs),
(11,145,o),
(3,116,o),
(17,71,cs),
(32,17,o),
(67,-10,o),
(121,-10,cs),
(198,-10,o),
(259,80,o),
(259,194,cs),
(259,306,o),
(200,377,o),
(106,377,cs),
(103,377,o),
(100,377,o),
(100,379,cs),
(100,380,o),
(101,381,o),
(103,383,cs),
(193,453,o),
(235,522,o),
(235,584,cs),
(235,656,o),
(194,710,o),
(133,710,cs),
(73,710,o),
(29,640,o),
(29,530,cs)
);
}
);
};
layerId = "935F2C14-9F54-4921-81CE-01A0947045B7";
name = "21 Feb 23 at 15:39";
shapes = (
{
closed = 1;
nodes = (
(29,520,o),
(29,510,o),
(38,510,cs),
(49,510,o),
(49,519,o),
(49,530,cs),
(49,633,o),
(80,697,o),
(125,697,cs),
(159,697,o),
(178,650,o),
(178,573,cs),
(178,488,o),
(140,417,o),
(71,375,cs),
(60,368,o),
(48,363,o),
(39,360,cs),
(30,357,o),
(26,353,o),
(26,348,cs),
(26,338,o),
(34,338,o),
(48,345,cs),
(57,350,o),
(78,364,o),
(101,364,cs),
(160,364,o),
(197,298,o),
(197,192,cs),
(197,67,o),
(171,5,o),
(119,5,cs),
(77,5,o),
(61,35,o),
(61,107,cs),
(61,130,o),
(53,145,o),
(37,145,cs),
(11,145,o),
(3,116,o),
(17,71,cs),
(32,17,o),
(67,-10,o),
(121,-10,cs),
(198,-10,o),
(259,80,o),
(259,194,cs),
(259,306,o),
(200,377,o),
(106,377,cs),
(103,377,o),
(100,377,o),
(100,379,cs),
(100,380,o),
(101,382,o),
(103,383,cs),
(184,435,o),
(235,513,o),
(235,584,cs),
(235,658,o),
(194,710,o),
(136,710,cs,{
GSSegment = {
name = _segment.curve.capheight.inner;
};
}),
(76,710,o),
(29,640,o),
(29,530,cs)
);
}
);
width = 269;
},
{
associatedMasterId = m003;
background = {
shapes = (
{
closed = 1;
nodes = (
(29,520,o),
(29,510,o),
(38,510,cs),
(49,510,o),
(49,519,o),
(49,530,cs),
(49,633,o),
(77,697,o),
(122,697,cs),
(156,697,o),
(178,650,o),
(178,574,cs),
(178,492,o),
(145,422,o),
(71,375,cs),
(60,368,o),
(48,363,o),
(39,360,cs),
(30,357,o),
(26,353,o),
(26,348,cs),
(26,338,o),
(34,338,o),
(48,345,cs),
(57,350,o),
(78,364,o),
(101,364,cs),
(160,364,o),
(197,298,o),
(197,192,cs),
(197,67,o),
(171,5,o),
(119,5,cs),
(77,5,o),
(61,35,o),
(61,107,cs),
(61,130,o),
(53,145,o),
(37,145,cs),
(11,145,o),
(3,116,o),
(17,71,cs),
(32,17,o),
(67,-10,o),
(121,-10,cs),
(198,-10,o),
(259,80,o),
(259,194,cs),
(259,306,o),
(200,377,o),
(106,377,cs),
(103,377,o),
(100,377,o),
(100,379,cs),
(100,380,o),
(101,381,o),
(103,383,cs),
(193,453,o),
(235,522,o),
(235,584,cs),
(235,656,o),
(194,710,o),
(133,710,cs),
(73,710,o),
(29,640,o),
(29,530,cs)
);
}
);
};
layerId = "803709A6-3E87-4D41-B765-44B337F74FF5";
name = "21 Feb 23 at 16:04";
shapes = (
{
closed = 1;
nodes = (
(29,520,o),
(29,510,o),
(38,510,cs),
(49,510,o),
(49,519,o),
(49,530,cs),
(49,633,o),
(80,697,o),
(125,697,cs),
(159,697,o),
(178,650,o),
(178,573,cs),
(178,488,o),
(140,417,o),
(71,375,cs),
(60,368,o),
(48,363,o),
(39,360,cs),
(30,357,o),
(26,353,o),
(26,348,cs),
(26,338,o),
(34,338,o),
(48,345,cs),
(57,350,o),
(78,364,o),
(101,364,cs),
(160,364,o),
(197,298,o),
(197,192,cs),
(197,67,o),
(171,5,o),
(119,5,cs),
(77,5,o),
(61,35,o),
(61,107,cs),
(61,130,o),
(53,145,o),
(37,145,cs),
(11,145,o),
(3,116,o),
(17,71,cs),
(32,17,o),
(67,-10,o),
(121,-10,cs),
(198,-10,o),
(259,80,o),
(259,194,cs),
(259,306,o),
(200,377,o),
(106,377,cs),
(103,377,o),
(100,377,o),
(100,379,cs),
(100,380,o),
(101,382,o),
(103,383,cs),
(184,435,o),
(235,513,o),
(235,584,cs),
(235,658,o),
(194,710,o),
(136,710,cs,{
GSSegment = {
name = _segment.curve.capheight.inner;
};
}),
(76,710,o),
(29,640,o),
(29,530,cs)
);
}
);
width = 269;
},
{
associatedMasterId = m002;
background = {
shapes = (
{
pos = (535,0);
ref = S;
scale = (-1,1);
}
);
};
layerId = "7EC73D30-A7E9-44C7-AA85-541722D16B6C";
name = "24 Feb 23 at 00:45";
shapes = (
{
closed = 1;
nodes = (
(29,484,o),
(32,480,o),
(37,480,cs),
(46,480,o),
(45,491,o),
(45,506,cs),
(45,650,o),
(118,697,o),
(235,697,cs),
(317,697,o),
(368,660,o),
(368,595,cs),
(368,502,o),
(290,435,o),
(111,375,cs),
(100,371,o),
(88,368,o),
(79,365,cs),
(70,362,o),
(66,360,o),
(66,355,cs),
(66,349,o),
(72,344,o),
(93,352,cs),
(112,360,o),
(128,364,o),
(151,364,cs),
(309,364,o),
(397,295,o),
(397,172,cs),
(397,67,o),
(338,5,o),
(219,5,cs),
(122,5,o),
(61,64,o),
(61,157,cs),
(61,180,o),
(53,195,o),
(37,195,cs),
(11,195,o),
(3,166,o),
(17,121,cs),
(39,41,o),
(118,-10,o),
(221,-10,cs),
(367,-10,o),
(459,61,o),
(459,174,cs),
(459,299,o),
(354,378,o),
(186,378,cs),
(175,378,o),
(174,380,o),
(174,382,cs),
(174,385,o),
(175,386,o),
(188,390,cs),
(353,447,o),
(425,506,o),
(425,584,cs),
(425,661,o),
(356,710,o),
(229,710,cs),
(168,710,o),
(93,688,o),
(68,688,cs),
(43,688,o),
(49,710,o),
(37,710,cs),
(32,710,o),
(26,708,o),
(30,692,cs),
(32,685,o),
(36,662,o),
(36,616,cs),
(36,552,o),
(29,502,o),
(29,491,cs)
);
}
);
width = 600;
}
);
metricLeft = B;
metricRight = B;
unicode = 51;
}
{
glyphname = four;
kernLeft = "4";
kernRight = "4";
layers = (
{
background = {
hints = (
{
name = _corner.LeftSerifL.lowercase;
options = 2;
origin = (0,0);
type = Corner;
},
{
name = _corner.LeftSerifL.lowercase;
origin = (0,16);
scale = (1,-1);
type = Corner;
}
);
shapes = (
{
closed = 1;
nodes = (
(230,0,l),
(227,132,o),
(228,606,o),
(228,631,cs),
(228,676,o),
(233,692,o),
(233,701,cs),
(233,707,o),
(230,710,o),
(225,710,cs),
(218,710,o),
(212,699,o),
(200,688,cs),
(182,672,o),
(178,658,o),
(178,645,cs),
(178,0,l)
);
},
{
closed = 1;
nodes = (
(234,704,o),
(231,710,o),
(226,710,cs),
(220,710,o),
(216,706,o),
(214,700,cs),
(32,174,ls),
(18,134,o),
(9,130,o),
(48,130,cs),
(289,130,l),
(289,159,l),
(68,159,ls),
(43,159,o),
(42,163,o),
(51,188,cs),
(232,698,ls)
);
}
);
};
hints = (
{
name = _corner.LeftSerifL.lowercase;
options = 2;
origin = (0,0);
type = Corner;
},
{
name = _corner.LeftSerifL.lowercase;
origin = (0,49);
scale = (1,-1);
type = Corner;
}
);
layerId = m003;
shapes = (
{
closed = 1;
nodes = (
(230,0,l),
(229,28,o),
(229,71,o),
(229,122,cs),
(229,127,o),
(232,130,o),
(237,130,cs),
(281,130,ls),
(286,130,o),
(289,133,o),
(289,138,cs),
(289,170,ls),
(289,175,o),
(286,178,o),
(281,178,cs),
(236,178,ls),
(231,178,o),
(228,181,o),
(228,186,cs),
(227,375,o),
(228,613,o),
(228,631,cs),
(228,676,o),
(233,692,o),
(233,701,cs),
(233,707,o),
(230,710,o),
(225,710,cs),
(222,710,o),
(219,708,o),
(217,706,cs),
(213,702,o),
(208,695,o),
(200,688,cs),
(182,672,o),
(178,658,o),
(178,645,cs),
(178,621,ls),
(178,600,o),
(176,592,o),
(170,574,cs),
(32,174,ls),
(18,134,o),
(9,130,o),
(48,130,cs),
(170,130,ls),
(175,130,o),
(178,127,o),
(178,122,cs),
(178,0,l)
);
},
{
closed = 1;
nodes = (
(168,523,ls),
(173,537,o),
(174,544,o),
(177,544,cs),
(181,544,o),
(180,533,o),
(180,517,cs),
(178,186,ls),
(178,180,o),
(175,178,o),
(170,178,cs),
(76,178,ls),
(51,178,o),
(50,182,o),
(59,207,cs)
);
}
);
width = 319;
},
{
background = {
shapes = (
{
pos = (64,0);
ref = three;
}
);
};
hints = (
{
name = _corner.LeftSerifL.lowercase;
options = 2;
origin = (0,0);
type = Corner;
},
{
name = _corner.LeftSerifL.lowercase;
origin = (0,49);
scale = (1,-1);
type = Corner;
}
);
layerId = m002;
shapes = (
{
closed = 1;
nodes = (
(471,0,l),
(470,28,o),
(470,71,o),
(470,112,cs),
(470,128,o),
(472,130,o),
(485,130,cs),
(609,130,ls),
(614,130,o),
(620,132,o),
(620,138,cs),
(620,170,ls),
(620,176,o),
(614,178,o),
(609,178,cs),
(484,178,ls),
(471,178,o),
(469,180,o),
(469,196,cs),
(468,375,o),
(469,623,o),
(469,641,cs),
(469,686,o),
(474,702,o),
(474,711,cs),
(474,718,o),
(468,720,o),
(463,720,cs),
(459,720,o),
(455,718,o),
(453,716,cs),
(448,711,o),
(443,704,o),
(436,698,cs),
(417,681,o),
(413,668,o),
(413,655,cs),
(413,621,ls),
(413,601,o),
(416,588,o),
(396,564,cs),
(63,179,ls),
(31,142,o),
(34,130,o),
(66,130,cs),
(398,130,ls),
(411,130,o),
(413,128,o),
(413,112,cs),
(413,0,l)
);
},
{
closed = 1;
nodes = (
(394,532,ls),
(405,544,o),
(413,553,o),
(414,553,c),
(414,553,o),
(415,542,o),
(415,526,cs),
(413,196,ls),
(413,179,o),
(411,178,o),
(398,178,cs),
(108,178,ls),
(91,178,o),
(100,191,o),
(114,207,cs)
);
}
);
width = 647;
},
{
associatedMasterId = m003;
hints = (
{
name = _corner.LeftSerifL;
options = 2;
origin = (1,0);
scale = (-1,1);
type = Corner;
},
{
name = _corner.LeftSerifL;
origin = (1,1);
type = Corner;
}
);
layerId = "0ADA16C2-7F80-4453-80B2-D7ECE7CE60C6";
name = "22 Feb 23 at 11:52";
shapes = (
{
closed = 1;
nodes = (
(189,700,l),
(190,690,o),
(190,678,o),
(190,665,cs),
(190,596,o),
(183,486,o),
(40,176,cs),
(14,120,o),
(-9,100,o),
(32,100,cs),
(270,100,l),
(290,159,l),
(72,159,ls),
(52,159,o),
(54,165,o),
(58,174,cs),
(164,405,o),
(253,571,o),
(253,677,cs),
(253,685,o),
(253,693,o),
(252,700,c)
);
},
{
closed = 1;
nodes = (
(187,0,l),
(241,0,l),
(241,327,l),
(187,287,l)
);
}
);
width = 314;
},
{
associatedMasterId = m003;
background = {
shapes = (
{
pos = (10,0);
ref = zero;
}
);
};
hints = (
{
name = _corner.LeftSerifL.lowercase;
options = 2;
origin = (0,0);
type = Corner;
},
{
name = _corner.LeftSerifL.lowercase;
origin = (0,16);
scale = (1,-1);
type = Corner;
}
);
layerId = "A7465D00-63EF-410E-AC93-F35E24E604BF";
name = "23 Feb 23 at 12:47";
shapes = (
{
closed = 1;
nodes = (
(241,0,l),
(238,132,o),
(239,606,o),
(239,631,cs),
(239,676,o),
(244,692,o),
(244,701,cs),
(244,707,o),
(241,710,o),
(236,710,cs),
(229,710,o),
(223,699,o),
(211,688,cs),
(193,672,o),
(189,658,o),
(189,645,cs),
(189,0,l)
);
},
{
closed = 1;
nodes = (
(245,704,o),
(242,710,o),
(237,710,cs),
(231,710,o),
(227,706,o),
(225,700,cs),
(43,174,ls),
(29,134,o),
(20,130,o),
(59,130,cs),
(300,130,l),
(300,159,l),
(79,159,ls),
(54,159,o),
(53,163,o),
(62,188,cs),
(243,698,ls)
);
}
);
width = 314;
}
);
metricLeft = H;
metricRight = O;
unicode = 52;
}
{
glyphname = five;
kernRight = O;
layers = (
{
background = {
shapes = (
{
pos = (13,0);
ref = three;
},
{
closed = 1;
nodes = (
(219,510,o),
(166,501,o),
(106,480,cs),
(95,476,o),
(89,471,o),
(87,474,cs),
(85,476,o),
(91,482,o),
(95,490,cs),
(111,520,o),
(107,581,o),
(86,631,cs),
(83,639,o),
(84,642,o),
(89,642,cs),
(101,642,o),
(194,618,o),
(291,618,cs),
(421,618,o),
(478,643,o),
(499,658,cs),
(524,675,o),
(537,690,o),
(537,705,cs),
(537,707,o),
(537,710,o),
(534,710,cs),
(531,710,o),
(531,707,o),
(524,702,cs),
(492,680,o),
(416,666,o),
(291,666,cs),
(172,666,o),
(62,710,o),
(46,710,cs),
(25,710,o),
(46,674,o),
(65,632,cs),
(102,553,o),
(98,491,o),
(56,460,cs),
(46,453,o),
(39,449,o),
(40,443,cs),
(42,436,o),
(48,436,o),
(71,450,cs),
(110,475,o),
(197,495,o),
(269,495,cs),
(403,495,o),
(487,398,o),
(487,244,cs),
(487,97,o),
(403,5,o),
(268,5,cs),
(149,5,o),
(74,64,o),
(74,157,cs),
(74,180,o),
(66,195,o),
(50,195,cs),
(24,195,o),
(16,166,o),
(30,121,cs),
(52,41,o),
(148,-10,o),
(279,-10,cs),
(444,-10,o),
(547,88,o),
(547,244,cs),
(547,407,o),
(444,510,o),
(280,510,cs)
);
}
);
};
layerId = m002;
shapes = (
{
closed = 1;
nodes = (
(218,510,o),
(184,503,o),
(139,487,cs),
(112,477,o),
(111,475,o),
(111,475,c),
(110,477,o),
(114,483,o),
(118,490,cs),
(134,521,o),
(130,580,o),
(112,625,cs),
(106,639,o),
(107,642,o),
(108,642,cs),
(120,642,o),
(193,618,o),
(306,618,cs),
(422,618,o),
(481,644,o),
(508,663,cs),
(527,676,o),
(540,691,o),
(540,707,cs),
(540,710,o),
(536,710,o),
(534,710,cs),
(528,710,o),
(529,707,o),
(522,702,cs),
(490,680,o),
(415,666,o),
(321,666,cs),
(173,666,o),
(83,710,o),
(66,710,cs),
(40,710,o),
(63,675,o),
(82,632,cs),
(119,553,o),
(114,489,o),
(74,460,cs),
(63,452,o),
(56,448,o),
(57,443,cs),
(59,436,o),
(70,436,o),
(93,450,cs),
(132,475,o),
(198,495,o),
(269,495,cs),
(413,495,o),
(494,406,o),
(494,248,cs),
(494,98,o),
(414,5,o),
(287,5,cs),
(170,5,o),
(97,63,o),
(97,157,cs),
(97,180,o),
(89,195,o),
(70,195,cs),
(41,195,o),
(33,167,o),
(47,121,cs),
(69,42,o),
(167,-10,o),
(298,-10,cs),
(459,-10,o),
(560,89,o),
(560,244,cs),
(560,406,o),
(452,510,o),
(280,510,cs)
);
}
);
width = 600;
},
{
associatedMasterId = m003;
hints = (
{
name = _corner.LeftSerifS;
options = 1;
origin = (1,7);
scale = (1,-1);
type = Corner;
}
);
layerId = "6C5A686C-C238-4850-BD0C-80A9B7C03C28";
name = "21 Feb 23 at 16:00";
shapes = (
{
closed = 1;
nodes = (
(92,490,l),
(86,484,o),
(79,480,o),
(71,475,cs),
(60,468,o),
(48,463,o),
(39,460,cs),
(30,457,o),
(26,453,o),
(26,448,cs),
(26,438,o),
(34,438,o),
(48,445,cs),
(57,450,o),
(78,464,o),
(101,464,cs),
(160,464,o),
(197,348,o),
(197,242,cs),
(197,117,o),
(171,5,o),
(119,5,cs),
(77,5,o),
(61,35,o),
(61,107,cs),
(61,130,o),
(53,145,o),
(37,145,cs),
(11,145,o),
(3,116,o),
(17,71,cs),
(32,17,o),
(67,-10,o),
(121,-10,cs),
(198,-10,o),
(259,130,o),
(259,244,cs),
(259,356,o),
(200,477,o),
(106,477,cs),
(103,477,o),
(100,477,o),
(100,479,cs),
(100,480,o),
(101,482,o),
(103,483,cs),
(106,485,o),
(110,487,o),
(113,490,c)
);
},
{
closed = 1;
nodes = (
(63,456,l),
(81,466,o),
(92,546,o),
(51,636,cs),
(47,645,o),
(45,651,o),
(65,651,cs),
(245,651,l),
(245,710,l),
(25,710,ls),
(-16,710,o),
(7,690,o),
(33,634,cs),
(78,536,o),
(60,459,o),
(32,456,c)
);
}
);
width = 269;
},
{
associatedMasterId = m003;
background = {
shapes = (
{
pos = (-9,100);
ref = three;
}
);
};
hints = (
{
name = _corner.LeftSerifS;
options = 1;
origin = (0,11);
scale = (1,-1);
type = Corner;
}
);
layerId = "BD1E336A-0891-403B-8139-BCA43F356D50";
name = "21 Feb 23 at 16:21";
shapes = (
{
closed = 1;
nodes = (
(75,475,o),
(61,471,cs),
(53,469,o),
(51,471,o),
(55,477,cs),
(79,517,o),
(92,575,o),
(64,636,cs),
(60,645,o),
(58,653,o),
(78,653,cs),
(258,653,l),
(258,710,l),
(38,710,ls),
(-3,710,o),
(20,690,o),
(46,634,cs),
(85,550,o),
(50,478,o),
(22,460,cs),
(13,454,o),
(9,450,o),
(11,446,cs),
(14,440,o),
(19,442,o),
(33,449,cs),
(54,460,o),
(70,464,o),
(96,464,cs),
(165,464,o),
(202,378,o),
(202,242,cs),
(202,84,o),
(176,5,o),
(124,5,cs),
(82,5,o),
(66,35,o),
(66,107,cs),
(66,130,o),
(58,145,o),
(42,145,cs),
(16,145,o),
(8,116,o),
(22,71,cs),
(37,17,o),
(72,-10,o),
(126,-10,cs),
(203,-10,o),
(264,102,o),
(264,244,cs),
(264,387,o),
(205,477,o),
(111,477,cs),
(92,477,o)
);
}
);
width = 274;
},
{
associatedMasterId = m003;
background = {
shapes = (
{
pos = (-9,100);
ref = three;
}
);
};
hints = (
{
name = _corner.LeftSerifS;
options = 1;
origin = (0,11);
scale = (1,-1);
type = Corner;
}
);
layerId = "A08E3C5F-7BBD-4081-9E8A-EF49B9727B58";
name = "21 Feb 23 at 16:23";
shapes = (
{
closed = 1;
nodes = (
(82,475,o),
(72,472,cs),
(62,469,o),
(62,471,o),
(68,484,cs),
(88,529,o),
(87,587,o),
(64,636,cs),
(60,645,o),
(58,653,o),
(78,653,cs),
(241,653,l),
(241,710,l),
(38,710,ls),
(-3,710,o),
(20,690,o),
(46,634,cs),
(80,560,o),
(73,484,o),
(30,460,cs),
(21,455,o),
(17,453,o),
(17,448,cs),
(17,438,o),
(25,438,o),
(39,445,cs),
(48,450,o),
(69,464,o),
(96,464,cs),
(165,464,o),
(202,378,o),
(202,242,cs),
(202,84,o),
(176,5,o),
(124,5,cs),
(82,5,o),
(66,35,o),
(66,107,cs),
(66,130,o),
(58,145,o),
(42,145,cs),
(16,145,o),
(8,116,o),
(22,71,cs),
(37,17,o),
(72,-10,o),
(126,-10,cs),
(203,-10,o),
(264,102,o),
(264,244,cs),
(264,387,o),
(205,477,o),
(111,477,cs),
(92,477,o)
);
}
);
width = 274;
},
{
associatedMasterId = m003;
background = {
shapes = (
{
pos = (-170,180);
ref = two;
}
);
};
hints = (
{
name = _corner.LeftSerifS;
options = 1;
origin = (0,12);
scale = (1,-1);
type = Corner;
}
);
layerId = "9354CDE6-1318-441B-ADD2-84A6F5ED27F8";
name = "22 Feb 23 at 13:39";
shapes = (
{
closed = 1;
nodes = (
(111,487,o),
(98,481,o),
(88,477,cs),
(72,470,o),
(63,437,o),
(55,437,cs),
(50,437,o),
(72,616,o),
(72,621,cs),
(72,635,o),
(85,650,o),
(105,650,cs),
(261,650,l),
(261,700,l),
(68,700,ls),
(27,700,o),
(55,691,o),
(55,638,cs),
(55,650,o),
(29,391,o),
(33,391,cs),
(58,391,o),
(66,472,o),
(121,472,cs),
(178,472,o),
(217,410,o),
(217,244,cs),
(217,84,o),
(181,5,o),
(120,5,cs),
(82,5,o),
(66,35,o),
(66,107,cs),
(66,130,o),
(58,145,o),
(42,145,cs),
(16,145,o),
(8,116,o),
(22,71,cs),
(37,17,o),
(72,-10,o),
(131,-10,cs),
(208,-10,o),
(269,102,o),
(269,244,cs),
(269,400,o),
(211,487,o),
(132,487,cs)
);
}
);
width = 284;
},
{
associatedMasterId = m003;
background = {
shapes = (
{
pos = (-170,180);
ref = two;
}
);
};
hints = (
{
name = _corner.LeftSerifS;
options = 1;
origin = (0,12);
scale = (1,-1);
type = Corner;
}
);
layerId = "B299A918-60B4-49F6-8C94-B74BCF9F1E79";
name = "22 Feb 23 at 13:39";
shapes = (
{
closed = 1;
nodes = (
(111,487,o),
(98,481,o),
(88,477,cs),
(72,470,o),
(63,437,o),
(55,437,cs),
(50,437,o),
(72,616,o),
(72,621,cs),
(72,635,o),
(85,650,o),
(105,650,cs),
(261,650,l),
(261,700,l),
(68,700,ls),
(27,700,o),
(55,691,o),
(55,638,cs),
(55,650,o),
(29,391,o),
(33,391,cs),
(58,391,o),
(66,472,o),
(121,472,cs),
(178,472,o),
(217,410,o),
(217,244,cs),
(217,84,o),
(181,5,o),
(120,5,cs),
(82,5,o),
(66,35,o),
(66,107,cs),
(66,130,o),
(58,145,o),
(42,145,cs),
(16,145,o),
(8,116,o),
(22,71,cs),
(37,17,o),
(72,-10,o),
(131,-10,cs),
(208,-10,o),
(269,102,o),
(269,244,cs),
(269,400,o),
(211,487,o),
(132,487,cs)
);
}
);
width = 284;
},
{
associatedMasterId = m003;
background = {
shapes = (
{
pos = (292,0);
ref = seven;
scale = (-1,1);
}
);
};
hints = (
{
name = _corner.LeftSerifS;
options = 1;
origin = (0,12);
scale = (1,-1);
type = Corner;
}
);
layerId = "F79EBC18-E30B-4732-9E71-41C21DA88F09";
name = "22 Feb 23 at 13:40";
shapes = (
{
closed = 1;
nodes = (
(111,487,o),
(98,481,o),
(88,477,cs),
(68,469,o),
(68,472,o),
(73,482,cs),
(93,526,o),
(90,569,o),
(68,621,cs),
(62,635,o),
(60,643,o),
(80,643,cs),
(246,643,l),
(246,700,l),
(43,700,ls),
(2,700,o),
(25,680,o),
(47,632,cs),
(84,552,o),
(79,490,o),
(38,460,cs),
(28,453,o),
(22,453,o),
(22,446,cs),
(22,438,o),
(30,437,o),
(53,450,cs),
(77,464,o),
(101,472,o),
(121,472,cs),
(178,472,o),
(217,410,o),
(217,244,cs),
(217,84,o),
(181,5,o),
(120,5,cs),
(82,5,o),
(66,35,o),
(66,107,cs),
(66,130,o),
(58,145,o),
(42,145,cs),
(16,145,o),
(8,116,o),
(22,71,cs),
(37,17,o),
(72,-10,o),
(131,-10,cs),
(208,-10,o),
(269,102,o),
(269,244,cs),
(269,400,o),
(211,487,o),
(132,487,cs)
);
}
);
width = 284;
},
{
associatedMasterId = m003;
background = {
shapes = (
{
closed = 1;
nodes = (
(117,487,o),
(102,485,o),
(88,480,cs),
(77,476,o),
(71,471,o),
(69,474,cs),
(67,476,o),
(73,482,o),
(77,490,cs),
(93,520,o),
(89,571,o),
(68,621,cs),
(65,629,o),
(66,632,o),
(71,632,cs),
(83,632,o),
(106,619,o),
(144,619,cs),
(173,619,o),
(200,625,o),
(220,641,cs),
(238,656,o),
(259,682,o),
(259,697,cs),
(259,699,o),
(258,702,o),
(255,702,cs),
(252,702,o),
(250,700,o),
(246,695,cs),
(223,667,o),
(178,667,o),
(149,667,cs),
(90,667,o),
(45,700,o),
(27,700,cs),
(11,700,o),
(28,674,o),
(47,632,cs),
(84,553,o),
(80,491,o),
(38,460,cs),
(28,453,o),
(21,449,o),
(22,443,cs),
(24,436,o),
(30,436,o),
(53,450,cs),
(75,464,o),
(100,472,o),
(121,472,cs),
(182,472,o),
(209,403,o),
(209,244,cs),
(209,78,o),
(182,5,o),
(120,5,cs),
(82,5,o),
(66,35,o),
(66,107,cs),
(66,130,o),
(58,145,o),
(42,145,cs),
(16,145,o),
(8,116,o),
(22,71,cs),
(37,17,o),
(72,-10,o),
(131,-10,cs),
(212,-10,o),
(269,95,o),
(269,244,cs),
(269,400,o),
(220,487,o),
(132,487,cs)
);
}
);
};
layerId = "500D42DB-B662-4478-AA56-E985F13FF1BB";
name = "23 Feb 23 at 12:13";
shapes = (
{
closed = 1;
nodes = (
(117,487,o),
(102,485,o),
(88,480,cs),
(77,476,o),
(71,471,o),
(69,474,cs),
(67,476,o),
(73,482,o),
(77,490,cs),
(93,520,o),
(89,571,o),
(68,621,cs),
(65,629,o),
(66,632,o),
(71,632,cs),
(83,632,o),
(106,629,o),
(153,629,cs),
(173,629,o),
(200,633,o),
(221,648,cs),
(244,665,o),
(259,690,o),
(259,705,cs),
(259,707,o),
(258,710,o),
(255,710,cs),
(252,710,o),
(252,708,o),
(246,702,cs),
(225,681,o),
(196,677,o),
(153,677,cs),
(75,677,o),
(44,710,o),
(23,710,cs),
(7,710,o),
(28,674,o),
(47,632,cs),
(84,553,o),
(80,491,o),
(38,460,cs),
(28,453,o),
(21,449,o),
(22,443,cs),
(24,436,o),
(30,436,o),
(53,450,cs),
(75,464,o),
(100,472,o),
(121,472,cs),
(182,472,o),
(209,403,o),
(209,244,cs),
(209,78,o),
(182,5,o),
(120,5,cs),
(82,5,o),
(66,35,o),
(66,107,cs),
(66,130,o),
(58,145,o),
(42,145,cs),
(16,145,o),
(8,116,o),
(22,71,cs),
(37,17,o),
(72,-10,o),
(131,-10,cs),
(212,-10,o),
(269,95,o),
(269,244,cs),
(269,400,o),
(220,487,o),
(132,487,cs)
);
}
);
width = 284;
},
{
background = {
shapes = (
{
angle = 180;
pos = (331,700);
ref = two;
}
);
};
layerId = m003;
name = "Regular Condensed";
shapes = (
{
closed = 1;
nodes = (
(122,487,o),
(107,485,o),
(93,480,cs),
(82,476,o),
(76,471,o),
(74,474,cs),
(72,476,o),
(78,482,o),
(82,490,cs),
(98,520,o),
(94,571,o),
(73,621,cs),
(70,629,o),
(71,632,o),
(76,632,cs),
(88,632,o),
(111,629,o),
(158,629,cs),
(178,629,o),
(205,633,o),
(226,648,cs),
(249,665,o),
(264,690,o),
(264,705,cs),
(264,707,o),
(263,710,o),
(260,710,cs),
(257,710,o),
(257,708,o),
(251,702,cs),
(230,681,o),
(201,677,o),
(158,677,cs),
(80,677,o),
(49,710,o),
(28,710,cs),
(12,710,o),
(33,674,o),
(52,632,cs),
(89,553,o),
(85,491,o),
(43,460,cs),
(33,453,o),
(26,449,o),
(27,443,cs),
(29,436,o),
(35,436,o),
(58,450,cs),
(80,464,o),
(105,472,o),
(126,472,cs),
(187,472,o),
(214,403,o),
(214,244,cs),
(214,78,o),
(187,5,o),
(125,5,cs),
(87,5,o),
(71,35,o),
(71,107,cs),
(71,130,o),
(63,145,o),
(47,145,cs),
(21,145,o),
(13,116,o),
(27,71,cs),
(42,17,o),
(77,-10,o),
(136,-10,cs),
(217,-10,o),
(274,95,o),
(274,244,cs),
(274,400,o),
(225,487,o),
(137,487,cs)
);
}
);
width = 294;
}
);
metricLeft = H;
metricRight = H;
unicode = 53;
}
{
glyphname = six;
kernLeft = O;
kernRight = O;
layers = (
{
background = {
shapes = (
{
angle = 180;
pos = (317,700);
ref = three;
}
);
};
layerId = m003;
shapes = (
{
closed = 1;
nodes = (
(157,455,o),
(128,431,o),
(111,388,cs),
(107,378,o),
(107,373,o),
(104,373,cs),
(100,373,o),
(101,382,o),
(101,393,cs),
(102,613,o),
(127,696,o),
(191,696,cs),
(229,696,o),
(246,663,o),
(246,593,cs),
(246,569,o),
(255,555,o),
(271,555,cs),
(294,555,o),
(302,584,o),
(290,628,cs),
(275,683,o),
(239,710,o),
(190,710,cs),
(99,710,o),
(50,581,o),
(50,348,cs),
(50,118,o),
(97,-10,o),
(175,-10,cs),
(246,-10,o),
(299,92,o),
(299,236,cs),
(299,371,o),
(257,455,o),
(191,455,cs)
);
},
{
closed = 1;
nodes = (
(104,363,o),
(129,420,o),
(171,420,cs),
(215,420,o),
(240,350,o),
(240,224,cs),
(240,79,o),
(221,9,o),
(183,9,cs),
(137,9,o),
(112,96,o),
(107,272,cs)
);
}
);
width = 349;
},
{
background = {
shapes = (
{
angle = 180;
pos = (605,700);
ref = three;
}
);
};
layerId = m002;
shapes = (
{
closed = 1;
nodes = (
(234,510,o),
(155,460,o),
(118,383,cs),
(113,372,o),
(111,365,o),
(107,365,cs),
(105,365,o),
(104,382,o),
(104,393,cs),
(109,588,o),
(189,695,o),
(325,695,cs),
(425,695,o),
(491,635,o),
(491,543,cs),
(491,519,o),
(500,505,o),
(518,505,cs),
(547,505,o),
(555,534,o),
(541,578,cs),
(516,656,o),
(428,710,o),
(319,710,cs),
(143,710,o),
(47,580,o),
(47,348,cs),
(47,119,o),
(138,-10,o),
(305,-10,cs),
(456,-10,o),
(562,101,o),
(562,256,cs),
(562,403,o),
(469,510,o),
(324,510,cs)
);
},
{
closed = 1;
nodes = (
(110,389,o),
(199,479,o),
(311,479,cs),
(427,479,o),
(497,396,o),
(497,244,cs),
(497,92,o),
(430,9,o),
(313,9,cs),
(184,9,o),
(110,102,o),
(110,260,cs)
);
}
);
width = 609;
},
{
associatedMasterId = m003;
background = {
shapes = (
{
ref = zero;
}
);
};
layerId = "3D10FCC5-28F8-4A0B-9B55-74AA6E33FB16";
name = "22 Feb 23 at 14:06";
shapes = (
{
closed = 1;
nodes = (
(97,377,o),
(67,312,o),
(67,196,c),
(79,196,l),
(79,308,o),
(101,364,o),
(147,364,cs),
(190,364,o),
(210,312,o),
(210,192,cs),
(210,72,o),
(199,5,o),
(149,5,cs),
(100,5,o),
(74,132,o),
(74,334,cs),
(74,603,o),
(87,694,o),
(126,694,cs),
(178,694,o),
(201,605,o),
(201,510,cs),
(201,487,o),
(209,472,o),
(225,472,cs),
(251,472,o),
(259,501,o),
(245,546,cs),
(240,565,o),
(225,710,o),
(139,710,cs),
(50,710,o),
(20,530,o),
(20,351,cs),
(20,90,o),
(60,-10,o),
(151,-10,cs),
(222,-10,o),
(262,80,o),
(262,194,cs),
(262,306,o),
(230,377,o),
(158,377,cs)
);
}
);
width = 269;
},
{
associatedMasterId = m003;
background = {
shapes = (
{
pos = (-40,0);
ref = b;
}
);
};
layerId = "1531EAFF-5DA2-4D48-98F9-1666FB0CE7CB";
name = "22 Feb 23 at 14:07";
shapes = (
{
closed = 1;
nodes = (
(122,377,o),
(97,354,o),
(82,312,cs),
(76,295,o),
(76,284,o),
(73,284,cs),
(69,284,o),
(69,311,o),
(69,344,cs),
(69,603,o),
(87,694,o),
(126,694,cs),
(178,694,o),
(201,605,o),
(201,510,cs),
(201,487,o),
(209,472,o),
(225,472,cs),
(251,472,o),
(259,501,o),
(245,546,cs),
(240,565,o),
(225,710,o),
(139,710,cs),
(50,710,o),
(20,530,o),
(20,351,cs),
(20,90,o),
(60,-10,o),
(151,-10,cs),
(222,-10,o),
(262,80,o),
(262,194,cs),
(262,306,o),
(230,377,o),
(158,377,cs)
);
},
{
closed = 1;
nodes = (
(79,308,o),
(101,364,o),
(147,364,cs),
(190,364,o),
(210,312,o),
(210,192,cs),
(210,72,o),
(199,5,o),
(149,5,cs),
(112,5,o),
(79,76,o),
(79,196,cs)
);
}
);
width = 269;
},
{
associatedMasterId = m003;
background = {
shapes = (
{
pos = (-6,0);
ref = zero;
}
);
};
layerId = "0D40D266-D522-4326-8B73-FDAA92C9CA86";
name = "23 Feb 23 at 11:19";
shapes = (
{
closed = 1;
nodes = (
(120,509,o),
(92,485,o),
(75,442,cs),
(71,432,o),
(71,429,o),
(68,429,cs),
(63,429,o),
(64,436,o),
(64,447,cs),
(69,613,o),
(95,695,o),
(141,695,cs),
(177,695,o),
(195,661,o),
(195,593,cs),
(195,570,o),
(203,555,o),
(219,555,cs),
(245,555,o),
(252,584,o),
(239,629,cs),
(224,683,o),
(188,710,o),
(149,710,cs),
(56,710,o),
(15,591,o),
(15,351,cs),
(15,100,o),
(52,-10,o),
(136,-10,cs),
(210,-10,o),
(257,88,o),
(257,244,cs),
(257,421,o),
(223,509,o),
(153,509,cs)
);
},
{
closed = 1;
nodes = (
(65,386,o),
(89,474,o),
(133,474,cs),
(185,474,o),
(205,410,o),
(205,242,cs),
(205,90,o),
(183,5,o),
(144,5,cs),
(95,5,o),
(65,110,o),
(65,276,cs)
);
}
);
width = 272;
},
{
associatedMasterId = m003;
background = {
shapes = (
{
pos = (10,0);
ref = zero;
}
);
};
layerId = "F891C7F4-86B1-49CB-B396-E9E938175CB5";
name = "19 Jun 23 at 12:10";
shapes = (
{
closed = 1;
nodes = (
(137,455,o),
(108,431,o),
(91,388,cs),
(87,378,o),
(87,373,o),
(84,373,cs),
(80,373,o),
(81,382,o),
(81,393,cs),
(87,603,o),
(116,695,o),
(173,695,cs),
(212,695,o),
(242,645,o),
(249,566,cs),
(251,549,o),
(253,544,o),
(259,544,cs),
(268,544,o),
(265,557,o),
(263,569,cs),
(244,671,o),
(217,710,o),
(167,710,cs),
(78,710,o),
(30,590,o),
(30,348,cs),
(30,118,o),
(77,-10,o),
(155,-10,cs),
(226,-10,o),
(279,92,o),
(279,236,cs),
(279,371,o),
(237,455,o),
(171,455,cs)
);
},
{
closed = 1;
nodes = (
(84,363,o),
(109,420,o),
(151,420,cs),
(195,420,o),
(220,350,o),
(220,224,cs),
(220,79,o),
(201,9,o),
(163,9,cs),
(117,9,o),
(92,96,o),
(87,272,cs)
);
}
);
width = 309;
},
{
associatedMasterId = m002;
background = {
shapes = (
{
pos = (18,0);
ref = three;
}
);
};
layerId = "0EE27EFB-6C31-4083-9FC3-49CB774E9B4A";
name = "19 Jun 23 at 12:15";
shapes = (
{
closed = 1;
nodes = (
(216,510,o),
(138,461,o),
(101,383,cs),
(96,373,o),
(94,365,o),
(87,365,cs),
(80,365,o),
(81,382,o),
(81,393,cs),
(86,587,o),
(170,695,o),
(315,695,cs),
(402,695,o),
(476,642,o),
(495,566,cs),
(499,550,o),
(499,544,o),
(505,544,cs),
(514,544,o),
(512,558,o),
(509,569,cs),
(483,659,o),
(411,710,o),
(309,710,cs),
(130,710,o),
(30,580,o),
(30,348,cs),
(30,118,o),
(121,-10,o),
(285,-10,cs),
(434,-10,o),
(539,100,o),
(539,256,cs),
(539,404,o),
(447,510,o),
(304,510,cs)
);
},
{
closed = 1;
nodes = (
(87,388,o),
(177,479,o),
(291,479,cs),
(409,479,o),
(480,395,o),
(480,244,cs),
(480,93,o),
(413,9,o),
(293,9,cs),
(161,9,o),
(87,103,o),
(87,260,cs)
);
}
);
width = 569;
},
{
associatedMasterId = m002;
background = {
shapes = (
{
angle = 180;
pos = (585,700);
ref = three;
}
);
};
layerId = "B3B458E2-A0C5-4BC3-8D4C-7A89BE2B05D4";
name = "19 Jun 23 at 12:16";
shapes = (
{
closed = 1;
nodes = (
(216,510,o),
(138,461,o),
(101,383,cs),
(96,373,o),
(94,365,o),
(87,365,cs),
(80,365,o),
(81,382,o),
(81,393,cs),
(86,587,o),
(170,695,o),
(315,695,cs),
(402,695,o),
(476,642,o),
(495,566,cs),
(499,550,o),
(499,544,o),
(505,544,cs),
(514,544,o),
(512,558,o),
(509,569,cs),
(483,659,o),
(411,710,o),
(309,710,cs),
(130,710,o),
(30,580,o),
(30,348,cs),
(30,118,o),
(121,-10,o),
(285,-10,cs),
(434,-10,o),
(539,100,o),
(539,256,cs),
(539,404,o),
(447,510,o),
(304,510,cs)
);
},
{
closed = 1;
nodes = (
(87,388,o),
(177,479,o),
(291,479,cs),
(409,479,o),
(480,395,o),
(480,244,cs),
(480,93,o),
(413,9,o),
(293,9,cs),
(161,9,o),
(87,103,o),
(87,260,cs)
);
}
);
width = 569;
}
);
metricLeft = "=O+20";
metricRight = "=O+20";
unicode = 54;
}
{
glyphname = seven;
kernLeft = T;
kernRight = V;
layers = (
{
background = {
shapes = (
{
angle = 180;
pos = (637,699);
ref = two;
}
);
};
layerId = m002;
metricRight = "=6";
shapes = (
{
closed = 1;
nodes = (
(505,651,o),
(496,636,o),
(491,626,cs),
(370,400,o),
(188,308,o),
(188,48,cs),
(188,18,ls),
(188,4,o),
(192,0,o),
(205,0,cs),
(229,0,ls),
(241,0,o),
(245,4,o),
(245,18,cs),
(245,35,ls),
(245,213,o),
(252,238,o),
(457,536,cs),
(486,580,o),
(509,625,o),
(525,654,cs),
(528,660,o),
(531,665,o),
(537,669,cs),
(544,675,o),
(563,684,o),
(563,696,cs),
(563,705,o),
(556,710,o),
(548,710,cs),
(527,710,o),
(507,689,o),
(493,677,cs),
(435,628,o),
(377,629,o),
(306,665,cs),
(242,697,o),
(205,713,o),
(148,713,cs),
(89,713,o),
(47,687,o),
(32,630,cs),
(30,620,o),
(26,607,o),
(39,607,cs),
(47,607,o),
(50,611,o),
(52,625,cs),
(57,652,o),
(91,670,o),
(124,670,cs),
(156,670,o),
(185,662,o),
(233,636,cs),
(350,573,o),
(421,578,o),
(492,649,cs),
(495,652,o),
(499,657,o),
(502,654,cs)
);
}
);
width = 569;
},
{
associatedMasterId = m003;
hints = (
{
name = _corner.LeftSerifS;
origin = (1,7);
scale = (-1,-1);
type = Corner;
}
);
layerId = "6915BB28-2F18-4A55-8B91-557F14ECBFBE";
name = "22 Feb 23 at 13:19";
shapes = (
{
closed = 1;
nodes = (
(201,617,l),
(206,623,o),
(211,630,o),
(216,637,cs),
(218,640,o),
(221,645,o),
(223,643,cs),
(226,641,o),
(223,637,o),
(220,630,cs),
(111,396,o),
(25,229,o),
(25,28,cs),
(25,1,l),
(77,1,l),
(77,45,ls),
(77,204,o),
(90,314,o),
(193,536,cs),
(218,591,o),
(236,625,o),
(247,649,cs),
(261,680,o),
(268,685,o),
(268,696,cs),
(268,706,o),
(258,708,o),
(248,695,cs),
(228,669,ls),
(215,652,o),
(204,640,o),
(195,634,c)
);
},
{
closed = 1;
nodes = (
(174,579,o),
(180,562,o),
(217,642,cs),
(239,690,o),
(262,710,o),
(221,710,cs),
(18,710,l),
(18,653,l),
(184,653,ls),
(204,653,o),
(202,645,o),
(196,631,cs)
);
}
);
width = 283;
},
{
associatedMasterId = m003;
hints = (
{
name = _corner.LeftSerifS;
origin = (0,40);
scale = (-1,-1);
type = Corner;
}
);
layerId = "A06737B3-045B-4761-BF96-DC55D50CAB77";
name = "22 Feb 23 at 13:34";
shapes = (
{
closed = 1;
nodes = (
(192,643,o),
(201,643,o),
(219,643,cs),
(234,643,o),
(223,627,o),
(220,620,cs),
(111,386,o),
(25,219,o),
(25,28,cs),
(25,1,l),
(77,1,l),
(77,45,ls),
(77,194,o),
(90,304,o),
(193,526,cs),
(218,581,o),
(236,615,o),
(247,639,cs),
(261,670,o),
(268,684,o),
(268,692,cs),
(268,697,o),
(265,700,o),
(261,700,cs),
(256,700,o),
(252,697,o),
(249,691,cs),
(245,683,o),
(241,656,o),
(231,656,cs),
(222,656,o),
(231,676,o),
(233,681,cs),
(238,694,o),
(233,700,o),
(221,700,cs),
(32,700,ls),
(17,700,o),
(18,694,o),
(18,683,cs),
(18,643,l),
(184,643,ls)
);
}
);
width = 283;
},
{
associatedMasterId = m003;
hints = (
{
name = _corner.LeftSerifS;
origin = (0,40);
scale = (-1,-1);
type = Corner;
}
);
layerId = "6E30742B-D44D-4726-9D0A-790C8281CCB9";
name = "22 Feb 23 at 13:34";
shapes = (
{
closed = 1;
nodes = (
(192,643,o),
(201,643,o),
(219,643,cs),
(234,643,o),
(223,627,o),
(220,620,cs),
(111,386,o),
(45,219,o),
(45,28,cs),
(45,1,l),
(97,1,l),
(97,45,ls),
(97,194,o),
(90,304,o),
(193,526,cs),
(218,581,o),
(236,615,o),
(247,639,cs),
(261,670,o),
(268,684,o),
(268,692,cs),
(268,697,o),
(265,700,o),
(261,700,cs),
(256,700,o),
(252,697,o),
(249,691,cs),
(245,683,o),
(241,656,o),
(231,656,cs),
(222,656,o),
(231,676,o),
(233,681,cs),
(238,694,o),
(233,700,o),
(221,700,cs),
(32,700,ls),
(17,700,o),
(18,694,o),
(18,683,cs),
(18,643,l),
(184,643,ls)
);
}
);
width = 283;
},
{
associatedMasterId = m003;
background = {
shapes = (
{
angle = 180;
pos = (289,700);
ref = two;
}
);
};
hints = (
{
name = _corner.LeftSerifS;
origin = (0,43);
scale = (-1,-1);
type = Corner;
}
);
layerId = "AD029FF9-A749-4ECE-9B27-1309DCC534C6";
name = "24 Feb 23 at 16:35";
shapes = (
{
closed = 1;
nodes = (
(211,643,ls),
(226,643,o),
(219,627,o),
(216,620,cs),
(107,386,o),
(41,219,o),
(41,28,cs),
(41,19,o),
(41,1,o),
(50,1,cs),
(84,1,ls),
(90,1,o),
(93,5,o),
(93,13,cs),
(93,45,ls),
(93,194,o),
(86,304,o),
(189,526,cs),
(214,581,o),
(232,615,o),
(243,639,cs),
(257,670,o),
(266,684,o),
(266,692,cs),
(266,699,o),
(264,702,o),
(259,702,cs),
(254,702,o),
(250,697,o),
(248,690,cs),
(242,675,o),
(240,652,o),
(230,652,cs),
(221,652,o),
(226,664,o),
(230,677,cs),
(233,688,o),
(234,700,o),
(217,700,cs),
(28,700,ls),
(13,700,o),
(14,694,o),
(14,683,cs),
(14,643,l)
);
}
);
width = 276;
},
{
anchors = (
{
name = bottom;
pos = (109,0);
},
{
name = top;
pos = (109,700);
}
);
associatedMasterId = m003;
background = {
shapes = (
{
angle = 180;
pos = (202,700);
ref = two;
}
);
};
hints = (
{
horizontal = 1;
origin = (0,2);
target = up;
type = BottomGhost;
},
{
horizontal = 1;
origin = (0,5);
target = down;
type = TopGhost;
},
{
origin = (0,3);
target = (0,2);
type = Stem;
},
{
name = _corner.LeftSerifS;
origin = (0,2);
scale = (-1,1);
type = Corner;
},
{
name = _corner.LeftSerifS;
options = 1;
origin = (0,3);
type = Corner;
}
);
layerId = "8D9C567C-D7C5-4C8C-8DAA-F9B98DC17FE6";
name = "11 Jun 23 at 19:40";
shapes = (
{
closed = 1;
nodes = (
(136,440,o),
(114,320,o),
(61,0,c),
(76,0,l),
(111,211,o),
(148,428,o),
(195,700,c),
(171,700,l)
);
},
{
pos = (295,0);
ref = _Etop;
scale = (-1,1);
},
{
closed = 1;
nodes = (
(112,365,o),
(156,365,o),
(220,363,cs),
(232,363,o),
(232,366,o),
(234,374,cs),
(235,379,o),
(231,382,o),
(225,382,cs),
(161,380,o),
(117,380,o),
(53,382,cs),
(46,382,o),
(44,378,o),
(43,373,cs),
(41,366,o),
(43,363,o),
(48,363,cs)
);
}
);
width = 296;
},
{
background = {
shapes = (
{
closed = 1;
nodes = (
(236,651,o),
(227,636,o),
(222,626,cs),
(101,400,o),
(-81,308,o),
(-81,48,cs),
(-81,18,ls),
(-81,4,o),
(-77,0,o),
(-64,0,cs),
(-40,0,ls),
(-28,0,o),
(-24,4,o),
(-24,18,cs),
(-24,35,ls),
(-24,213,o),
(-17,238,o),
(188,536,cs),
(217,580,o),
(240,625,o),
(256,654,cs),
(259,660,o),
(262,665,o),
(268,669,cs),
(275,675,o),
(294,684,o),
(294,696,cs),
(294,705,o),
(287,710,o),
(279,710,cs),
(258,710,o),
(238,689,o),
(224,677,cs),
(166,628,o),
(98,632,o),
(29,669,cs),
(-26,699,o),
(-54,710,o),
(-107,710,cs),
(-174,710,o),
(-224,678,o),
(-237,630,cs),
(-239,620,o),
(-243,607,o),
(-230,607,cs),
(-222,607,o),
(-219,611,o),
(-217,625,cs),
(-212,652,o),
(-178,670,o),
(-131,670,cs),
(-90,670,o),
(-65,662,o),
(-28,644,cs),
(75,592,o),
(167,593,o),
(223,649,cs),
(226,652,o),
(230,657,o),
(233,654,cs)
);
}
);
};
layerId = m003;
metricRight = "=-4";
name = "Regular Condensed";
shapes = (
{
closed = 1;
nodes = (
(238,650,o),
(230,637,o),
(225,626,cs),
(97,366,o),
(47,205,o),
(47,48,cs),
(47,18,ls),
(47,4,o),
(51,0,o),
(61,0,cs),
(85,0,ls),
(94,0,o),
(98,4,o),
(98,18,cs),
(98,55,ls),
(98,250,o),
(125,382,o),
(198,536,cs),
(223,591,o),
(240,625,o),
(251,649,cs),
(254,656,o),
(257,662,o),
(262,667,cs),
(271,675,o),
(287,684,o),
(287,697,cs),
(287,707,o),
(280,710,o),
(275,710,cs),
(261,710,o),
(239,683,o),
(232,677,cs),
(207,655,o),
(183,656,o),
(155,676,cs),
(127,695,o),
(110,710,o),
(80,710,cs),
(45,710,o),
(25,683,o),
(12,630,cs),
(10,621,o),
(7,607,o),
(16,607,cs),
(22,607,o),
(24,612,o),
(26,625,cs),
(31,651,o),
(36,670,o),
(56,670,cs),
(72,670,o),
(87,657,o),
(109,644,cs),
(160,614,o),
(188,614,o),
(221,647,cs),
(224,650,o),
(229,655,o),
(233,653,cs)
);
}
);
width = 283;
},
{
associatedMasterId = m003;
background = {
shapes = (
{
angle = 180;
pos = (279,700);
ref = two;
}
);
};
layerId = "7A89A378-F271-4D09-B59B-E9D2D1FA7881";
name = "19 Jun 23 at 12:21";
shapes = (
{
closed = 1;
nodes = (
(237,649,o),
(228,637,o),
(223,626,cs),
(113,400,o),
(67,229,o),
(67,48,cs),
(67,18,ls),
(67,4,o),
(71,0,o),
(81,0,cs),
(105,0,ls),
(114,0,o),
(118,4,o),
(118,18,cs),
(118,55,ls),
(118,279,o),
(140,413,o),
(198,536,cs),
(223,591,o),
(241,625,o),
(252,649,cs),
(266,680,o),
(273,685,o),
(273,695,cs),
(273,704,o),
(264,705,o),
(253,695,cs),
(232,677,ls),
(207,655,o),
(183,656,o),
(155,676,cs),
(127,695,o),
(110,710,o),
(80,710,cs),
(45,710,o),
(25,683,o),
(12,630,cs),
(10,621,o),
(7,607,o),
(16,607,cs),
(22,607,o),
(24,612,o),
(26,625,cs),
(31,651,o),
(36,670,o),
(56,670,cs),
(72,670,o),
(87,657,o),
(109,644,cs),
(160,614,o),
(188,614,o),
(221,647,cs),
(224,650,o),
(228,654,o),
(232,652,cs)
);
}
);
width = 283;
},
{
associatedMasterId = m002;
background = {
shapes = (
{
angle = 180;
pos = (587,699);
ref = two;
}
);
};
layerId = "11F9C8D5-3123-4187-A8DB-8DCFF74F00CD";
name = "14 May 24 at 18:44";
shapes = (
{
closed = 1;
nodes = (
(496,650,o),
(488,636,o),
(483,626,cs),
(373,399,o),
(188,308,o),
(188,48,cs),
(188,18,ls),
(188,4,o),
(192,0,o),
(205,0,cs),
(229,0,ls),
(241,0,o),
(245,4,o),
(245,18,cs),
(245,35,ls),
(245,213,o),
(254,237,o),
(457,536,cs),
(479,568,o),
(507,626,o),
(518,649,cs),
(532,681,o),
(539,686,o),
(539,695,cs),
(539,704,o),
(525,705,o),
(514,695,cs),
(493,677,ls),
(435,628,o),
(367,632,o),
(298,669,cs),
(243,699,o),
(215,710,o),
(162,710,cs),
(95,710,o),
(45,678,o),
(32,630,cs),
(30,620,o),
(26,607,o),
(39,607,cs),
(47,607,o),
(50,611,o),
(52,625,cs),
(57,652,o),
(91,670,o),
(138,670,cs),
(179,670,o),
(204,662,o),
(241,644,cs),
(344,592,o),
(430,591,o),
(486,647,cs),
(489,650,o),
(491,653,o),
(494,652,c)
);
}
);
width = 569;
},
{
associatedMasterId = m003;
background = {
shapes = (
{
closed = 1;
nodes = (
(236,651,o),
(227,636,o),
(222,626,cs),
(101,400,o),
(-81,308,o),
(-81,48,cs),
(-81,18,ls),
(-81,4,o),
(-77,0,o),
(-64,0,cs),
(-40,0,ls),
(-28,0,o),
(-24,4,o),
(-24,18,cs),
(-24,35,ls),
(-24,213,o),
(-17,238,o),
(188,536,cs),
(217,580,o),
(240,625,o),
(256,654,cs),
(259,660,o),
(262,665,o),
(268,669,cs),
(275,675,o),
(294,684,o),
(294,696,cs),
(294,705,o),
(287,710,o),
(279,710,cs),
(258,710,o),
(238,689,o),
(224,677,cs),
(166,628,o),
(98,632,o),
(29,669,cs),
(-26,699,o),
(-54,710,o),
(-107,710,cs),
(-174,710,o),
(-224,678,o),
(-237,630,cs),
(-239,620,o),
(-243,607,o),
(-230,607,cs),
(-222,607,o),
(-219,611,o),
(-217,625,cs),
(-212,652,o),
(-178,670,o),
(-131,670,cs),
(-90,670,o),
(-65,662,o),
(-28,644,cs),
(75,592,o),
(167,593,o),
(223,649,cs),
(226,652,o),
(230,657,o),
(233,654,cs)
);
}
);
};
layerId = "4660268E-3839-4F96-970B-25FEADA5A0AD";
name = "14 May 24 at 18:50";
shapes = (
{
closed = 1;
nodes = (
(237,649,o),
(228,637,o),
(223,626,cs),
(95,364,o),
(47,205,o),
(47,48,cs),
(47,18,ls),
(47,4,o),
(51,0,o),
(61,0,cs),
(85,0,ls),
(94,0,o),
(98,4,o),
(98,18,cs),
(98,55,ls),
(98,250,o),
(125,382,o),
(198,536,cs),
(223,591,o),
(241,625,o),
(252,649,cs),
(266,680,o),
(273,685,o),
(273,695,cs),
(273,704,o),
(264,705,o),
(253,695,cs),
(232,677,ls),
(207,655,o),
(183,656,o),
(155,676,cs),
(127,695,o),
(110,710,o),
(80,710,cs),
(45,710,o),
(25,683,o),
(12,630,cs),
(10,621,o),
(7,607,o),
(16,607,cs),
(22,607,o),
(24,612,o),
(26,625,cs),
(31,651,o),
(36,670,o),
(56,670,cs),
(72,670,o),
(87,657,o),
(109,644,cs),
(160,614,o),
(188,614,o),
(221,647,cs),
(224,650,o),
(228,654,o),
(232,652,cs)
);
}
);
width = 283;
}
);
metricLeft = T;
metricRight = T;
unicode = 55;
}
{
glyphname = eight;
layers = (
{
layerId = m003;
shapes = (
{
closed = 1;
nodes = (
(106,710,o),
(60,647,o),
(60,560,cs),
(60,496,o),
(85,443,o),
(150,359,c),
(85,286,o),
(50,211,o),
(50,133,cs),
(50,41,o),
(98,-10,o),
(178,-10,cs),
(297,-10,o),
(307,105,o),
(307,148,cs),
(307,225,o),
(276,301,o),
(212,380,c),
(266,448,o),
(296,517,o),
(296,573,cs),
(296,653,o),
(247,710,o),
(178,710,cs)
);
},
{
closed = 1;
nodes = (
(90,223,o),
(118,296,o),
(162,343,c),
(227,266,o),
(256,196,o),
(256,115,cs),
(256,41,o),
(232,5,o),
(184,5,cs),
(127,5,o),
(90,57,o),
(90,146,cs)
);
},
{
closed = 1;
nodes = (
(108,650,o),
(136,697,o),
(181,697,cs),
(228,697,o),
(258,646,o),
(258,565,cs),
(258,503,o),
(236,442,o),
(198,395,c),
(136,468,o),
(108,526,o),
(108,588,cs)
);
}
);
width = 357;
},
{
background = {
shapes = (
{
pos = (72,0);
ref = S;
},
{
pos = (591,0);
ref = S;
scale = (-1,1);
}
);
};
layerId = m002;
shapes = (
{
closed = 1;
nodes = (
(175,710,o),
(67,643,o),
(67,550,cs),
(67,480,o),
(139,412,o),
(271,361,c),
(133,314,o),
(47,230,o),
(47,143,cs),
(47,50,o),
(156,-10,o),
(328,-10,cs),
(500,-10,o),
(620,60,o),
(620,158,cs),
(620,251,o),
(542,324,o),
(382,379,c),
(515,429,o),
(589,495,o),
(589,563,cs),
(589,648,o),
(480,710,o),
(328,710,cs)
);
},
{
closed = 1;
nodes = (
(93,235,o),
(171,310,o),
(296,351,c),
(482,294,o),
(563,232,o),
(563,147,cs),
(563,54,o),
(469,5,o),
(334,5,cs),
(186,5,o),
(93,62,o),
(93,156,cs)
);
},
{
closed = 1;
nodes = (
(121,652,o),
(201,697,o),
(331,697,cs),
(462,697,o),
(545,643,o),
(545,555,cs),
(545,488,o),
(493,443,o),
(355,389,c),
(192,448,o),
(121,504,o),
(121,578,cs)
);
}
);
width = 667;
},
{
associatedMasterId = m003;
background = {
shapes = (
{
ref = S;
}
);
};
layerId = "CBDAD65D-31B2-4E6C-8F08-41881F97AF96";
name = "23 Feb 23 at 12:36";
shapes = (
{
closed = 1;
nodes = (
(183,710,o),
(117,710,cs),
(17,710,o),
(5,586,o),
(5,547,cs),
(5,481,o),
(27,418,o),
(87,338,c),
(36,280,o),
(-11,228,o),
(-11,153,cs),
(-11,56,o),
(26,-10,o),
(117,-10,cs),
(208,-10,o),
(245,56,o),
(245,153,cs),
(245,233,o),
(217,295,o),
(148,383,c),
(191,434,o),
(229,482,o),
(229,567,cs),
(229,651,o)
);
},
{
closed = 1;
nodes = (
(23,225,o),
(63,277,o),
(98,323,c),
(113,305,ls),
(177,229,o),
(204,173,o),
(204,109,cs),
(204,14,o),
(152,5,o),
(117,5,cs),
(62,5,o),
(23,67,o),
(23,153,cs)
);
},
{
closed = 1;
nodes = (
(43,659,o),
(72,697,o),
(117,697,cs),
(166,697,o),
(201,653,o),
(201,590,cs),
(201,507,o),
(183,464,o),
(135,398,c),
(135,399,o),
(134,399,o),
(134,400,c),
(66,482,o),
(43,529,o),
(43,590,cs)
);
}
);
width = 250;
},
{
associatedMasterId = m003;
background = {
shapes = (
{
alignment = -1;
pos = (246,0);
ref = S;
scale = (-1,1);
}
);
};
layerId = "A3C82531-9DE4-452D-8183-BD8D4127EEB1";
name = "23 Feb 23 at 12:39";
shapes = (
{
alignment = -1;
ref = S;
},
{
closed = 1;
nodes = (
(80,710,o),
(61,677,o),
(47,677,cs),
(34,677,o),
(48,710,o),
(32,710,cs),
(30,710,o),
(24,710,o),
(26,695,cs),
(27,686,o),
(32,662,o),
(32,615,cs),
(32,552,o),
(23,523,o),
(23,511,cs),
(23,505,o),
(25,501,o),
(30,501,cs),
(36,501,o),
(40,506,o),
(40,526,cs),
(39,631,o),
(69,697,o),
(129,697,cs),
(174,697,o),
(203,659,o),
(203,560,cs),
(203,492,o),
(180,442,o),
(112,360,cs),
(41,272,o),
(1,191,o),
(1,133,cs),
(1,53,o),
(46,-10,o),
(117,-10,cs),
(174,-10,o),
(201,32,o),
(215,32,cs),
(229,32,o),
(215,-10,o),
(231,-10,cs),
(236,-10,o),
(240,-6,o),
(240,1,cs),
(240,11,o),
(232,28,o),
(232,80,cs),
(232,132,o),
(240,176,o),
(240,189,cs),
(240,195,o),
(238,201,o),
(232,201,cs),
(226,201,o),
(224,196,o),
(224,173,cs),
(222,70,o),
(184,5,o),
(119,5,cs),
(70,5,o),
(42,43,o),
(42,139,cs),
(42,220,o),
(65,274,o),
(133,355,cs),
(205,444,o),
(241,514,o),
(241,567,cs),
(241,647,o),
(197,710,o),
(126,710,cs)
);
}
);
width = 250;
},
{
associatedMasterId = m003;
background = {
shapes = (
{
alignment = -1;
ref = S;
},
{
closed = 1;
nodes = (
(80,710,o),
(61,677,o),
(47,677,cs),
(34,677,o),
(48,710,o),
(32,710,cs),
(30,710,o),
(24,710,o),
(26,695,cs),
(27,686,o),
(32,662,o),
(32,615,cs),
(32,552,o),
(23,523,o),
(23,511,cs),
(23,505,o),
(25,501,o),
(30,501,cs),
(36,501,o),
(40,506,o),
(40,526,cs),
(39,631,o),
(69,697,o),
(129,697,cs),
(174,697,o),
(203,659,o),
(203,560,cs),
(203,492,o),
(180,442,o),
(112,360,cs),
(41,272,o),
(1,191,o),
(1,133,cs),
(1,53,o),
(46,-10,o),
(117,-10,cs),
(174,-10,o),
(201,32,o),
(215,32,cs),
(229,32,o),
(215,-10,o),
(231,-10,cs),
(236,-10,o),
(240,-6,o),
(240,1,cs),
(240,11,o),
(232,28,o),
(232,80,cs),
(232,132,o),
(240,176,o),
(240,189,cs),
(240,195,o),
(238,201,o),
(232,201,cs),
(226,201,o),
(224,196,o),
(224,173,cs),
(222,70,o),
(184,5,o),
(119,5,cs),
(70,5,o),
(42,43,o),
(42,139,cs),
(42,220,o),
(65,274,o),
(133,355,cs),
(205,444,o),
(241,514,o),
(241,567,cs),
(241,647,o),
(197,710,o),
(126,710,cs)
);
}
);
};
layerId = "4CA00EAF-3CEE-4CE3-969E-89BDD18378C0";
name = "23 Feb 23 at 12:42";
shapes = (
{
closed = 1;
nodes = (
(18,710,o),
(5,592,o),
(5,547,cs),
(5,479,o),
(28,415,o),
(91,333,c),
(33,255,o),
(1,184,o),
(1,133,cs),
(1,39,o),
(48,-10,o),
(123,-10,cs),
(235,-10,o),
(245,105,o),
(245,153,cs),
(245,231,o),
(218,293,o),
(151,378,c),
(211,456,o),
(241,516,o),
(241,567,cs),
(241,653,o),
(192,712,o),
(123,710,cs)
);
},
{
closed = 1;
nodes = (
(42,207,o),
(58,256,o),
(103,317,c),
(179,226,o),
(204,176,o),
(204,109,cs),
(204,42,o),
(175,5,o),
(123,5,cs),
(67,5,o),
(42,46,o),
(42,139,cs)
);
},
{
closed = 1;
nodes = (
(43,653,o),
(79,697,o),
(123,697,cs),
(188,697,o),
(203,612,o),
(203,560,cs),
(203,502,o),
(186,457,o),
(139,394,c),
(67,480,o),
(43,525,o),
(43,584,cs)
);
}
);
width = 250;
},
{
associatedMasterId = m003;
background = {
shapes = (
{
closed = 1;
nodes = (
(88,710,o),
(42,647,o),
(42,547,cs),
(42,479,o),
(69,432,o),
(125,359,c),
(60,286,o),
(25,211,o),
(25,133,cs),
(25,41,o),
(73,-10,o),
(160,-10,cs),
(272,-10,o),
(282,105,o),
(282,153,cs),
(282,227,o),
(251,302,o),
(188,378,c),
(246,449,o),
(278,516,o),
(278,567,cs),
(278,653,o),
(229,712,o),
(160,710,cs)
);
},
{
closed = 1;
nodes = (
(65,223,o),
(93,296,o),
(137,343,c),
(209,257,o),
(241,185,o),
(241,109,cs),
(241,45,o),
(210,5,o),
(160,5,cs),
(102,5,o),
(65,57,o),
(65,139,cs)
);
},
{
closed = 1;
nodes = (
(80,653,o),
(116,697,o),
(160,697,cs),
(225,697,o),
(240,612,o),
(240,560,cs),
(240,502,o),
(215,441,o),
(174,393,c),
(102,479,o),
(80,525,o),
(80,584,cs)
);
}
);
};
layerId = "E31ABD01-1B58-43AA-B1EC-1241E34DCFE4";
name = "23 Feb 23 at 12:51";
shapes = (
{
closed = 1;
nodes = (
(88,710,o),
(42,647,o),
(42,552,cs),
(42,479,o),
(69,432,o),
(125,359,c),
(60,286,o),
(25,211,o),
(25,133,cs),
(25,41,o),
(73,-10,o),
(153,-10,cs),
(272,-10,o),
(282,105,o),
(282,149,cs),
(282,227,o),
(251,302,o),
(188,378,c),
(246,449,o),
(278,516,o),
(278,577,cs),
(278,653,o),
(229,710,o),
(160,710,cs)
);
},
{
closed = 1;
nodes = (
(65,223,o),
(93,296,o),
(137,343,c),
(209,257,o),
(241,185,o),
(241,114,cs),
(241,45,o),
(210,5,o),
(160,5,cs),
(102,5,o),
(65,57,o),
(65,146,cs)
);
},
{
closed = 1;
nodes = (
(80,653,o),
(116,697,o),
(162,697,cs),
(225,697,o),
(240,612,o),
(240,564,cs),
(240,502,o),
(215,441,o),
(174,393,c),
(102,479,o),
(80,525,o),
(80,581,cs)
);
}
);
width = 307;
}
);
metricLeft = "=O+20";
metricRight = "=O+20";
unicode = 56;
}
{
glyphname = equal;
layers = (
{
background = {
shapes = (
{
ref = n;
}
);
};
layerId = m003;
shapes = (
{
closed = 1;
nodes = (
(103,431,o),
(327,431,o),
(391,429,cs),
(398,429,o),
(401,433,o),
(402,441,cs),
(403,452,o),
(401,457,o),
(393,457,cs),
(332,455,o),
(108,455,o),
(44,457,cs),
(36,457,o),
(30,449,o),
(30,437,cs),
(30,432,o),
(33,429,o),
(39,429,cs)
);
},
{
closed = 1;
nodes = (
(103,241,o),
(327,241,o),
(391,239,cs),
(398,239,o),
(401,243,o),
(402,251,cs),
(403,262,o),
(401,267,o),
(393,267,cs),
(332,265,o),
(108,265,o),
(44,267,cs),
(36,267,o),
(30,259,o),
(30,247,cs),
(30,242,o),
(33,239,o),
(39,239,cs)
);
}
);
width = 432;
},
{
layerId = m002;
shapes = (
{
closed = 1;
nodes = (
(103,431,o),
(327,431,o),
(391,429,cs),
(401,429,o),
(404,434,o),
(405,441,cs),
(406,452,o),
(404,457,o),
(393,457,cs),
(332,455,o),
(108,455,o),
(44,457,cs),
(33,457,o),
(27,449,o),
(27,437,cs),
(27,433,o),
(31,429,o),
(39,429,cs)
);
},
{
closed = 1;
nodes = (
(103,241,o),
(327,241,o),
(391,239,cs),
(401,239,o),
(404,244,o),
(405,251,cs),
(406,262,o),
(404,267,o),
(393,267,cs),
(332,265,o),
(108,265,o),
(44,267,cs),
(33,267,o),
(27,259,o),
(27,247,cs),
(27,243,o),
(31,239,o),
(39,239,cs)
);
}
);
width = 432;
}
);
unicode = 61;
}
{
glyphname = greater;
layers = (
{
layerId = m003;
shapes = (
{
closed = 1;
nodes = (
(79,458,o),
(223,359,o),
(299,308,cs),
(309,301,o),
(309,297,o),
(302,292,cs),
(227,241,o),
(80,141,o),
(34,110,cs),
(30,107,o),
(29,103,o),
(32,99,cs),
(38,89,o),
(48,85,o),
(54,90,cs),
(103,127,o),
(270,246,o),
(331,284,cs),
(339,289,o),
(344,294,o),
(344,299,cs),
(344,304,o),
(339,309,o),
(331,314,cs),
(270,352,o),
(103,471,o),
(54,508,cs),
(48,513,o),
(38,509,o),
(31,500,c),
(29,495,o),
(30,491,o),
(34,488,cs)
);
}
);
width = 374;
},
{
layerId = m002;
shapes = (
{
closed = 1;
nodes = (
(76,459,o),
(220,360,o),
(297,308,cs),
(306,302,o),
(306,296,o),
(300,292,cs),
(224,240,o),
(77,140,o),
(32,110,cs),
(26,106,o),
(26,104,o),
(30,99,cs),
(36,89,o),
(50,85,o),
(56,90,cs),
(106,128,o),
(273,247,o),
(333,284,cs),
(342,290,o),
(347,295,o),
(347,299,cs),
(347,303,o),
(342,308,o),
(333,314,cs),
(273,351,o),
(106,470,o),
(56,508,cs),
(50,513,o),
(36,509,o),
(28,500,c),
(26,494,o),
(27,492,o),
(32,488,cs)
);
}
);
width = 374;
}
);
unicode = 62;
}
{
glyphname = question;
kernLeft = question;
layers = (
{
layerId = m002;
shapes = (
{
closed = 1;
nodes = (
(421,469,o),
(236,392,o),
(216,247,cs),
(213,226,o),
(212,215,o),
(226,215,cs),
(240,215,o),
(236,225,o),
(238,244,cs),
(258,402,o),
(489,466,o),
(489,589,cs),
(489,659,o),
(402,710,o),
(277,710,cs),
(130,710,o),
(27,640,o),
(27,543,cs),
(27,517,o),
(44,508,o),
(61,508,cs),
(86,508,o),
(97,524,o),
(97,552,cs),
(97,642,o),
(162,697,o),
(264,697,cs),
(360,697,o),
(421,659,o),
(421,595,cs)
);
},
{
pos = (168,0);
ref = period;
}
);
width = 516;
},
{
associatedMasterId = m003;
background = {
shapes = (
{
pos = (-38,0);
ref = two;
}
);
};
layerId = "E21415D7-46D6-481A-AD23-598DCF86F9DA";
name = "23 Feb 23 at 17:52";
shapes = (
{
closed = 1;
nodes = (
(188,507,o),
(109,385,o),
(109,234,cs),
(109,227,o),
(107,215,o),
(117,215,cs),
(127,215,o),
(125,226,o),
(125,234,cs),
(125,385,o),
(248,502,o),
(248,594,cs),
(248,661,o),
(204,710,o),
(134,710,cs),
(99,710,o),
(63,677,o),
(49,677,c),
(35,667,l),
(35,521,l),
(42,526,l),
(42,636,o),
(71,697,o),
(122,697,cs),
(166,697,o),
(188,660,o),
(188,595,cs)
);
},
{
pos = (54,0);
ref = period;
},
{
pos = (-9,0);
ref = _tip;
}
);
width = 273;
},
{
associatedMasterId = m003;
background = {
shapes = (
{
pos = (-21,200);
ref = a;
}
);
};
layerId = "EBA00AD5-991B-4524-8050-6F7004703E45";
name = "23 Feb 23 at 17:56";
shapes = (
{
closed = 1;
nodes = (
(203,470,o),
(118,393,o),
(118,234,cs),
(118,227,o),
(116,215,o),
(126,215,cs),
(136,215,o),
(134,226,o),
(134,234,cs),
(134,401,o),
(263,465,o),
(263,594,cs),
(263,661,o),
(219,710,o),
(149,710,cs),
(68,710,o),
(25,639,o),
(25,566,cs),
(25,546,o),
(37,533,o),
(55,533,cs),
(75,533,o),
(88,551,o),
(88,590,cs),
(88,658,o),
(103,697,o),
(144,697,cs),
(188,697,o),
(203,660,o),
(203,595,cs)
);
},
{
pos = (62,0);
ref = period;
}
);
width = 288;
},
{
background = {
shapes = (
{
closed = 1;
nodes = (
(226,470,o),
(119,393,o),
(119,234,cs),
(119,227,o),
(117,215,o),
(127,215,cs),
(137,215,o),
(135,226,o),
(135,234,cs),
(135,401,o),
(286,465,o),
(286,584,cs),
(286,662,o),
(233,710,o),
(161,710,cs),
(88,710,o),
(33,646,o),
(33,571,cs),
(33,557,o),
(42,548,o),
(56,548,cs),
(77,548,o),
(87,563,o),
(87,590,cs),
(87,661,o),
(109,697,o),
(156,697,cs),
(198,697,o),
(226,659,o),
(226,592,cs)
);
}
);
};
layerId = m003;
name = "Regular Condensed";
shapes = (
{
closed = 1;
nodes = (
(224,470,o),
(139,393,o),
(119,247,cs),
(116,227,o),
(116,215,o),
(126,215,cs),
(136,215,o),
(133,226,o),
(135,244,cs),
(155,401,o),
(286,465,o),
(286,589,cs),
(286,662,o),
(233,710,o),
(166,710,cs),
(88,710,o),
(30,646,o),
(30,583,cs),
(30,557,o),
(42,548,o),
(57,548,cs),
(79,548,o),
(87,563,o),
(87,602,cs),
(87,661,o),
(109,697,o),
(153,697,cs),
(197,697,o),
(224,658,o),
(224,595,cs)
);
},
{
pos = (68,0);
ref = period;
}
);
width = 316;
},
{
associatedMasterId = m003;
background = {
shapes = (
{
pos = (-18,0);
ref = two;
}
);
};
layerId = "2BD0ED07-E6F6-41B5-9E8A-947251485372";
name = "23 Feb 23 at 18:00";
shapes = (
{
closed = 1;
nodes = (
(188,470,o),
(110,393,o),
(110,234,cs),
(110,227,o),
(108,215,o),
(118,215,cs),
(128,215,o),
(126,226,o),
(126,234,cs),
(126,401,o),
(248,465,o),
(248,594,cs),
(248,661,o),
(204,710,o),
(134,710,cs),
(83,710,o),
(63,677,o),
(49,677,c),
(35,667,l),
(35,521,l),
(42,526,l),
(42,636,o),
(71,697,o),
(122,697,cs),
(166,697,o),
(188,660,o),
(188,595,cs)
);
},
{
pos = (54,0);
ref = period;
},
{
pos = (-9,0);
ref = _tip;
}
);
width = 273;
},
{
associatedMasterId = m003;
background = {
shapes = (
{
pos = (28,0);
ref = three;
}
);
};
layerId = "26DC974A-06F1-40DE-A3B1-88F2D0C5400E";
name = "23 Feb 23 at 18:07";
shapes = (
{
closed = 1;
nodes = (
(243,470,o),
(136,393,o),
(136,234,cs),
(136,227,o),
(134,215,o),
(144,215,cs),
(154,215,o),
(152,226,o),
(152,234,cs),
(152,401,o),
(303,465,o),
(303,584,cs),
(303,662,o),
(250,710,o),
(174,710,cs),
(91,710,o),
(25,634,o),
(25,547,cs),
(25,516,o),
(37,496,o),
(59,496,cs),
(72,496,o),
(83,506,o),
(83,523,cs),
(83,540,o),
(78,548,o),
(78,574,cs),
(78,650,o),
(113,697,o),
(166,697,cs),
(214,697,o),
(243,657,o),
(243,592,cs)
);
},
{
pos = (89,0);
ref = period;
}
);
width = 328;
}
);
metricLeft = O;
metricRight = O;
unicode = 63;
}
{
glyphname = at;
layers = (
{
background = {
anchors = (
{
name = bottom;
pos = (314,-100);
},
{
name = center;
pos = (314,250);
},
{
name = ogonek;
pos = (612,-90);
},
{
name = top;
pos = (308,600);
},
{
name = topleft;
pos = (-39,600);
},
{
name = topright;
pos = (666,600);
}
);
shapes = (
{
pos = (109,0);
ref = d;
}
);
};
layerId = m003;
shapes = (
{
closed = 1;
nodes = (
(373,-200,o),
(431,-162,o),
(476,-99,cs),
(492,-78,o),
(494,-68,o),
(486,-66,cs),
(479,-64,o),
(472,-72,o),
(462,-89,cs),
(420,-147,o),
(366,-182,o),
(305,-182,cs),
(158,-182,o),
(55,-12,o),
(46,243,cs),
(37,496,o),
(145,695,o),
(292,695,cs),
(439,695,o),
(542,528,o),
(551,276,cs),
(557,120,o),
(524,16,o),
(468,16,cs),
(437,16,o),
(426,39,o),
(422,116,cs),
(420,148,o),
(419,188,o),
(419,240,cs),
(419,371,ls),
(419,451,o),
(421,476,o),
(425,495,cs),
(427,504,o),
(425,510,o),
(419,510,cs),
(414,510,o),
(412,507,o),
(409,501,cs),
(404,491,o),
(396,460,o),
(376,460,cs),
(349,460,o),
(337,510,o),
(285,510,cs),
(280,510,ls),
(203,507,o),
(142,392,o),
(142,236,cs),
(142,88,o),
(192,-10,o),
(267,-10,cs),
(304,-10,o),
(335,13,o),
(355,55,cs),
(361,69,o),
(363,71,o),
(367,71,cs),
(372,71,o),
(374,64,o),
(376,55,cs),
(384,13,o),
(413,-10,o),
(456,-10,cs),
(531,-10,o),
(575,104,o),
(567,276,cs),
(558,533,o),
(439,710,o),
(292,710,cs),
(133,710,o),
(22,504,o),
(30,243,cs),
(35,-18,o),
(154,-200,o),
(305,-200,cs)
);
},
{
closed = 1;
nodes = (
(231,26,o),
(201,101,o),
(201,265,cs),
(201,420,o),
(235,498,o),
(283,498,cs),
(341,498,o),
(367,415,o),
(367,253,cs),
(367,232,ls),
(367,96,o),
(336,26,o),
(284,26,cs)
);
}
);
width = 598;
},
{
associatedMasterId = m002;
background = {
shapes = (
{
closed = 1;
nodes = (
(546,-10,o),
(630,31,o),
(678,105,cs),
(687,118,o),
(690,121,o),
(694,121,cs),
(699,121,o),
(699,113,o),
(699,104,cs),
(699,75,o),
(687,0,o),
(725,0,cs),
(803,6,o),
(909,2,o),
(909,73,c),
(909,78,o),
(871,82,o),
(864,82,c),
(858,69,o),
(818,16,o),
(811,16,cs),
(763,16,o),
(749,24,o),
(748,113,c),
(747,156,o),
(747,200,o),
(746,255,cs),
(746,371,ls),
(746,451,o),
(748,476,o),
(751,490,cs),
(754,504,o),
(752,510,o),
(746,510,cs),
(741,510,o),
(739,507,o),
(737,504,cs),
(731,491,o),
(721,450,o),
(688,450,cs),
(646,450,o),
(589,510,o),
(459,510,cs),
(458,510,o),
(456,510,o),
(448,510,cs),
(284,508,o),
(169,396,o),
(169,236,cs),
(169,92,o),
(283,-10,o),
(444,-10,cs)
);
},
{
closed = 1;
nodes = (
(317,26,o),
(228,118,o),
(228,265,cs),
(228,414,o),
(308,498,o),
(450,498,cs),
(607,498,o),
(694,420,o),
(694,252,cs),
(694,242,ls),
(694,112,o),
(600,26,o),
(458,26,cs)
);
},
{
closed = 1;
nodes = (
(909,73,l),
(935,134,o),
(949,202,o),
(947,275,cs),
(941,529,o),
(750,709,o),
(484,709,cs),
(225,709,o),
(25,504,o),
(30,242,cs),
(34,-17,o),
(225,-199,o),
(493,-199,cs),
(616,-199,o),
(725,-153,o),
(805,-76,c),
(785,-66,l),
(719,-139,o),
(624,-180,o),
(509,-180,cs),
(270,-180,o),
(102,7,o),
(96,295,cs),
(90,527,o),
(253,693,o),
(468,693,cs),
(707,693,o),
(875,504,o),
(881,227,cs),
(882,174,o),
(876,126,o),
(864,82,c)
);
}
);
};
layerId = "DE382825-277D-45FD-A1E2-2F04816DE8D9";
name = "19 Jun 23 at 18:45";
width = 884;
},
{
background = {
shapes = (
{
pos = (160,0);
ref = d;
}
);
};
layerId = m002;
name = "Regular Wide";
shapes = (
{
closed = 1;
nodes = (
(638,-199,o),
(731,-167,o),
(821,-106,cs),
(844,-89,o),
(845,-82,o),
(834,-79,cs),
(825,-76,o),
(815,-84,o),
(801,-95,cs),
(734,-148,o),
(639,-180,o),
(519,-180,cs),
(263,-180,o),
(56,-12,o),
(50,245,cs),
(44,499,o),
(244,694,o),
(499,694,cs),
(775,694,o),
(958,517,o),
(958,247,cs),
(958,65,o),
(892,16,o),
(849,16,cs),
(804,16,o),
(782,46,o),
(781,113,cs),
(780,156,o),
(780,200,o),
(779,255,cs),
(779,371,ls),
(779,451,o),
(781,476,o),
(784,490,cs),
(787,506,o),
(784,510,o),
(776,510,cs),
(770,510,o),
(767,508,o),
(764,504,c),
(758,490,o),
(748,450,o),
(718,450,cs),
(679,450,o),
(615,510,o),
(504,510,cs),
(493,510,ls),
(327,508,o),
(196,405,o),
(196,246,cs),
(196,103,o),
(311,-10,o),
(474,-10,cs),
(577,-10,o),
(663,32,o),
(710,105,cs),
(720,119,o),
(721,121,o),
(723,121,cs),
(724,121,o),
(725,113,o),
(726,104,cs),
(732,32,o),
(764,-10,o),
(842,-10,cs),
(934,-10,o),
(985,92,o),
(981,255,cs),
(973,529,o),
(784,709,o),
(499,709,cs),
(229,709,o),
(22,503,o),
(27,242,cs),
(31,-22,o),
(247,-199,o),
(523,-199,cs)
);
},
{
closed = 1;
nodes = (
(349,26,o),
(261,127,o),
(261,275,cs),
(261,425,o),
(355,498,o),
(495,498,cs),
(640,498,o),
(721,400,o),
(721,252,cs),
(721,242,ls),
(721,111,o),
(628,26,o),
(488,26,cs)
);
}
);
width = 1008;
}
);
metricLeft = O;
metricRight = O;
unicode = 64;
}
{
glyphname = B;
kernLeft = H;
kernRight = B;
layers = (
{
associatedMasterId = m003;
layerId = "B826CCEB-93D1-4672-AA88-F03DC20D1A32";
width = 600;
},
{
associatedMasterId = m003;
layerId = "E785B07C-7638-40DD-A08B-5080B4C14061";
width = 600;
},
{
associatedMasterId = m003;
background = {
shapes = (
{
pos = (7,0);
ref = H;
}
);
};
hints = (
{
name = _corner.LeftSerifL;
options = 2;
origin = (1,1);
type = Corner;
},
{
name = _corner.LeftSerifL;
origin = (1,2);
scale = (-1,1);
type = Corner;
},
{
name = _segment.curve.capheight.inner;
origin = (1,0);
type = Segment;
},
{
name = _segment.curve.capheight.outer;
origin = (1,2);
type = Segment;
}
);
layerId = "09EE2424-CF7C-44EB-A9F2-DCC7CF227CD0";
name = "18 Dec 22 at 01:56";
shapes = (
{
closed = 1;
nodes = (
(84,684,l),
(129,680,l),
(129,684,o),
(131,686,o),
(136,686,cs),
(202,688,o),
(243,602,o),
(243,464,cs),
(243,339,o),
(207,256,o),
(145,239,cs),
(135,236,o),
(132,239,o),
(132,247,c),
(118,244,l),
(118,214,l),
(132,207,l),
(132,217,o),
(134,220,o),
(145,220,cs),
(219,222,o),
(260,168,o),
(260,110,cs),
(260,52,o),
(221,16,o),
(151,16,cs),
(136,16,o),
(137,29,o),
(136,46,c),
(101,46,l),
(101,0,l),
(112,0,o),
(122,-1,o),
(133,-1,cs),
(259,-1,o),
(322,39,o),
(322,113,cs),
(322,176,o),
(270,228,o),
(177,232,cs),
(174,232,o),
(173,233,o),
(173,235,cs),
(173,236,o),
(174,237,o),
(177,238,cs),
(257,264,o),
(301,346,o),
(301,467,cs),
(301,600,o),
(237,706,o),
(133,701,cs,{
GSSegment = {
name = _segment.curve.capheight.inner;
};
}),
(115,700,o),
(99,699,o),
(87,699,cs),
(86,699,o),
(85,699,o),
(84,699,c)
);
},
{
closed = 1;
nodes = (
(130,699,l,{
GSSegment = {
name = _segment.curve.capheight.inner;
};
}),
(66,700,l),
(73,0,l,{
GSSegment = {
name = _segment.curve.capheight.outer;
};
}),
(137,0,l)
);
}
);
width = 352;
},
{
anchors = (
{
name = bottom;
pos = (171,0);
},
{
name = center;
pos = (171,350);
},
{
name = top;
pos = (171,700);
}
);
background = {
shapes = (
{
ref = H;
}
);
};
hints = (
{
name = _segment.curve.capheight.inner;
origin = (1,0);
type = Segment;
},
{
name = _corner.LeftSerifL;
options = 2;
origin = (1,1);
type = Corner;
},
{
name = _corner.LeftSerifL;
origin = (1,2);
scale = (1,-1);
type = Corner;
},
{
name = _segment.curve.capheight.outer;
origin = (1,2);
type = Segment;
}
);
layerId = m003;
name = Regular;
shapes = (
{
closed = 1;
nodes = (
(89,682,l),
(134,682,l),
(134,686,o),
(136,688,o),
(141,688,cs),
(211,690,o),
(250,610,o),
(250,464,cs),
(250,341,o),
(211,255,o),
(149,242,cs),
(139,240,o),
(136,243,o),
(136,251,c),
(122,248,l),
(122,214,l),
(136,208,l),
(136,218,o),
(138,221,o),
(149,221,cs),
(223,222,o),
(269,180,o),
(269,112,cs),
(269,50,o),
(229,14,o),
(156,14,cs),
(141,14,o),
(142,27,o),
(141,44,c),
(108,46,l),
(108,0,l),
(119,0,o),
(129,-1,o),
(140,-1,cs),
(273,-1,o),
(331,34,o),
(331,114,cs),
(331,184,o),
(273,230,o),
(181,234,cs),
(178,234,o),
(177,235,o),
(177,237,cs),
(177,238,o),
(178,239,o),
(181,240,cs),
(258,262,o),
(307,351,o),
(307,469,cs),
(307,602,o),
(244,707,o),
(138,701,cs,{
GSSegment = {
name = _segment.curve.capheight.inner;
};
}),
(120,700,o),
(104,700,o),
(92,700,cs),
(91,700,o),
(90,700,o),
(89,700,c)
);
},
{
closed = 1;
nodes = (
(135,700,l,{
GSSegment = {
name = _segment.curve.capheight.inner;
};
}),
(71,700,l),
(80,0,l,{
GSSegment = {
name = _segment.curve.capheight.outer;
};
}),
(144,0,l)
);
}
);
width = 361;
},
{
associatedMasterId = m002;
layerId = "5BA743CA-6ADB-4E56-B30A-FCC5E83C2C40";
width = 600;
},
{
associatedMasterId = m002;
layerId = "C552D642-FAEE-43DE-8524-B663458A3DD6";
width = 600;
},
{
associatedMasterId = m002;
background = {
shapes = (
{
pos = (7,0);
ref = H;
}
);
};
hints = (
{
name = _corner.LeftSerifL;
options = 2;
origin = (1,1);
type = Corner;
},
{
name = _corner.LeftSerifL;
origin = (1,2);
scale = (-1,1);
type = Corner;
},
{
name = _segment.curve.capheight.inner;
origin = (1,0);
type = Segment;
},
{
name = _segment.curve.capheight.outer;
origin = (1,2);
type = Segment;
}
);
layerId = "A983F71B-21EC-42E0-8490-7EC86D09C674";
name = "18 Dec 22 at 01:56";
shapes = (
{
closed = 1;
nodes = (
(84,684,l),
(129,680,l),
(129,684,o),
(131,686,o),
(136,686,cs),
(202,688,o),
(243,602,o),
(243,464,cs),
(243,339,o),
(207,256,o),
(145,239,cs),
(135,236,o),
(132,239,o),
(132,247,c),
(118,244,l),
(118,214,l),
(132,207,l),
(132,217,o),
(134,220,o),
(145,220,cs),
(219,222,o),
(260,168,o),
(260,110,cs),
(260,52,o),
(221,16,o),
(151,16,cs),
(136,16,o),
(137,29,o),
(136,46,c),
(101,46,l),
(101,0,l),
(112,0,o),
(122,-1,o),
(133,-1,cs),
(259,-1,o),
(322,39,o),
(322,113,cs),
(322,176,o),
(270,228,o),
(177,232,cs),
(174,232,o),
(173,233,o),
(173,235,cs),
(173,236,o),
(174,237,o),
(177,238,cs),
(257,264,o),
(301,346,o),
(301,467,cs),
(301,600,o),
(237,706,o),
(133,701,cs,{
GSSegment = {
name = _segment.curve.capheight.inner;
};
}),
(115,700,o),
(99,699,o),
(87,699,cs),
(86,699,o),
(85,699,o),
(84,699,c)
);
},
{
closed = 1;
nodes = (
(130,699,l,{
GSSegment = {
name = _segment.curve.capheight.inner;
};
}),
(66,700,l),
(73,0,l,{
GSSegment = {
name = _segment.curve.capheight.outer;
};
}),
(137,0,l)
);
}
);
width = 352;
},
{
anchors = (
{
name = bottom;
pos = (346,0);
},
{
name = center;
pos = (346,350);
},
{
name = top;
pos = (346,700);
}
);
hints = (
{
name = _segment.curve.capheight.inner;
origin = (1,0);
type = Segment;
},
{
name = _corner.LeftSerifL;
options = 2;
origin = (1,1);
type = Corner;
},
{
name = _corner.LeftSerifL;
origin = (1,2);
scale = (1,-1);
type = Corner;
},
{
name = _segment.curve.capheight.outer;
origin = (1,2);
type = Segment;
}
);
layerId = m002;
name = Regular;
shapes = (
{
closed = 1;
nodes = (
(146,642,l),
(205,642,l),
(205,677,o),
(210,687,o),
(324,687,cs),
(505,687,o),
(606,608,o),
(606,464,cs),
(606,323,o),
(512,245,o),
(344,245,cs),
(221,245,o),
(203,245,o),
(203,286,c),
(179,286,l),
(179,176,l),
(203,176,l),
(203,223,o),
(212,224,o),
(344,225,cs),
(551,227,o),
(666,188,o),
(666,112,cs),
(666,43,o),
(563,14,o),
(324,14,cs),
(214,14,o),
(204,28,o),
(204,75,c),
(165,75,l),
(165,0,l),
(179,0,o),
(173,0,o),
(372,0,cs),
(640,0,o),
(744,33,o),
(744,114,cs),
(744,188,o),
(631,236,o),
(453,236,cs),
(450,236,o),
(450,237,o),
(450,240,cs),
(450,243,o),
(450,244,o),
(454,245,cs),
(579,270,o),
(678,355,o),
(678,464,cs),
(678,608,o),
(548,700,o),
(372,700,cs),
(311,700,o),
(164,700,o),
(152,700,cs),
(150,700,o),
(148,700,o),
(146,700,c)
);
},
{
closed = 1;
nodes = (
(207,700,l),
(138,700,l),
(138,0,l),
(207,0,l)
);
}
);
width = 771;
},
{
associatedMasterId = m003;
layerId = "B2DA110A-38A4-419B-853E-D7226147048C";
width = 600;
},
{
associatedMasterId = m002;
background = {
shapes = (
{
pos = (9,0);
ref = R;
}
);
};
hints = (
{
name = _segment.curve.capheight.inner;
origin = (1,0);
type = Segment;
},
{
name = _corner.LeftSerifL;
options = 2;
origin = (1,1);
type = Corner;
},
{
name = _corner.LeftSerifL;
origin = (1,2);
scale = (1,-1);
type = Corner;
},
{
name = _segment.curve.capheight.outer;
origin = (1,2);
type = Segment;
}
);
layerId = "3B805220-83F3-487F-A288-05686295AE4D";
name = "21 Feb 23 at 14:51";
shapes = (
{
closed = 1;
nodes = (
(129,642,l),
(182,642,l),
(182,676,o),
(188,687,o),
(224,687,cs),
(456,687,o),
(530,614,o),
(530,464,cs),
(530,344,o),
(417,260,o),
(189,242,cs),
(179,241,o),
(176,243,o),
(176,251,c),
(162,248,l),
(162,214,l),
(176,208,l),
(176,218,o),
(178,221,o),
(189,221,cs),
(426,224,o),
(549,185,o),
(549,112,cs),
(549,39,o),
(468,14,o),
(196,14,cs),
(181,14,o),
(182,27,o),
(181,44,c),
(148,46,l),
(148,0,l),
(159,0,o),
(169,-1,o),
(180,-1,cs),
(511,-1,o),
(621,28,o),
(621,114,cs),
(621,196,o),
(445,249,o),
(271,234,cs),
(268,234,o),
(267,235,o),
(267,237,cs),
(267,238,o),
(268,240,o),
(271,240,cs),
(489,270,o),
(597,346,o),
(597,469,cs),
(597,627,o),
(439,700,o),
(272,700,cs,{
GSSegment = {
name = _segment.curve.capheight.inner;
};
}),
(211,700,o),
(144,700,o),
(132,700,cs),
(131,700,o),
(130,700,o),
(129,700,c)
);
},
{
closed = 1;
nodes = (
(184,700,l,{
GSSegment = {
name = _segment.curve.capheight.inner;
};
}),
(121,700,l),
(121,0,l,{
GSSegment = {
name = _segment.curve.capheight.outer;
};
}),
(184,0,l)
);
}
);
width = 621;
},
{
anchors = (
{
name = bottom;
pos = (346,0);
},
{
name = center;
pos = (346,350);
},
{
name = top;
pos = (346,700);
}
);
associatedMasterId = m002;
background = {
shapes = (
{
ref = D;
}
);
};
hints = (
{
name = _segment.curve.capheight.inner;
origin = (1,0);
type = Segment;
},
{
name = _corner.LeftSerifL;
options = 2;
origin = (1,1);
type = Corner;
},
{
name = _corner.LeftSerifL;
origin = (1,2);
scale = (1,-1);
type = Corner;
},
{
name = _segment.curve.capheight.outer;
origin = (1,2);
type = Segment;
}
);
layerId = "6D7AA096-6AEB-4D0A-AB69-D23FD54C97F9";
name = "24 Feb 23 at 02:47";
shapes = (
{
closed = 1;
nodes = (
(149,642,l),
(202,642,l),
(202,676,o),
(208,687,o),
(264,687,cs),
(434,687,o),
(529,607,o),
(529,464,cs),
(529,324,o),
(441,245,o),
(284,245,cs),
(221,245,o),
(200,245,o),
(200,286,c),
(182,286,l),
(182,176,l),
(200,176,l),
(200,223,o),
(212,224,o),
(284,225,cs),
(480,227,o),
(589,187,o),
(589,112,cs),
(589,39,o),
(508,14,o),
(264,14,cs),
(212,14,o),
(201,29,o),
(201,75,c),
(168,75,l),
(168,0,l),
(179,0,o),
(189,0,o),
(312,0,cs),
(564,0,o),
(661,32,o),
(661,114,cs),
(661,189,o),
(558,236,o),
(393,236,cs),
(388,236,o),
(387,238,o),
(387,240,cs),
(387,242,o),
(388,244,o),
(393,245,cs),
(517,270,o),
(595,354,o),
(595,464,cs),
(595,609,o),
(486,700,o),
(312,700,cs,{
GSSegment = {
name = _segment.curve.capheight.inner;
};
}),
(251,700,o),
(164,700,o),
(152,700,cs),
(151,700,o),
(150,700,o),
(149,700,c)
);
},
{
closed = 1;
nodes = (
(204,700,l,{
GSSegment = {
name = _segment.curve.capheight.inner;
};
}),
(141,700,l),
(141,0,l,{
GSSegment = {
name = _segment.curve.capheight.outer;
};
}),
(204,0,l)
);
}
);
width = 671;
}
);
metricLeft = H;
metricRight = "=O";
unicode = 66;
}
{
glyphname = C;
kernLeft = O;
kernRight = E;
layers = (
{
associatedMasterId = m003;
layerId = "B826CCEB-93D1-4672-AA88-F03DC20D1A32";
width = 600;
},
{
associatedMasterId = m003;
layerId = "E785B07C-7638-40DD-A08B-5080B4C14061";
width = 600;
},
{
associatedMasterId = m003;
background = {
shapes = (
{
pos = (2,0);
ref = O;
}
);
};
layerId = "961B0528-41B1-4C8F-8C3A-39DB7393DAF8";
name = "17 Dec 22 at 18:46";
shapes = (
{
closed = 1;
nodes = (
(244,176,o),
(240,184,o),
(233,184,cs),
(226,184,o),
(220,171,o),
(219,153,cs),
(211,45,o),
(193,4,o),
(157,4,cs),
(109,4,o),
(78,153,o),
(73,343,cs),
(68,568,o),
(90,697,o),
(144,697,cs),
(173,697,o),
(191,672,o),
(206,607,cs),
(213,576,o),
(219,539,o),
(219,511,cs),
(219,505,o),
(222,500,o),
(227,500,cs),
(232,500,o),
(234,504,o),
(234,510,cs),
(234,516,o),
(232,521,o),
(231,528,cs),
(228,546,o),
(226,575,o),
(226,620,cs),
(226,661,o),
(231,685,o),
(233,700,cs),
(234,709,o),
(228,711,o),
(226,711,cs),
(218,711,o),
(218,703,o),
(218,700,cs),
(219,687,o),
(216,680,o),
(209,680,cs),
(201,680,o),
(194,687,o),
(189,691,cs),
(175,703,o),
(160,709,o),
(144,709,cs),
(67,709,o),
(9,534,o),
(12,340,cs),
(16,126,o),
(71,-9,o),
(155,-9,cs),
(168,-9,o),
(183,-3,o),
(193,4,cs),
(200,9,o),
(204,12,o),
(207,12,cs),
(211,12,o),
(213,9,o),
(212,4,cs),
(211,-5,o),
(214,-9,o),
(221,-9,cs),
(227,-9,o),
(229,-4,o),
(228,7,cs),
(226,32,o),
(225,54,o),
(225,61,cs),
(225,83,o),
(225,112,o),
(230,132,cs),
(233,144,o),
(244,146,o),
(244,162,cs)
);
}
);
width = 600;
},
{
associatedMasterId = m003;
layerId = "B30B8688-694F-4F9C-BCA3-F554F55BF964";
name = "17 Dec 22 at 19:04";
shapes = (
{
closed = 1;
nodes = (
(246,176,o),
(242,184,o),
(235,184,cs),
(228,184,o),
(222,171,o),
(221,153,cs),
(215,66,o),
(197,11,o),
(167,11,cs),
(115,11,o),
(78,149,o),
(73,343,cs),
(68,568,o),
(90,697,o),
(144,697,cs),
(173,697,o),
(191,672,o),
(206,607,cs),
(213,576,o),
(219,539,o),
(219,511,cs),
(219,505,o),
(222,500,o),
(227,500,cs),
(232,500,o),
(234,504,o),
(234,510,cs),
(234,516,o),
(232,521,o),
(231,528,cs),
(228,546,o),
(226,575,o),
(226,620,cs),
(226,661,o),
(231,685,o),
(233,700,cs),
(234,709,o),
(228,711,o),
(226,711,cs),
(218,711,o),
(218,703,o),
(218,700,cs),
(219,687,o),
(216,680,o),
(209,680,cs),
(201,680,o),
(194,687,o),
(189,691,cs),
(175,703,o),
(160,709,o),
(144,709,cs),
(67,709,o),
(8,534,o),
(12,316,cs),
(15,134,o),
(75,-9,o),
(152,-9,cs),
(185,-9,o),
(201,17,o),
(210,17,cs),
(214,17,o),
(216,12,o),
(214,4,cs),
(213,-5,o),
(216,-9,o),
(223,-9,cs),
(229,-9,o),
(231,-4,o),
(230,7,cs),
(228,32,o),
(233,94,o),
(233,101,cs),
(233,123,o),
(246,146,o),
(246,162,cs)
);
}
);
width = 600;
},
{
anchors = (
{
name = bottom;
pos = (146,0);
},
{
name = top;
pos = (184,700);
}
);
background = {
shapes = (
{
closed = 1;
nodes = (
(278,524,o),
(271,568,o),
(271,620,cs),
(271,672,o),
(278,689,o),
(278,699,cs),
(278,706,o),
(275,710,o),
(270,710,cs),
(254,710,o),
(269,677,o),
(258,677,cs),
(248,677,o),
(226,710,o),
(186,710,cs),
(104,710,o),
(39,567,o),
(36,362,cs),
(32,154,o),
(94,-8,o),
(180,-8,cs),
(209,-8,o),
(225,8,o),
(239,8,cs),
(254,8,o),
(254,-9,o),
(264,-9,cs),
(268,-9,o),
(273,-7,o),
(271,8,cs),
(270,16,o),
(264,40,o),
(264,91,cs),
(264,151,o),
(272,180,o),
(272,190,cs),
(272,197,o),
(269,201,o),
(264,201,cs),
(255,201,o),
(256,190,o),
(256,168,cs),
(256,72,o),
(226,5,o),
(184,5,cs),
(132,5,o),
(97,122,o),
(102,338,cs),
(107,552,o),
(147,690,o),
(201,690,cs),
(245,690,o),
(262,600,o),
(262,529,cs),
(262,508,o),
(262,499,o),
(270,499,cs),
(276,499,o),
(278,505,o),
(278,512,cs)
);
}
);
};
layerId = m003;
name = Regular;
shapes = (
{
closed = 1;
nodes = (
(272,196,o),
(270,202,o),
(264,202,cs),
(256,202,o),
(256,193,o),
(256,172,cs),
(256,76,o),
(228,8,o),
(185,8,cs),
(133,8,o),
(101,135,o),
(96,363,cs),
(91,579,o),
(126,697,o),
(178,697,cs),
(220,697,o),
(250,629,o),
(250,533,cs),
(250,511,o),
(249,500,o),
(258,500,cs),
(263,500,o),
(266,504,o),
(266,511,cs),
(266,521,o),
(258,550,o),
(258,610,cs),
(258,661,o),
(264,685,o),
(265,693,cs),
(267,708,o),
(262,710,o),
(258,710,cs),
(248,710,o),
(248,693,o),
(233,693,cs),
(219,693,o),
(203,710,o),
(174,710,cs),
(88,710,o),
(26,547,o),
(30,339,cs),
(33,134,o),
(98,-9,o),
(180,-9,cs),
(209,-9,o),
(225,8,o),
(239,8,cs),
(254,8,o),
(254,-9,o),
(264,-9,cs),
(269,-9,o),
(272,-5,o),
(272,2,cs),
(272,12,o),
(265,29,o),
(265,81,cs),
(265,133,o),
(272,177,o),
(272,189,cs)
);
}
);
width = 292;
},
{
associatedMasterId = m003;
background = {
shapes = (
{
ref = O;
}
);
};
layerId = "AAB23EC7-9BC4-4F3F-A64C-15B83FA354C5";
name = "17 Dec 22 at 19:17";
shapes = (
{
closed = 1;
nodes = (
(264,176,o),
(260,184,o),
(253,184,cs),
(246,184,o),
(240,171,o),
(239,153,cs),
(233,66,o),
(215,11,o),
(185,11,cs),
(133,11,o),
(96,149,o),
(91,343,cs),
(86,579,o),
(107,696,o),
(158,696,cs),
(200,696,o),
(226,625,o),
(226,512,cs),
(226,505,o),
(229,500,o),
(234,500,cs),
(239,500,o),
(241,504,o),
(241,510,cs),
(241,521,o),
(233,550,o),
(233,620,cs),
(233,661,o),
(238,685,o),
(240,700,cs),
(241,709,o),
(235,711,o),
(233,711,cs),
(225,711,o),
(225,703,o),
(225,700,cs),
(226,687,o),
(228,680,o),
(221,680,cs),
(214,680,o),
(195,709,o),
(167,709,cs),
(81,709,o),
(26,547,o),
(30,316,cs),
(33,134,o),
(93,-9,o),
(170,-9,cs),
(203,-9,o),
(219,17,o),
(228,17,cs),
(232,17,o),
(234,12,o),
(232,4,cs),
(231,-5,o),
(234,-9,o),
(241,-9,cs),
(247,-9,o),
(249,-4,o),
(248,7,cs),
(246,32,o),
(245,54,o),
(245,61,cs),
(245,83,o),
(245,112,o),
(250,132,cs),
(253,144,o),
(264,146,o),
(264,162,cs)
);
}
);
width = 264;
},
{
associatedMasterId = m003;
background = {
shapes = (
{
closed = 1;
nodes = (
(264,556,o),
(253,558,o),
(250,570,cs),
(245,590,o),
(245,619,o),
(245,641,cs),
(245,648,o),
(246,670,o),
(248,695,cs),
(249,706,o),
(247,711,o),
(241,711,cs),
(234,711,o),
(231,707,o),
(232,698,cs),
(234,690,o),
(232,685,o),
(228,685,cs),
(219,685,o),
(203,711,o),
(170,711,cs),
(93,711,o),
(33,568,o),
(30,386,cs),
(26,155,o),
(80,-7,o),
(161,-7,cs),
(192,-7,o),
(212,22,o),
(220,22,cs),
(227,22,o),
(225,13,o),
(225,2,cs),
(225,-1,o),
(225,-9,o),
(233,-9,cs),
(235,-9,o),
(241,-7,o),
(240,2,cs),
(238,17,o),
(233,41,o),
(233,82,cs),
(233,152,o),
(241,181,o),
(241,192,cs),
(241,198,o),
(239,202,o),
(234,202,cs),
(229,202,o),
(226,197,o),
(226,190,cs),
(226,77,o),
(200,6,o),
(158,6,cs),
(108,6,o),
(86,123,o),
(91,359,cs),
(96,553,o),
(133,691,o),
(185,691,cs),
(215,691,o),
(233,636,o),
(239,549,cs),
(240,531,o),
(246,518,o),
(253,518,cs),
(260,518,o),
(264,526,o),
(264,540,cs)
);
}
);
};
layerId = "51C773B5-337A-48A2-A0FE-07A5BCC3D9C2";
name = "17 Dec 22 at 19:19";
shapes = (
{
closed = 1;
nodes = (
(264,176,o),
(260,184,o),
(253,184,cs),
(246,184,o),
(240,171,o),
(239,153,cs),
(233,66,o),
(215,11,o),
(185,11,cs),
(133,11,o),
(96,149,o),
(91,343,cs),
(86,579,o),
(108,696,o),
(158,696,cs),
(200,696,o),
(226,625,o),
(226,512,cs),
(226,505,o),
(229,500,o),
(234,500,cs),
(239,500,o),
(241,504,o),
(241,510,cs),
(241,521,o),
(233,550,o),
(233,620,cs),
(233,661,o),
(238,685,o),
(240,700,cs),
(241,709,o),
(235,711,o),
(233,711,cs),
(225,711,o),
(225,703,o),
(225,700,cs),
(225,689,o),
(227,680,o),
(220,680,cs),
(212,680,o),
(192,709,o),
(161,709,cs),
(80,709,o),
(26,547,o),
(30,316,cs),
(33,134,o),
(93,-9,o),
(170,-9,cs),
(203,-9,o),
(219,17,o),
(228,17,cs),
(232,17,o),
(234,12,o),
(232,4,cs),
(231,-5,o),
(234,-9,o),
(241,-9,cs),
(247,-9,o),
(249,-4,o),
(248,7,cs),
(246,32,o),
(245,54,o),
(245,61,cs),
(245,83,o),
(245,112,o),
(250,132,cs),
(253,144,o),
(264,146,o),
(264,162,cs)
);
}
);
width = 264;
},
{
associatedMasterId = m003;
background = {
shapes = (
{
closed = 1;
nodes = (
(264,556,o),
(253,558,o),
(250,570,cs),
(245,590,o),
(245,619,o),
(245,641,cs),
(245,648,o),
(246,670,o),
(248,695,cs),
(249,706,o),
(247,711,o),
(241,711,cs),
(234,711,o),
(231,707,o),
(232,698,cs),
(234,690,o),
(232,685,o),
(228,685,cs),
(219,685,o),
(203,711,o),
(170,711,cs),
(93,711,o),
(33,568,o),
(30,386,cs),
(26,155,o),
(80,-7,o),
(161,-7,cs),
(192,-7,o),
(212,22,o),
(220,22,cs),
(227,22,o),
(225,13,o),
(225,2,cs),
(225,-1,o),
(225,-9,o),
(233,-9,cs),
(235,-9,o),
(241,-7,o),
(240,2,cs),
(238,17,o),
(233,41,o),
(233,82,cs),
(233,152,o),
(241,181,o),
(241,192,cs),
(241,198,o),
(239,202,o),
(234,202,cs),
(229,202,o),
(226,197,o),
(226,190,cs),
(226,77,o),
(200,6,o),
(158,6,cs),
(108,6,o),
(86,123,o),
(91,359,cs),
(96,553,o),
(133,691,o),
(185,691,cs),
(215,691,o),
(233,636,o),
(239,549,cs),
(240,531,o),
(246,518,o),
(253,518,cs),
(260,518,o),
(264,526,o),
(264,540,cs)
);
}
);
};
layerId = "AAD3BF8B-967C-441A-8688-F0E9AD9F3393";
name = "17 Dec 22 at 20:17";
shapes = (
{
closed = 1;
nodes = (
(264,176,o),
(260,184,o),
(253,184,cs),
(246,184,o),
(240,171,o),
(239,153,cs),
(233,66,o),
(215,11,o),
(185,11,cs),
(133,11,o),
(96,149,o),
(91,343,cs),
(86,579,o),
(114,696,o),
(164,696,cs),
(206,696,o),
(232,625,o),
(232,512,cs),
(232,505,o),
(235,500,o),
(240,500,cs),
(245,500,o),
(247,504,o),
(247,510,cs),
(247,521,o),
(239,550,o),
(239,620,cs),
(239,661,o),
(244,685,o),
(246,700,cs),
(247,709,o),
(241,711,o),
(239,711,cs),
(231,711,o),
(231,703,o),
(231,700,cs),
(231,689,o),
(233,680,o),
(226,680,cs),
(218,680,o),
(198,709,o),
(167,709,cs),
(86,709,o),
(26,547,o),
(30,316,cs),
(33,134,o),
(93,-9,o),
(170,-9,cs),
(203,-9,o),
(219,17,o),
(228,17,cs),
(232,17,o),
(234,12,o),
(232,4,cs),
(231,-5,o),
(234,-9,o),
(241,-9,cs),
(247,-9,o),
(249,-4,o),
(248,7,cs),
(246,32,o),
(245,54,o),
(245,61,cs),
(245,83,o),
(245,112,o),
(250,132,cs),
(253,144,o),
(264,146,o),
(264,162,cs)
);
}
);
width = 264;
},
{
associatedMasterId = m003;
background = {
shapes = (
{
pos = (5,0);
ref = O;
}
);
};
layerId = "D0EFB869-A3C1-49D3-BC43-5886DD85A55B";
name = "7 Feb 23 at 15:28";
shapes = (
{
closed = 1;
nodes = (
(266,196,o),
(264,202,o),
(258,202,cs),
(252,202,o),
(250,197,o),
(250,188,cs),
(250,101,o),
(233,11,o),
(193,11,cs),
(141,11,o),
(101,149,o),
(96,343,cs),
(91,579,o),
(126,696,o),
(176,696,cs),
(221,696,o),
(244,619,o),
(244,512,cs),
(244,505,o),
(247,500,o),
(252,500,cs),
(257,500,o),
(260,504,o),
(260,510,cs),
(260,521,o),
(253,550,o),
(253,620,cs),
(253,661,o),
(258,685,o),
(260,699,cs),
(261,708,o),
(255,710,o),
(253,710,cs),
(245,710,o),
(244,702,o),
(244,699,cs),
(244,689,o),
(245,680,o),
(238,680,cs),
(230,680,o),
(210,709,o),
(179,709,cs),
(88,709,o),
(26,547,o),
(30,316,cs),
(33,134,o),
(98,-9,o),
(178,-9,cs),
(220,-9,o),
(236,24,o),
(246,24,cs),
(252,24,o),
(250,11,o),
(250,3,cs),
(250,-6,o),
(253,-9,o),
(257,-9,cs),
(263,-9,o),
(266,-5,o),
(266,2,cs),
(266,12,o),
(259,29,o),
(259,87,cs),
(259,133,o),
(266,177,o),
(266,191,cs)
);
}
);
width = 291;
},
{
associatedMasterId = m002;
layerId = "189B30BB-7EDB-4567-873A-E2A47538C0C5";
width = 600;
},
{
associatedMasterId = m002;
layerId = "58EDE4AA-C6AA-4F7B-867D-8410DD041DA7";
width = 600;
},
{
associatedMasterId = m002;
background = {
shapes = (
{
pos = (2,0);
ref = O;
}
);
};
layerId = "11556807-A7CB-414B-8D15-2499E9E83022";
name = "17 Dec 22 at 18:46";
shapes = (
{
closed = 1;
nodes = (
(244,176,o),
(240,184,o),
(233,184,cs),
(226,184,o),
(220,171,o),
(219,153,cs),
(211,45,o),
(193,4,o),
(157,4,cs),
(109,4,o),
(78,153,o),
(73,343,cs),
(68,568,o),
(90,697,o),
(144,697,cs),
(173,697,o),
(191,672,o),
(206,607,cs),
(213,576,o),
(219,539,o),
(219,511,cs),
(219,505,o),
(222,500,o),
(227,500,cs),
(232,500,o),
(234,504,o),
(234,510,cs),
(234,516,o),
(232,521,o),
(231,528,cs),
(228,546,o),
(226,575,o),
(226,620,cs),
(226,661,o),
(231,685,o),
(233,700,cs),
(234,709,o),
(228,711,o),
(226,711,cs),
(218,711,o),
(218,703,o),
(218,700,cs),
(219,687,o),
(216,680,o),
(209,680,cs),
(201,680,o),
(194,687,o),
(189,691,cs),
(175,703,o),
(160,709,o),
(144,709,cs),
(67,709,o),
(9,534,o),
(12,340,cs),
(16,126,o),
(71,-9,o),
(155,-9,cs),
(168,-9,o),
(183,-3,o),
(193,4,cs),
(200,9,o),
(204,12,o),
(207,12,cs),
(211,12,o),
(213,9,o),
(212,4,cs),
(211,-5,o),
(214,-9,o),
(221,-9,cs),
(227,-9,o),
(229,-4,o),
(228,7,cs),
(226,32,o),
(225,54,o),
(225,61,cs),
(225,83,o),
(225,112,o),
(230,132,cs),
(233,144,o),
(244,146,o),
(244,162,cs)
);
}
);
width = 600;
},
{
associatedMasterId = m002;
layerId = "F498B047-E6BA-4668-A3A2-8BEF41B58563";
name = "17 Dec 22 at 19:04";
shapes = (
{
closed = 1;
nodes = (
(246,176,o),
(242,184,o),
(235,184,cs),
(228,184,o),
(222,171,o),
(221,153,cs),
(215,66,o),
(197,11,o),
(167,11,cs),
(115,11,o),
(78,149,o),
(73,343,cs),
(68,568,o),
(90,697,o),
(144,697,cs),
(173,697,o),
(191,672,o),
(206,607,cs),
(213,576,o),
(219,539,o),
(219,511,cs),
(219,505,o),
(222,500,o),
(227,500,cs),
(232,500,o),
(234,504,o),
(234,510,cs),
(234,516,o),
(232,521,o),
(231,528,cs),
(228,546,o),
(226,575,o),
(226,620,cs),
(226,661,o),
(231,685,o),
(233,700,cs),
(234,709,o),
(228,711,o),
(226,711,cs),
(218,711,o),
(218,703,o),
(218,700,cs),
(219,687,o),
(216,680,o),
(209,680,cs),
(201,680,o),
(194,687,o),
(189,691,cs),
(175,703,o),
(160,709,o),
(144,709,cs),
(67,709,o),
(8,534,o),
(12,316,cs),
(15,134,o),
(75,-9,o),
(152,-9,cs),
(185,-9,o),
(201,17,o),
(210,17,cs),
(214,17,o),
(216,12,o),
(214,4,cs),
(213,-5,o),
(216,-9,o),
(223,-9,cs),
(229,-9,o),
(231,-4,o),
(230,7,cs),
(228,32,o),
(233,94,o),
(233,101,cs),
(233,123,o),
(246,146,o),
(246,162,cs)
);
}
);
width = 600;
},
{
anchors = (
{
name = bottom;
pos = (339,0);
},
{
name = top;
pos = (392,700);
}
);
background = {
shapes = (
{
pos = (20,0);
ref = O;
},
{
pos = (-10,0);
ref = H;
}
);
};
layerId = m002;
metricRight = "=O";
name = Regular;
shapes = (
{
closed = 1;
nodes = (
(651,217,o),
(648,221,o),
(640,221,cs),
(628,221,o),
(629,213,o),
(629,191,cs),
(629,56,o),
(572,5,o),
(421,5,cs),
(233,5,o),
(104,147,o),
(99,363,cs),
(94,564,o),
(220,696,o),
(414,696,cs),
(562,696,o),
(623,646,o),
(623,513,cs),
(623,490,o),
(621,480,o),
(634,480,cs),
(641,480,o),
(645,483,o),
(645,491,cs),
(645,501,o),
(638,550,o),
(638,610,cs),
(638,661,o),
(643,685,o),
(644,693,cs),
(646,709,o),
(639,710,o),
(634,710,cs),
(618,710,o),
(625,688,o),
(608,688,cs),
(579,688,o),
(516,709,o),
(410,709,cs),
(191,709,o),
(23,545,o),
(27,339,cs),
(30,130,o),
(181,-10,o),
(406,-10,cs),
(525,-10,o),
(585,13,o),
(614,13,cs),
(631,13,o),
(624,-9,o),
(640,-9,cs),
(647,-9,o),
(651,-6,o),
(651,2,cs),
(651,11,o),
(644,28,o),
(644,81,cs),
(644,151,o),
(651,198,o),
(651,208,cs)
);
}
);
width = 678;
},
{
associatedMasterId = m002;
background = {
shapes = (
{
ref = O;
}
);
};
layerId = "9184A7AB-6697-41F5-9250-D67E62704812";
name = "17 Dec 22 at 19:17";
shapes = (
{
closed = 1;
nodes = (
(264,176,o),
(260,184,o),
(253,184,cs),
(246,184,o),
(240,171,o),
(239,153,cs),
(233,66,o),
(215,11,o),
(185,11,cs),
(133,11,o),
(96,149,o),
(91,343,cs),
(86,579,o),
(107,696,o),
(158,696,cs),
(200,696,o),
(226,625,o),
(226,512,cs),
(226,505,o),
(229,500,o),
(234,500,cs),
(239,500,o),
(241,504,o),
(241,510,cs),
(241,521,o),
(233,550,o),
(233,620,cs),
(233,661,o),
(238,685,o),
(240,700,cs),
(241,709,o),
(235,711,o),
(233,711,cs),
(225,711,o),
(225,703,o),
(225,700,cs),
(226,687,o),
(228,680,o),
(221,680,cs),
(214,680,o),
(195,709,o),
(167,709,cs),
(81,709,o),
(26,547,o),
(30,316,cs),
(33,134,o),
(93,-9,o),
(170,-9,cs),
(203,-9,o),
(219,17,o),
(228,17,cs),
(232,17,o),
(234,12,o),
(232,4,cs),
(231,-5,o),
(234,-9,o),
(241,-9,cs),
(247,-9,o),
(249,-4,o),
(248,7,cs),
(246,32,o),
(245,54,o),
(245,61,cs),
(245,83,o),
(245,112,o),
(250,132,cs),
(253,144,o),
(264,146,o),
(264,162,cs)
);
}
);
width = 264;
},
{
associatedMasterId = m002;
background = {
shapes = (
{
closed = 1;
nodes = (
(264,556,o),
(253,558,o),
(250,570,cs),
(245,590,o),
(245,619,o),
(245,641,cs),
(245,648,o),
(246,670,o),
(248,695,cs),
(249,706,o),
(247,711,o),
(241,711,cs),
(234,711,o),
(231,707,o),
(232,698,cs),
(234,690,o),
(232,685,o),
(228,685,cs),
(219,685,o),
(203,711,o),
(170,711,cs),
(93,711,o),
(33,568,o),
(30,386,cs),
(26,155,o),
(80,-7,o),
(161,-7,cs),
(192,-7,o),
(212,22,o),
(220,22,cs),
(227,22,o),
(225,13,o),
(225,2,cs),
(225,-1,o),
(225,-9,o),
(233,-9,cs),
(235,-9,o),
(241,-7,o),
(240,2,cs),
(238,17,o),
(233,41,o),
(233,82,cs),
(233,152,o),
(241,181,o),
(241,192,cs),
(241,198,o),
(239,202,o),
(234,202,cs),
(229,202,o),
(226,197,o),
(226,190,cs),
(226,77,o),
(200,6,o),
(158,6,cs),
(108,6,o),
(86,123,o),
(91,359,cs),
(96,553,o),
(133,691,o),
(185,691,cs),
(215,691,o),
(233,636,o),
(239,549,cs),
(240,531,o),
(246,518,o),
(253,518,cs),
(260,518,o),
(264,526,o),
(264,540,cs)
);
}
);
};
layerId = "56FD6150-96AC-4B9D-A517-5CD4CBDFA7F1";
name = "17 Dec 22 at 19:19";
shapes = (
{
closed = 1;
nodes = (
(264,176,o),
(260,184,o),
(253,184,cs),
(246,184,o),
(240,171,o),
(239,153,cs),
(233,66,o),
(215,11,o),
(185,11,cs),
(133,11,o),
(96,149,o),
(91,343,cs),
(86,579,o),
(108,696,o),
(158,696,cs),
(200,696,o),
(226,625,o),
(226,512,cs),
(226,505,o),
(229,500,o),
(234,500,cs),
(239,500,o),
(241,504,o),
(241,510,cs),
(241,521,o),
(233,550,o),
(233,620,cs),
(233,661,o),
(238,685,o),
(240,700,cs),
(241,709,o),
(235,711,o),
(233,711,cs),
(225,711,o),
(225,703,o),
(225,700,cs),
(225,689,o),
(227,680,o),
(220,680,cs),
(212,680,o),
(192,709,o),
(161,709,cs),
(80,709,o),
(26,547,o),
(30,316,cs),
(33,134,o),
(93,-9,o),
(170,-9,cs),
(203,-9,o),
(219,17,o),
(228,17,cs),
(232,17,o),
(234,12,o),
(232,4,cs),
(231,-5,o),
(234,-9,o),
(241,-9,cs),
(247,-9,o),
(249,-4,o),
(248,7,cs),
(246,32,o),
(245,54,o),
(245,61,cs),
(245,83,o),
(245,112,o),
(250,132,cs),
(253,144,o),
(264,146,o),
(264,162,cs)
);
}
);
width = 264;
},
{
associatedMasterId = m002;
background = {
shapes = (
{
closed = 1;
nodes = (
(264,556,o),
(253,558,o),
(250,570,cs),
(245,590,o),
(245,619,o),
(245,641,cs),
(245,648,o),
(246,670,o),
(248,695,cs),
(249,706,o),
(247,711,o),
(241,711,cs),
(234,711,o),
(231,707,o),
(232,698,cs),
(234,690,o),
(232,685,o),
(228,685,cs),
(219,685,o),
(203,711,o),
(170,711,cs),
(93,711,o),
(33,568,o),
(30,386,cs),
(26,155,o),
(80,-7,o),
(161,-7,cs),
(192,-7,o),
(212,22,o),
(220,22,cs),
(227,22,o),
(225,13,o),
(225,2,cs),
(225,-1,o),
(225,-9,o),
(233,-9,cs),
(235,-9,o),
(241,-7,o),
(240,2,cs),
(238,17,o),
(233,41,o),
(233,82,cs),
(233,152,o),
(241,181,o),
(241,192,cs),
(241,198,o),
(239,202,o),
(234,202,cs),
(229,202,o),
(226,197,o),
(226,190,cs),
(226,77,o),
(200,6,o),
(158,6,cs),
(108,6,o),
(86,123,o),
(91,359,cs),
(96,553,o),
(133,691,o),
(185,691,cs),
(215,691,o),
(233,636,o),
(239,549,cs),
(240,531,o),
(246,518,o),
(253,518,cs),
(260,518,o),
(264,526,o),
(264,540,cs)
);
}
);
};
layerId = "15D8E67B-B687-442A-B32D-33F31D1BAFD2";
name = "17 Dec 22 at 20:17";
shapes = (
{
closed = 1;
nodes = (
(264,176,o),
(260,184,o),
(253,184,cs),
(246,184,o),
(240,171,o),
(239,153,cs),
(233,66,o),
(215,11,o),
(185,11,cs),
(133,11,o),
(96,149,o),
(91,343,cs),
(86,579,o),
(114,696,o),
(164,696,cs),
(206,696,o),
(232,625,o),
(232,512,cs),
(232,505,o),
(235,500,o),
(240,500,cs),
(245,500,o),
(247,504,o),
(247,510,cs),
(247,521,o),
(239,550,o),
(239,620,cs),
(239,661,o),
(244,685,o),
(246,700,cs),
(247,709,o),
(241,711,o),
(239,711,cs),
(231,711,o),
(231,703,o),
(231,700,cs),
(231,689,o),
(233,680,o),
(226,680,cs),
(218,680,o),
(198,709,o),
(167,709,cs),
(86,709,o),
(26,547,o),
(30,316,cs),
(33,134,o),
(93,-9,o),
(170,-9,cs),
(203,-9,o),
(219,17,o),
(228,17,cs),
(232,17,o),
(234,12,o),
(232,4,cs),
(231,-5,o),
(234,-9,o),
(241,-9,cs),
(247,-9,o),
(249,-4,o),
(248,7,cs),
(246,32,o),
(245,54,o),
(245,61,cs),
(245,83,o),
(245,112,o),
(250,132,cs),
(253,144,o),
(264,146,o),
(264,162,cs)
);
}
);
width = 264;
},
{
associatedMasterId = m002;
background = {
shapes = (
{
pos = (5,0);
ref = O;
}
);
};
layerId = "D556413E-A90F-40E3-880B-3F6BB00E43F0";
name = "7 Feb 23 at 15:28";
shapes = (
{
closed = 1;
nodes = (
(266,196,o),
(264,202,o),
(258,202,cs),
(252,202,o),
(250,197,o),
(250,188,cs),
(250,101,o),
(233,11,o),
(193,11,cs),
(141,11,o),
(101,149,o),
(96,343,cs),
(91,579,o),
(126,696,o),
(176,696,cs),
(221,696,o),
(244,619,o),
(244,512,cs),
(244,505,o),
(247,500,o),
(252,500,cs),
(257,500,o),
(260,504,o),
(260,510,cs),
(260,521,o),
(253,550,o),
(253,620,cs),
(253,661,o),
(258,685,o),
(260,699,cs),
(261,708,o),
(255,710,o),
(253,710,cs),
(245,710,o),
(244,702,o),
(244,699,cs),
(244,689,o),
(245,680,o),
(238,680,cs),
(230,680,o),
(210,709,o),
(179,709,cs),
(88,709,o),
(26,547,o),
(30,316,cs),
(33,134,o),
(98,-9,o),
(178,-9,cs),
(220,-9,o),
(236,24,o),
(246,24,cs),
(252,24,o),
(250,11,o),
(250,3,cs),
(250,-6,o),
(253,-9,o),
(257,-9,cs),
(263,-9,o),
(266,-5,o),
(266,2,cs),
(266,12,o),
(259,29,o),
(259,87,cs),
(259,133,o),
(266,177,o),
(266,191,cs)
);
}
);
width = 291;
},
{
associatedMasterId = m003;
layerId = "B2DA110A-38A4-419B-853E-D7226147048C";
width = 600;
},
{
anchors = (
{
name = bottom;
pos = (146,0);
},
{
name = top;
pos = (146,700);
}
);
associatedMasterId = m003;
background = {
shapes = (
{
pos = (24,0);
ref = S;
}
);
};
layerId = "6FAB9D40-4868-4A3C-BE43-AD6916F34A11";
name = "24 Feb 23 at 02:21";
shapes = (
{
closed = 1;
nodes = (
(272,196,o),
(270,202,o),
(264,202,cs),
(256,202,o),
(256,193,o),
(256,172,cs),
(256,101,o),
(239,11,o),
(195,11,cs),
(141,11,o),
(101,149,o),
(96,363,cs),
(91,579,o),
(126,696,o),
(178,696,cs),
(221,696,o),
(250,619,o),
(250,533,cs),
(250,511,o),
(249,500,o),
(258,500,cs),
(263,500,o),
(266,504,o),
(266,511,cs),
(266,521,o),
(258,550,o),
(258,610,cs),
(258,661,o),
(264,685,o),
(265,693,cs),
(267,708,o),
(262,710,o),
(258,710,cs),
(243,710,o),
(256,680,o),
(246,680,cs),
(236,680,o),
(210,709,o),
(174,709,cs),
(88,709,o),
(26,547,o),
(30,339,cs),
(33,134,o),
(98,-9,o),
(180,-9,cs),
(220,-9,o),
(242,24,o),
(252,24,cs),
(263,24,o),
(248,-9,o),
(264,-9,cs),
(269,-9,o),
(272,-5,o),
(272,2,cs),
(272,12,o),
(265,29,o),
(265,81,cs),
(265,133,o),
(272,177,o),
(272,189,cs)
);
}
);
width = 292;
}
);
metricLeft = O;
metricRight = "=O-10";
unicode = 67;
}
{
glyphname = D;
kernLeft = H;
kernRight = O;
layers = (
{
associatedMasterId = m003;
layerId = "B826CCEB-93D1-4672-AA88-F03DC20D1A32";
width = 600;
},
{
associatedMasterId = m003;
layerId = "E785B07C-7638-40DD-A08B-5080B4C14061";
width = 600;
},
{
anchors = (
{
name = bottom;
pos = (175,0);
},
{
name = center;
pos = (175,350);
},
{
name = top;
pos = (175,700);
}
);
background = {
shapes = (
{
ref = H;
}
);
};
hints = (
{
name = _corner.LeftSerifL;
options = 2;
origin = (1,1);
type = Corner;
},
{
name = _corner.LeftSerifL;
origin = (1,2);
scale = (-1,1);
type = Corner;
},
{
name = _segment.curve.capheight.inner;
origin = (1,0);
type = Segment;
},
{
name = _segment.curve.capheight.outer;
origin = (1,2);
type = Segment;
}
);
layerId = m003;
shapes = (
{
closed = 1;
nodes = (
(97,0,l),
(109,0,o),
(124,-1,o),
(138,-1,cs),
(249,-1,o),
(319,134,o),
(319,370,cs),
(319,568,o),
(248,703,o),
(137,701,cs),
(130,701,o),
(122,700,o),
(95,700,c),
(95,678,l),
(134,678,l),
(134,687,o),
(137,688,o),
(141,688,cs),
(216,683,o),
(258,569,o),
(258,371,cs),
(258,134,o),
(222,15,o),
(150,15,cs),
(143,15,o),
(143,17,o),
(142,32,c),
(97,32,l)
);
},
{
closed = 1;
nodes = (
(135,700,l,{
GSSegment = {
name = _segment.curve.capheight.inner;
};
}),
(71,700,l),
(80,0,l,{
GSSegment = {
name = _segment.curve.capheight.outer;
};
}),
(144,0,l)
);
}
);
width = 349;
},
{
associatedMasterId = m002;
layerId = "7F04D8F2-6DE9-4AEA-98E5-B1584E8AAE3F";
width = 600;
},
{
associatedMasterId = m002;
layerId = "41002F57-0E8C-4A05-9876-8318B05EE12F";
width = 600;
},
{
anchors = (
{
name = bottom;
pos = (365,0);
},
{
name = center;
pos = (365,350);
},
{
name = top;
pos = (365,700);
}
);
background = {
shapes = (
{
pos = (-26,0);
ref = O;
}
);
};
hints = (
{
name = _corner.LeftSerifL;
options = 2;
origin = (1,1);
type = Corner;
},
{
name = _corner.LeftSerifL;
origin = (1,2);
scale = (-1,1);
type = Corner;
},
{
name = _segment.curve.capheight.inner;
origin = (1,0);
type = Segment;
},
{
name = _segment.curve.capheight.outer;
origin = (1,2);
type = Segment;
}
);
layerId = m002;
shapes = (
{
closed = 1;
nodes = (
(164,0,l),
(172,0,o),
(203,0,o),
(358,0,cs),
(600,0,o),
(752,135,o),
(752,347,cs),
(752,563,o),
(600,700,o),
(358,700,cs),
(170,700,o),
(183,700,o),
(162,700,c),
(162,641,l),
(206,641,l),
(206,683,o),
(215,687,o),
(311,687,cs),
(548,687,o),
(680,566,o),
(680,348,cs),
(680,115,o),
(568,15,o),
(311,15,cs),
(213,15,o),
(206,17,o),
(205,92,c),
(164,92,l)
);
},
{
closed = 1;
nodes = (
(208,700,l),
(138,700,l),
(138,0,l),
(208,0,l)
);
}
);
width = 779;
},
{
associatedMasterId = m003;
layerId = "B2DA110A-38A4-419B-853E-D7226147048C";
width = 600;
},
{
anchors = (
{
name = bottom;
pos = (365,0);
},
{
name = center;
pos = (365,350);
},
{
name = top;
pos = (365,700);
}
);
associatedMasterId = m002;
background = {
shapes = (
{
ref = H;
}
);
};
hints = (
{
name = _corner.LeftSerifL;
options = 2;
origin = (1,1);
type = Corner;
},
{
name = _corner.LeftSerifL;
origin = (1,2);
scale = (-1,1);
type = Corner;
},
{
name = _segment.curve.capheight.inner;
origin = (1,0);
type = Segment;
},
{
name = _segment.curve.capheight.outer;
origin = (1,2);
type = Segment;
}
);
layerId = "2F1E2F06-52BA-4D8E-BD82-21CE03521DC7";
name = "2 May 23 at 12:35";
shapes = (
{
closed = 1;
nodes = (
(167,0,l),
(179,0,o),
(218,0,o),
(298,0,cs),
(538,0,o),
(689,134,o),
(689,347,cs),
(689,564,o),
(538,700,o),
(298,700,cs),
(180,700,o),
(182,700,o),
(165,700,c),
(165,641,l),
(203,641,l),
(203,682,o),
(214,687,o),
(251,687,cs),
(490,687,o),
(623,565,o),
(623,348,cs),
(623,116,o),
(510,15,o),
(251,15,cs),
(212,15,o),
(203,17,o),
(202,92,c),
(167,92,l)
);
},
{
closed = 1;
nodes = (
(205,700,l,{
GSSegment = {
name = _segment.curve.capheight.inner;
};
}),
(141,700,l),
(141,0,l,{
GSSegment = {
name = _segment.curve.capheight.outer;
};
}),
(205,0,l)
);
}
);
width = 719;
}
);
metricLeft = H;
metricRight = "=O";
unicode = 68;
}
{
glyphname = E;
kernLeft = H;
kernRight = E;
layers = (
{
anchors = (
{
name = bottom;
pos = (154,0);
},
{
name = ogonek;
pos = (273,10);
},
{
name = top;
pos = (166,700);
},
{
name = topleft;
pos = (25,700);
}
);
background = {
shapes = (
{
closed = 1;
nodes = (
(228,2,o),
(269,3,o),
(271,-3,cs),
(273,-10,o),
(276,-11,o),
(280,-11,cs),
(283,-11,o),
(287,-8,o),
(286,0,cs),
(284,15,o),
(279,40,o),
(279,86,cs),
(279,150,o),
(286,181,o),
(286,197,cs),
(286,203,o),
(283,206,o),
(278,206,cs),
(273,206,o),
(270,201,o),
(270,194,cs),
(270,116,o),
(267,72,o),
(251,47,cs),
(234,21,o),
(202,17,o),
(145,17,cs),
(138,17,o),
(134,18,o),
(133,40,c),
(124,40,l),
(124,2,l),
(140,2,o),
(146,2,o),
(153,2,cs)
);
},
{
pos = (59,0);
ref = S;
}
);
};
hints = (
{
name = _corner.LeftSerifL;
options = 2;
origin = (0,1);
type = Corner;
},
{
name = _corner.LeftSerifL;
origin = (0,2);
scale = (-1,1);
type = Corner;
},
{
name = _segment.curve.capheight.outer;
origin = (0,2);
type = Segment;
},
{
name = _segment.curve.capheight.inner;
origin = (0,0);
type = Segment;
}
);
layerId = m003;
shapes = (
{
closed = 1;
nodes = (
(135,700,l),
(71,700,l),
(71,0,l),
(135,0,l)
);
},
{
closed = 1;
nodes = (
(130,330,l),
(130,350,o),
(136,350,o),
(152,349,cs),
(196,345,o),
(215,328,o),
(215,250,cs),
(215,243,o),
(218,238,o),
(223,238,cs),
(227,238,o),
(231,241,o),
(231,249,cs),
(231,272,o),
(220,298,o),
(220,357,cs),
(220,420,o),
(231,440,o),
(231,461,cs),
(231,469,o),
(227,472,o),
(223,472,cs),
(218,472,o),
(215,467,o),
(215,460,cs),
(215,379,o),
(196,369,o),
(152,365,cs),
(136,364,o),
(130,364,o),
(130,388,c),
(121,388,l),
(121,330,l)
);
},
{
closed = 1;
nodes = (
(285,-6,o),
(289,-3,o),
(288,5,cs),
(286,20,o),
(281,40,o),
(281,80,cs),
(281,144,o),
(286,175,o),
(288,191,cs),
(289,200,o),
(285,203,o),
(280,203,cs),
(275,203,o),
(272,198,o),
(272,191,cs),
(272,34,o),
(255,13,o),
(147,13,cs),
(138,13,o),
(134,14,o),
(133,37,c),
(124,37,l),
(124,0,l),
(262,0,o),
(270,-6,o),
(280,-6,cs)
);
},
{
pos = (4,0);
ref = _Etop;
}
);
width = 303;
},
{
associatedMasterId = m003;
background = {
hints = (
{
name = _segment.curve.capheight.inner;
options = 1;
origin = (1,2);
scale = (1,-1);
type = Segment;
},
{
name = _corner.LeftSerifL;
options = 2;
origin = (1,1);
scale = (1,-1);
type = Corner;
},
{
name = _corner.LeftSerifL;
options = 1;
origin = (1,0);
scale = (-1,-1);
type = Corner;
}
);
shapes = (
{
closed = 1;
nodes = (
(264,-14,o),
(267,-11,o),
(267,-6,cs),
(267,13,o),
(258,33,o),
(258,78,cs),
(258,110,o),
(268,119,o),
(268,133,cs),
(268,141,o),
(265,149,o),
(257,149,cs),
(247,149,o),
(244,138,o),
(244,126,cs),
(244,82,o),
(248,49,o),
(248,36,cs),
(248,27,o),
(153,18,o),
(123,18,cs),
(116,18,o),
(110,18,o),
(110,27,cs),
(110,139,o),
(109,269,o),
(109,350,cs),
(109,356,o),
(112,358,o),
(119,358,cs),
(161,358,o),
(209,358,o),
(209,341,cs),
(209,322,o),
(203,274,o),
(224,274,cs),
(230,274,o),
(232,278,o),
(232,285,cs),
(232,299,o),
(220,316,o),
(220,367,cs),
(220,448,o),
(237,438,o),
(237,455,cs),
(237,463,o),
(232,469,o),
(226,469,cs),
(205,469,o),
(209,409,o),
(209,393,cs),
(209,376,o),
(131,376,o),
(119,376,cs),
(112,376,o),
(109,378,o),
(109,384,cs),
(108,674,ls),
(108,681,o),
(112,683,o),
(121,683,cs),
(134,683,o),
(241,676,o),
(241,667,cs),
(241,654,o),
(235,616,o),
(235,595,cs),
(235,572,o),
(242,561,o),
(250,561,cs),
(256,561,o),
(259,566,o),
(259,574,cs),
(259,590,o),
(249,594,o),
(249,621,cs),
(249,654,o),
(260,687,o),
(260,706,cs),
(260,711,o),
(257,714,o),
(253,714,cs),
(249,714,o),
(246,711,o),
(246,706,cs),
(246,701,o),
(244,700,o),
(238,700,cs),
(234,700,o),
(202,698,o),
(131,698,cs),
(101,698,o),
(82,699,o),
(69,699,cs),
(35,700,o),
(31,703,o),
(21,703,c),
(16,702,o),
(12,700,o),
(12,695,cs),
(12,689,o),
(17,685,o),
(26,686,cs),
(43,687,o),
(49,701,o),
(52,645,cs),
(54,578,o),
(56,490,o),
(57,368,cs),
(58,248,o),
(55,143,o),
(52,55,cs),
(50,-1,o),
(43,13,o),
(27,14,cs),
(18,14,o),
(13,10,o),
(13,4,cs),
(13,-1,o),
(17,-3,o),
(22,-3,cs),
(32,-3,o),
(36,0,o),
(70,1,cs),
(85,1,o),
(106,2,o),
(141,2,cs),
(193,2,o),
(231,0,o),
(243,0,cs),
(251,0,o),
(253,-1,o),
(253,-6,cs),
(253,-11,o),
(256,-14,o),
(260,-14,cs)
);
},
{
closed = 1;
nodes = (
(49,700,l,{
GSSegment = {
name = _segment.curve.capheight.outer;
};
}),
(49,0,l),
(113,2,l,{
GSSegment = {
name = _segment.curve.capheight.inner;
};
}),
(113,698,l)
);
},
{
closed = 1;
nodes = (
(109,328,o),
(110,327,o),
(171,327,cs),
(232,327,o),
(233,328,o),
(233,306,c),
(243,306,l),
(243,364,l),
(233,364,l),
(233,342,o),
(232,343,o),
(171,343,cs),
(110,343,o),
(109,342,o),
(109,364,c),
(99,364,l),
(99,306,l),
(109,306,l)
);
},
{
closed = 1;
nodes = (
(202,2,o),
(234,0,o),
(238,0,cs),
(244,0,o),
(246,-1,o),
(246,-6,cs),
(246,-11,o),
(249,-14,o),
(253,-14,cs),
(257,-14,o),
(260,-11,o),
(260,-6,cs),
(260,13,o),
(249,46,o),
(249,79,cs),
(249,106,o),
(259,110,o),
(259,126,cs),
(259,134,o),
(256,139,o),
(250,139,cs),
(242,139,o),
(235,128,o),
(235,105,cs),
(235,84,o),
(241,46,o),
(241,33,cs),
(241,24,o),
(144,17,o),
(128,17,cs),
(117,17,o),
(111,18,o),
(111,37,c),
(102,37,l),
(102,2,l),
(118,2,o),
(124,2,o),
(131,2,cs)
);
},
{
closed = 1;
nodes = (
(102,645,l),
(111,659,l),
(111,684,o),
(113,683,o),
(128,683,cs),
(144,683,o),
(249,673,o),
(249,664,cs),
(249,651,o),
(243,606,o),
(243,585,cs),
(243,562,o),
(248,551,o),
(258,551,cs),
(264,551,o),
(268,558,o),
(268,567,cs),
(268,583,o),
(257,591,o),
(257,618,cs),
(257,651,o),
(268,687,o),
(268,706,cs),
(268,711,o),
(265,714,o),
(261,714,cs),
(257,714,o),
(254,711,o),
(254,706,cs),
(254,701,o),
(252,700,o),
(246,700,cs),
(242,700,o),
(202,698,o),
(131,698,cs),
(124,698,o),
(118,698,o),
(102,698,c)
);
}
);
};
hints = (
{
name = _corner.LeftSerifL;
options = 2;
origin = (0,1);
type = Corner;
},
{
name = _corner.LeftSerifL;
origin = (0,2);
scale = (-1,1);
type = Corner;
},
{
name = _segment.curve.capheight.outer;
origin = (0,2);
type = Segment;
},
{
name = _segment.curve.capheight.inner;
origin = (0,0);
type = Segment;
}
);
layerId = "B95481C1-F7AE-4141-9FA7-74B71391E0C8";
name = "17 Dec 22 at 21:05";
shapes = (
{
closed = 1;
nodes = (
(113,698,l),
(49,700,l),
(49,0,l),
(113,2,l)
);
},
{
closed = 1;
nodes = (
(99,394,l),
(99,336,l),
(109,336,l),
(109,351,o),
(109,357,o),
(130,357,cs),
(139,357,o),
(209,358,o),
(209,336,cs),
(209,322,o),
(204,274,o),
(223,274,cs),
(230,274,o),
(232,278,o),
(232,285,cs),
(232,299,o),
(220,316,o),
(220,365,cs),
(220,448,o),
(237,437,o),
(237,456,cs),
(237,463,o),
(232,469,o),
(226,469,cs),
(205,469,o),
(209,409,o),
(209,393,cs),
(209,376,o),
(139,373,o),
(130,373,cs),
(109,373,o),
(109,379,o),
(109,394,c)
);
},
{
closed = 1;
nodes = (
(124,698,o),
(118,698,o),
(102,698,c),
(102,663,l),
(111,663,l),
(111,684,o),
(116,683,o),
(123,683,cs),
(144,683,o),
(241,676,o),
(241,667,cs),
(241,654,o),
(235,616,o),
(235,595,cs),
(235,572,o),
(242,561,o),
(250,561,cs),
(256,561,o),
(259,566,o),
(259,574,cs),
(259,590,o),
(249,594,o),
(249,621,cs),
(249,654,o),
(260,687,o),
(260,706,cs),
(260,711,o),
(257,714,o),
(253,714,cs),
(249,714,o),
(246,711,o),
(246,706,cs),
(246,701,o),
(244,700,o),
(238,700,cs),
(234,700,o),
(202,698,o),
(131,698,cs)
);
},
{
closed = 1;
nodes = (
(118,2,o),
(124,2,o),
(131,2,cs),
(202,2,o),
(242,0,o),
(246,0,cs),
(252,0,o),
(254,-1,o),
(254,-6,cs),
(254,-11,o),
(257,-14,o),
(261,-14,cs),
(265,-14,o),
(268,-11,o),
(268,-6,cs),
(268,13,o),
(257,49,o),
(257,82,cs),
(257,109,o),
(268,117,o),
(268,133,cs),
(268,142,o),
(264,149,o),
(258,149,cs),
(248,149,o),
(243,138,o),
(243,115,cs),
(243,94,o),
(249,49,o),
(249,36,cs),
(249,27,o),
(144,17,o),
(128,17,cs),
(113,17,o),
(111,16,o),
(111,41,c),
(102,55,l),
(102,2,l)
);
}
);
width = 376;
},
{
associatedMasterId = m003;
background = {
hints = (
{
name = _segment.curve.capheight.inner;
options = 1;
origin = (0,2);
scale = (1,-1);
type = Segment;
},
{
name = _corner.LeftSerifL;
options = 2;
origin = (0,1);
scale = (1,-1);
type = Corner;
},
{
name = _corner.LeftSerifL;
options = 1;
origin = (0,0);
scale = (-1,-1);
type = Corner;
}
);
shapes = (
{
closed = 1;
nodes = (
(66,730,l,{
GSSegment = {
name = _segment.curve.capheight.outer;
};
}),
(66,30,l),
(130,32,l,{
GSSegment = {
name = _segment.curve.capheight.inner;
};
}),
(130,728,l)
);
},
{
closed = 1;
nodes = (
(219,32,o),
(251,30,o),
(255,30,cs),
(261,30,o),
(263,29,o),
(263,24,cs),
(263,19,o),
(266,16,o),
(270,16,cs),
(274,16,o),
(277,19,o),
(277,24,cs),
(277,43,o),
(266,76,o),
(266,109,cs),
(266,136,o),
(276,140,o),
(276,156,cs),
(276,164,o),
(273,169,o),
(267,169,cs),
(259,169,o),
(252,158,o),
(252,135,cs),
(252,114,o),
(258,76,o),
(258,63,cs),
(258,54,o),
(161,47,o),
(140,47,cs),
(133,47,o),
(128,46,o),
(128,67,c),
(119,67,l),
(119,32,l),
(135,32,o),
(141,32,o),
(148,32,cs)
);
},
{
closed = 1;
nodes = (
(119,675,l),
(128,689,l),
(128,714,o),
(130,713,o),
(145,713,cs),
(161,713,o),
(266,703,o),
(266,694,cs),
(266,681,o),
(260,636,o),
(260,615,cs),
(260,592,o),
(265,581,o),
(275,581,cs),
(281,581,o),
(285,588,o),
(285,597,cs),
(285,613,o),
(274,621,o),
(274,648,cs),
(274,681,o),
(285,717,o),
(285,736,cs),
(285,741,o),
(282,744,o),
(278,744,cs),
(274,744,o),
(271,741,o),
(271,736,cs),
(271,731,o),
(269,730,o),
(263,730,cs),
(259,730,o),
(219,728,o),
(148,728,cs),
(141,728,o),
(135,728,o),
(119,728,c)
);
},
{
closed = 1;
nodes = (
(117,338,l),
(126,338,l),
(126,358,o),
(131,357,o),
(161,357,cs),
(219,357,o),
(226,351,o),
(226,340,cs),
(226,302,o),
(223,292,o),
(223,276,cs),
(223,270,o),
(225,262,o),
(233,262,cs),
(239,262,o),
(244,266,o),
(244,274,cs),
(244,290,o),
(239,289,o),
(239,365,cs),
(239,423,o),
(244,436,o),
(244,452,cs),
(244,462,o),
(240,465,o),
(234,465,cs),
(226,465,o),
(223,458,o),
(223,452,cs),
(223,437,o),
(226,429,o),
(226,390,cs),
(226,376,o),
(219,373,o),
(161,373,cs),
(131,373,o),
(126,372,o),
(126,392,c),
(117,392,l)
);
}
);
};
hints = (
{
name = _corner.LeftSerifL;
options = 2;
origin = (0,1);
type = Corner;
},
{
name = _corner.LeftSerifL;
origin = (0,2);
scale = (-1,1);
type = Corner;
},
{
name = _segment.curve.capheight.outer;
origin = (0,2);
type = Segment;
},
{
name = _segment.curve.capheight.inner;
origin = (0,0);
type = Segment;
}
);
layerId = "9274166B-A71D-481C-A757-2151A571A01C";
name = "17 Dec 22 at 21:17";
shapes = (
{
closed = 1;
nodes = (
(130,698,l),
(66,700,l),
(66,0,l),
(130,2,l)
);
},
{
closed = 1;
nodes = (
(141,698,o),
(135,698,o),
(119,698,c),
(119,663,l),
(128,663,l),
(128,684,o),
(133,683,o),
(140,683,cs),
(161,683,o),
(258,676,o),
(258,667,cs),
(258,654,o),
(252,616,o),
(252,595,cs),
(252,572,o),
(259,561,o),
(267,561,cs),
(273,561,o),
(276,566,o),
(276,574,cs),
(276,590,o),
(266,594,o),
(266,621,cs),
(266,654,o),
(277,687,o),
(277,706,cs),
(277,711,o),
(274,714,o),
(270,714,cs),
(266,714,o),
(263,711,o),
(263,706,cs),
(263,701,o),
(261,700,o),
(255,700,cs),
(251,700,o),
(219,698,o),
(148,698,cs)
);
},
{
closed = 1;
nodes = (
(135,2,o),
(141,2,o),
(148,2,cs),
(219,2,o),
(259,0,o),
(263,0,cs),
(269,0,o),
(271,-1,o),
(271,-6,cs),
(271,-11,o),
(274,-14,o),
(278,-14,cs),
(282,-14,o),
(285,-11,o),
(285,-6,cs),
(285,13,o),
(274,49,o),
(274,82,cs),
(274,109,o),
(285,117,o),
(285,133,cs),
(285,142,o),
(281,149,o),
(275,149,cs),
(265,149,o),
(260,138,o),
(260,115,cs),
(260,94,o),
(266,49,o),
(266,36,cs),
(266,27,o),
(161,17,o),
(145,17,cs),
(130,17,o),
(128,16,o),
(128,41,c),
(119,55,l),
(119,2,l)
);
},
{
closed = 1;
nodes = (
(126,338,l),
(126,358,o),
(131,357,o),
(161,357,cs),
(219,357,o),
(226,352,o),
(226,338,cs),
(226,299,o),
(223,290,o),
(223,275,cs),
(223,269,o),
(226,262,o),
(234,262,cs),
(240,262,o),
(244,265,o),
(244,275,cs),
(244,291,o),
(239,305,o),
(239,363,cs),
(239,439,o),
(244,438,o),
(244,454,cs),
(244,462,o),
(239,466,o),
(233,466,cs),
(225,466,o),
(223,458,o),
(223,452,cs),
(223,436,o),
(226,426,o),
(226,388,cs),
(226,377,o),
(219,373,o),
(161,373,cs),
(131,373,o),
(126,372,o),
(126,392,c),
(117,392,l),
(117,338,l)
);
}
);
width = 315;
},
{
associatedMasterId = m003;
background = {
shapes = (
{
ref = H;
}
);
};
hints = (
{
name = _corner.LeftSerifL;
options = 2;
origin = (0,1);
type = Corner;
},
{
name = _corner.LeftSerifL;
origin = (0,2);
scale = (-1,1);
type = Corner;
},
{
name = _segment.curve.capheight.outer;
origin = (0,2);
type = Segment;
},
{
name = _segment.curve.capheight.inner;
origin = (0,0);
type = Segment;
}
);
layerId = "120A8EDA-2A3D-416D-AB3B-7F25CCC2A894";
name = "17 Dec 22 at 21:34";
shapes = (
{
closed = 1;
nodes = (
(130,698,l),
(66,700,l),
(66,0,l),
(130,2,l)
);
},
{
closed = 1;
nodes = (
(141,698,o),
(135,698,o),
(119,698,c),
(119,663,l),
(128,663,l),
(128,684,o),
(133,683,o),
(140,683,cs),
(161,683,o),
(258,676,o),
(258,667,cs),
(258,654,o),
(252,616,o),
(252,595,cs),
(252,572,o),
(259,561,o),
(267,561,cs),
(273,561,o),
(276,566,o),
(276,574,cs),
(276,590,o),
(266,594,o),
(266,621,cs),
(266,654,o),
(277,687,o),
(277,706,cs),
(277,711,o),
(274,714,o),
(270,714,cs),
(266,714,o),
(263,711,o),
(263,706,cs),
(263,701,o),
(261,700,o),
(255,700,cs),
(251,700,o),
(219,698,o),
(148,698,cs)
);
},
{
closed = 1;
nodes = (
(135,2,o),
(141,2,o),
(148,2,cs),
(224,2,o),
(264,0,o),
(268,0,cs),
(274,0,o),
(276,-1,o),
(276,-6,cs),
(276,-11,o),
(279,-14,o),
(283,-14,cs),
(287,-14,o),
(291,-11,o),
(291,-4,cs),
(291,13,o),
(280,59,o),
(280,92,cs),
(280,119,o),
(290,127,o),
(290,143,cs),
(290,152,o),
(286,159,o),
(280,159,cs),
(270,159,o),
(265,148,o),
(265,125,cs),
(265,104,o),
(271,49,o),
(271,36,cs),
(271,27,o),
(161,17,o),
(145,17,cs),
(130,17,o),
(128,16,o),
(128,41,c),
(119,55,l),
(119,2,l)
);
},
{
closed = 1;
nodes = (
(126,338,l),
(126,358,o),
(131,357,o),
(153,357,cs),
(171,357,o),
(226,352,o),
(226,343,cs),
(226,307,o),
(222,282,o),
(222,273,cs),
(222,263,o),
(227,258,o),
(235,258,cs),
(241,258,o),
(246,263,o),
(246,273,cs),
(246,289,o),
(238,305,o),
(238,363,cs),
(238,429,o),
(248,436,o),
(248,452,cs),
(248,460,o),
(242,466,o),
(236,466,cs),
(228,466,o),
(224,460,o),
(224,452,cs),
(224,441,o),
(226,424,o),
(226,387,cs),
(226,378,o),
(171,373,o),
(153,373,cs),
(131,373,o),
(126,372,o),
(126,392,c),
(117,392,l),
(117,338,l)
);
}
);
width = 315;
},
{
associatedMasterId = m003;
background = {
shapes = (
{
ref = H;
}
);
};
hints = (
{
name = _corner.LeftSerifL;
options = 2;
origin = (0,1);
type = Corner;
},
{
name = _corner.LeftSerifL;
origin = (0,2);
scale = (-1,1);
type = Corner;
},
{
name = _segment.curve.capheight.outer;
origin = (0,2);
type = Segment;
},
{
name = _segment.curve.capheight.inner;
origin = (0,0);
type = Segment;
}
);
layerId = "8D3313FC-53A3-438A-9851-AD931E87BDF7";
name = "17 Dec 22 at 23:03";
shapes = (
{
closed = 1;
nodes = (
(130,698,l),
(66,700,l),
(66,0,l),
(130,2,l)
);
},
{
closed = 1;
nodes = (
(135,2,o),
(141,2,o),
(148,2,cs),
(224,2,o),
(264,0,o),
(268,0,cs),
(274,0,o),
(276,-1,o),
(276,-6,cs),
(276,-11,o),
(279,-14,o),
(283,-14,cs),
(287,-14,o),
(291,-11,o),
(291,-4,cs),
(291,13,o),
(280,59,o),
(280,92,cs),
(280,119,o),
(290,127,o),
(290,143,cs),
(290,152,o),
(286,159,o),
(280,159,cs),
(270,159,o),
(265,148,o),
(265,125,cs),
(265,104,o),
(271,49,o),
(271,46,cs),
(271,27,o),
(161,17,o),
(145,17,cs),
(130,17,o),
(128,16,o),
(128,41,c),
(119,55,l),
(119,2,l)
);
},
{
closed = 1;
nodes = (
(126,338,l),
(126,358,o),
(131,357,o),
(153,357,cs),
(171,357,o),
(226,352,o),
(226,343,cs),
(226,307,o),
(222,282,o),
(222,273,cs),
(222,263,o),
(227,258,o),
(235,258,cs),
(241,258,o),
(245,263,o),
(245,273,cs),
(245,289,o),
(237,285,o),
(237,363,cs),
(237,449,o),
(245,436,o),
(245,452,cs),
(245,460,o),
(240,466,o),
(234,466,cs),
(226,466,o),
(222,460,o),
(222,452,cs),
(222,441,o),
(226,424,o),
(226,387,cs),
(226,378,o),
(171,373,o),
(153,373,cs),
(131,373,o),
(126,372,o),
(126,392,c),
(117,392,l),
(117,338,l)
);
},
{
ref = _Etop;
}
);
width = 311;
},
{
associatedMasterId = m003;
background = {
shapes = (
{
ref = H;
}
);
};
hints = (
{
name = _corner.LeftSerifL;
options = 2;
origin = (0,1);
type = Corner;
},
{
name = _corner.LeftSerifL;
origin = (0,2);
scale = (-1,1);
type = Corner;
},
{
name = _segment.curve.capheight.outer;
origin = (0,2);
type = Segment;
},
{
name = _segment.curve.capheight.inner;
origin = (0,0);
type = Segment;
}
);
layerId = "5ED34DFF-A5A9-4ACF-A3FD-15BA3CF427BA";
name = "17 Dec 22 at 23:52";
shapes = (
{
closed = 1;
nodes = (
(130,698,l),
(66,700,l),
(66,0,l),
(130,2,l)
);
},
{
closed = 1;
nodes = (
(135,2,o),
(141,2,o),
(148,2,cs),
(224,2,o),
(264,0,o),
(268,0,cs),
(274,0,o),
(276,-1,o),
(276,-6,cs),
(276,-11,o),
(279,-14,o),
(283,-14,cs),
(287,-14,o),
(291,-11,o),
(291,-4,cs),
(291,13,o),
(280,59,o),
(280,92,cs),
(280,119,o),
(290,127,o),
(290,143,cs),
(290,152,o),
(286,159,o),
(280,159,cs),
(270,159,o),
(265,148,o),
(265,125,cs),
(265,104,o),
(271,49,o),
(271,46,cs),
(271,27,o),
(161,17,o),
(145,17,cs),
(130,17,o),
(128,16,o),
(128,41,c),
(119,55,l),
(119,2,l)
);
},
{
closed = 1;
nodes = (
(126,338,l),
(126,358,o),
(131,357,o),
(153,357,cs),
(171,357,o),
(201,341,o),
(205,333,cs),
(225,297,o),
(217,282,o),
(217,273,cs),
(217,263,o),
(222,258,o),
(230,258,cs),
(236,258,o),
(240,263,o),
(240,273,cs),
(240,309,o),
(212,334,o),
(212,363,cs),
(212,391,o),
(240,416,o),
(240,452,cs),
(240,460,o),
(235,466,o),
(229,466,cs),
(221,466,o),
(217,460,o),
(217,452,cs),
(217,441,o),
(225,434,o),
(205,397,cs),
(201,389,o),
(171,373,o),
(153,373,cs),
(131,373,o),
(126,372,o),
(126,392,c),
(117,392,l),
(117,338,l)
);
},
{
ref = _Etop;
}
);
width = 311;
},
{
associatedMasterId = m003;
background = {
shapes = (
{
ref = H;
}
);
};
hints = (
{
name = _corner.LeftSerifL;
options = 2;
origin = (0,1);
type = Corner;
},
{
name = _corner.LeftSerifL;
origin = (0,2);
scale = (-1,1);
type = Corner;
},
{
name = _segment.curve.capheight.outer;
origin = (0,2);
type = Segment;
},
{
name = _segment.curve.capheight.inner;
origin = (0,0);
type = Segment;
}
);
layerId = "5BCB9B24-0B0B-4CF0-8CE9-36821D4329B8";
name = "19 Dec 22 at 16:34";
shapes = (
{
closed = 1;
nodes = (
(130,698,l),
(66,700,l),
(67,0,l),
(131,2,l)
);
},
{
closed = 1;
nodes = (
(136,2,o),
(142,2,o),
(149,2,cs),
(221,2,o),
(261,0,o),
(265,0,cs),
(271,0,o),
(273,-1,o),
(273,-6,cs),
(273,-11,o),
(276,-14,o),
(280,-14,cs),
(284,-14,o),
(288,-11,o),
(288,-4,cs),
(288,13,o),
(277,59,o),
(277,92,cs),
(277,119,o),
(287,127,o),
(287,143,cs),
(287,152,o),
(283,159,o),
(277,159,cs),
(267,159,o),
(262,148,o),
(262,125,cs),
(262,104,o),
(268,49,o),
(268,46,cs),
(268,27,o),
(162,17,o),
(146,17,cs),
(131,17,o),
(129,16,o),
(129,41,c),
(120,55,l),
(120,2,l)
);
},
{
closed = 1;
nodes = (
(126,338,l),
(126,358,o),
(132,357,o),
(154,357,cs),
(199,357,o),
(227,356,o),
(227,268,cs),
(227,261,o),
(230,256,o),
(235,256,cs),
(239,256,o),
(243,259,o),
(243,267,cs),
(243,290,o),
(233,306,o),
(233,365,cs),
(233,428,o),
(243,438,o),
(243,459,cs),
(243,467,o),
(239,470,o),
(235,470,cs),
(230,470,o),
(227,465,o),
(227,458,cs),
(227,367,o),
(197,373,o),
(154,373,cs),
(132,373,o),
(126,372,o),
(126,396,c),
(117,396,l),
(117,338,l)
);
},
{
ref = _Etop;
}
);
width = 308;
},
{
anchors = (
{
name = bottom;
pos = (352,0);
},
{
name = ogonek;
pos = (633,10);
},
{
name = top;
pos = (370,700);
},
{
name = topleft;
pos = (20,700);
}
);
background = {
shapes = (
{
pos = (10,0);
ref = H;
}
);
};
hints = (
{
name = _corner.LeftSerifL;
options = 2;
origin = (0,1);
type = Corner;
},
{
name = _corner.LeftSerifL;
origin = (0,2);
scale = (-1,1);
type = Corner;
},
{
name = _segment.curve.capheight.outer;
origin = (0,2);
type = Segment;
},
{
name = _segment.curve.capheight.inner;
origin = (0,0);
type = Segment;
}
);
layerId = m002;
shapes = (
{
closed = 1;
nodes = (
(208,700,l),
(138,700,l),
(138,0,l),
(208,0,l)
);
},
{
closed = 1;
nodes = (
(203,280,l),
(203,349,o),
(206,349,o),
(292,349,cs),
(446,349,o),
(472,335,o),
(472,250,cs),
(472,242,o),
(476,238,o),
(483,238,cs),
(489,238,o),
(494,240,o),
(494,249,cs),
(494,271,o),
(483,297,o),
(483,357,cs),
(483,421,o),
(494,441,o),
(494,461,cs),
(494,470,o),
(489,472,o),
(483,472,cs),
(476,472,o),
(472,468,o),
(472,460,cs),
(472,378,o),
(447,365,o),
(292,365,cs),
(206,365,o),
(203,365,o),
(203,438,c),
(188,438,l),
(188,280,l)
);
},
{
closed = 1;
nodes = (
(667,-6,o),
(672,-3,o),
(671,5,cs),
(669,19,o),
(664,40,o),
(664,80,cs),
(664,144,o),
(669,175,o),
(671,208,cs),
(672,217,o),
(667,220,o),
(660,220,cs),
(653,220,o),
(649,216,o),
(649,208,cs),
(649,33,o),
(633,13,o),
(307,13,cs),
(209,13,o),
(207,14,o),
(205,87,c),
(190,87,l),
(191,0,l),
(640,0,o),
(648,-6,o),
(660,-6,cs)
);
},
{
pos = (74,0);
ref = _Etop;
}
);
width = 706;
},
{
associatedMasterId = m002;
background = {
hints = (
{
name = _segment.curve.capheight.inner;
options = 1;
origin = (1,2);
scale = (1,-1);
type = Segment;
},
{
name = _corner.LeftSerifL;
options = 2;
origin = (1,1);
scale = (1,-1);
type = Corner;
},
{
name = _corner.LeftSerifL;
options = 1;
origin = (1,0);
scale = (-1,-1);
type = Corner;
}
);
shapes = (
{
closed = 1;
nodes = (
(264,-14,o),
(267,-11,o),
(267,-6,cs),
(267,13,o),
(258,33,o),
(258,78,cs),
(258,110,o),
(268,119,o),
(268,133,cs),
(268,141,o),
(265,149,o),
(257,149,cs),
(247,149,o),
(244,138,o),
(244,126,cs),
(244,82,o),
(248,49,o),
(248,36,cs),
(248,27,o),
(153,18,o),
(123,18,cs),
(116,18,o),
(110,18,o),
(110,27,cs),
(110,139,o),
(109,269,o),
(109,350,cs),
(109,356,o),
(112,358,o),
(119,358,cs),
(161,358,o),
(209,358,o),
(209,341,cs),
(209,322,o),
(203,274,o),
(224,274,cs),
(230,274,o),
(232,278,o),
(232,285,cs),
(232,299,o),
(220,316,o),
(220,367,cs),
(220,448,o),
(237,438,o),
(237,455,cs),
(237,463,o),
(232,469,o),
(226,469,cs),
(205,469,o),
(209,409,o),
(209,393,cs),
(209,376,o),
(131,376,o),
(119,376,cs),
(112,376,o),
(109,378,o),
(109,384,cs),
(108,674,ls),
(108,681,o),
(112,683,o),
(121,683,cs),
(134,683,o),
(241,676,o),
(241,667,cs),
(241,654,o),
(235,616,o),
(235,595,cs),
(235,572,o),
(242,561,o),
(250,561,cs),
(256,561,o),
(259,566,o),
(259,574,cs),
(259,590,o),
(249,594,o),
(249,621,cs),
(249,654,o),
(260,687,o),
(260,706,cs),
(260,711,o),
(257,714,o),
(253,714,cs),
(249,714,o),
(246,711,o),
(246,706,cs),
(246,701,o),
(244,700,o),
(238,700,cs),
(234,700,o),
(202,698,o),
(131,698,cs),
(101,698,o),
(82,699,o),
(69,699,cs),
(35,700,o),
(31,703,o),
(21,703,c),
(16,702,o),
(12,700,o),
(12,695,cs),
(12,689,o),
(17,685,o),
(26,686,cs),
(43,687,o),
(49,701,o),
(52,645,cs),
(54,578,o),
(56,490,o),
(57,368,cs),
(58,248,o),
(55,143,o),
(52,55,cs),
(50,-1,o),
(43,13,o),
(27,14,cs),
(18,14,o),
(13,10,o),
(13,4,cs),
(13,-1,o),
(17,-3,o),
(22,-3,cs),
(32,-3,o),
(36,0,o),
(70,1,cs),
(85,1,o),
(106,2,o),
(141,2,cs),
(193,2,o),
(231,0,o),
(243,0,cs),
(251,0,o),
(253,-1,o),
(253,-6,cs),
(253,-11,o),
(256,-14,o),
(260,-14,cs)
);
},
{
closed = 1;
nodes = (
(49,700,l,{
GSSegment = {
name = _segment.curve.capheight.outer;
};
}),
(49,0,l),
(113,2,l,{
GSSegment = {
name = _segment.curve.capheight.inner;
};
}),
(113,698,l)
);
},
{
closed = 1;
nodes = (
(109,328,o),
(110,327,o),
(171,327,cs),
(232,327,o),
(233,328,o),
(233,306,c),
(243,306,l),
(243,364,l),
(233,364,l),
(233,342,o),
(232,343,o),
(171,343,cs),
(110,343,o),
(109,342,o),
(109,364,c),
(99,364,l),
(99,306,l),
(109,306,l)
);
},
{
closed = 1;
nodes = (
(202,2,o),
(234,0,o),
(238,0,cs),
(244,0,o),
(246,-1,o),
(246,-6,cs),
(246,-11,o),
(249,-14,o),
(253,-14,cs),
(257,-14,o),
(260,-11,o),
(260,-6,cs),
(260,13,o),
(249,46,o),
(249,79,cs),
(249,106,o),
(259,110,o),
(259,126,cs),
(259,134,o),
(256,139,o),
(250,139,cs),
(242,139,o),
(235,128,o),
(235,105,cs),
(235,84,o),
(241,46,o),
(241,33,cs),
(241,24,o),
(144,17,o),
(128,17,cs),
(117,17,o),
(111,18,o),
(111,37,c),
(102,37,l),
(102,2,l),
(118,2,o),
(124,2,o),
(131,2,cs)
);
},
{
closed = 1;
nodes = (
(102,645,l),
(111,659,l),
(111,684,o),
(113,683,o),
(128,683,cs),
(144,683,o),
(249,673,o),
(249,664,cs),
(249,651,o),
(243,606,o),
(243,585,cs),
(243,562,o),
(248,551,o),
(258,551,cs),
(264,551,o),
(268,558,o),
(268,567,cs),
(268,583,o),
(257,591,o),
(257,618,cs),
(257,651,o),
(268,687,o),
(268,706,cs),
(268,711,o),
(265,714,o),
(261,714,cs),
(257,714,o),
(254,711,o),
(254,706,cs),
(254,701,o),
(252,700,o),
(246,700,cs),
(242,700,o),
(202,698,o),
(131,698,cs),
(124,698,o),
(118,698,o),
(102,698,c)
);
}
);
};
hints = (
{
name = _corner.LeftSerifL;
options = 2;
origin = (0,1);
type = Corner;
},
{
name = _corner.LeftSerifL;
origin = (0,2);
scale = (-1,1);
type = Corner;
},
{
name = _segment.curve.capheight.outer;
origin = (0,2);
type = Segment;
},
{
name = _segment.curve.capheight.inner;
origin = (0,0);
type = Segment;
}
);
layerId = "A973C936-2B71-4F4E-8E1B-9DB234A7B1D4";
name = "17 Dec 22 at 21:05";
shapes = (
{
closed = 1;
nodes = (
(113,698,l),
(49,700,l),
(49,0,l),
(113,2,l)
);
},
{
closed = 1;
nodes = (
(99,394,l),
(99,336,l),
(109,336,l),
(109,351,o),
(109,357,o),
(130,357,cs),
(139,357,o),
(209,358,o),
(209,336,cs),
(209,322,o),
(204,274,o),
(223,274,cs),
(230,274,o),
(232,278,o),
(232,285,cs),
(232,299,o),
(220,316,o),
(220,365,cs),
(220,448,o),
(237,437,o),
(237,456,cs),
(237,463,o),
(232,469,o),
(226,469,cs),
(205,469,o),
(209,409,o),
(209,393,cs),
(209,376,o),
(139,373,o),
(130,373,cs),
(109,373,o),
(109,379,o),
(109,394,c)
);
},
{
closed = 1;
nodes = (
(124,698,o),
(118,698,o),
(102,698,c),
(102,663,l),
(111,663,l),
(111,684,o),
(116,683,o),
(123,683,cs),
(144,683,o),
(241,676,o),
(241,667,cs),
(241,654,o),
(235,616,o),
(235,595,cs),
(235,572,o),
(242,561,o),
(250,561,cs),
(256,561,o),
(259,566,o),
(259,574,cs),
(259,590,o),
(249,594,o),
(249,621,cs),
(249,654,o),
(260,687,o),
(260,706,cs),
(260,711,o),
(257,714,o),
(253,714,cs),
(249,714,o),
(246,711,o),
(246,706,cs),
(246,701,o),
(244,700,o),
(238,700,cs),
(234,700,o),
(202,698,o),
(131,698,cs)
);
},
{
closed = 1;
nodes = (
(118,2,o),
(124,2,o),
(131,2,cs),
(202,2,o),
(242,0,o),
(246,0,cs),
(252,0,o),
(254,-1,o),
(254,-6,cs),
(254,-11,o),
(257,-14,o),
(261,-14,cs),
(265,-14,o),
(268,-11,o),
(268,-6,cs),
(268,13,o),
(257,49,o),
(257,82,cs),
(257,109,o),
(268,117,o),
(268,133,cs),
(268,142,o),
(264,149,o),
(258,149,cs),
(248,149,o),
(243,138,o),
(243,115,cs),
(243,94,o),
(249,49,o),
(249,36,cs),
(249,27,o),
(144,17,o),
(128,17,cs),
(113,17,o),
(111,16,o),
(111,41,c),
(102,55,l),
(102,2,l)
);
}
);
width = 376;
},
{
associatedMasterId = m002;
background = {
hints = (
{
name = _segment.curve.capheight.inner;
options = 1;
origin = (0,2);
scale = (1,-1);
type = Segment;
},
{
name = _corner.LeftSerifL;
options = 2;
origin = (0,1);
scale = (1,-1);
type = Corner;
},
{
name = _corner.LeftSerifL;
options = 1;
origin = (0,0);
scale = (-1,-1);
type = Corner;
}
);
shapes = (
{
closed = 1;
nodes = (
(66,730,l,{
GSSegment = {
name = _segment.curve.capheight.outer;
};
}),
(66,30,l),
(130,32,l,{
GSSegment = {
name = _segment.curve.capheight.inner;
};
}),
(130,728,l)
);
},
{
closed = 1;
nodes = (
(219,32,o),
(251,30,o),
(255,30,cs),
(261,30,o),
(263,29,o),
(263,24,cs),
(263,19,o),
(266,16,o),
(270,16,cs),
(274,16,o),
(277,19,o),
(277,24,cs),
(277,43,o),
(266,76,o),
(266,109,cs),
(266,136,o),
(276,140,o),
(276,156,cs),
(276,164,o),
(273,169,o),
(267,169,cs),
(259,169,o),
(252,158,o),
(252,135,cs),
(252,114,o),
(258,76,o),
(258,63,cs),
(258,54,o),
(161,47,o),
(140,47,cs),
(133,47,o),
(128,46,o),
(128,67,c),
(119,67,l),
(119,32,l),
(135,32,o),
(141,32,o),
(148,32,cs)
);
},
{
closed = 1;
nodes = (
(119,675,l),
(128,689,l),
(128,714,o),
(130,713,o),
(145,713,cs),
(161,713,o),
(266,703,o),
(266,694,cs),
(266,681,o),
(260,636,o),
(260,615,cs),
(260,592,o),
(265,581,o),
(275,581,cs),
(281,581,o),
(285,588,o),
(285,597,cs),
(285,613,o),
(274,621,o),
(274,648,cs),
(274,681,o),
(285,717,o),
(285,736,cs),
(285,741,o),
(282,744,o),
(278,744,cs),
(274,744,o),
(271,741,o),
(271,736,cs),
(271,731,o),
(269,730,o),
(263,730,cs),
(259,730,o),
(219,728,o),
(148,728,cs),
(141,728,o),
(135,728,o),
(119,728,c)
);
},
{
closed = 1;
nodes = (
(117,338,l),
(126,338,l),
(126,358,o),
(131,357,o),
(161,357,cs),
(219,357,o),
(226,351,o),
(226,340,cs),
(226,302,o),
(223,292,o),
(223,276,cs),
(223,270,o),
(225,262,o),
(233,262,cs),
(239,262,o),
(244,266,o),
(244,274,cs),
(244,290,o),
(239,289,o),
(239,365,cs),
(239,423,o),
(244,436,o),
(244,452,cs),
(244,462,o),
(240,465,o),
(234,465,cs),
(226,465,o),
(223,458,o),
(223,452,cs),
(223,437,o),
(226,429,o),
(226,390,cs),
(226,376,o),
(219,373,o),
(161,373,cs),
(131,373,o),
(126,372,o),
(126,392,c),
(117,392,l)
);
}
);
};
hints = (
{
name = _corner.LeftSerifL;
options = 2;
origin = (0,1);
type = Corner;
},
{
name = _corner.LeftSerifL;
origin = (0,2);
scale = (-1,1);
type = Corner;
},
{
name = _segment.curve.capheight.outer;
origin = (0,2);
type = Segment;
},
{
name = _segment.curve.capheight.inner;
origin = (0,0);
type = Segment;
}
);
layerId = "60482765-79DE-4698-877F-42499D3FF6F2";
name = "17 Dec 22 at 21:17";
shapes = (
{
closed = 1;
nodes = (
(130,698,l),
(66,700,l),
(66,0,l),
(130,2,l)
);
},
{
closed = 1;
nodes = (
(141,698,o),
(135,698,o),
(119,698,c),
(119,663,l),
(128,663,l),
(128,684,o),
(133,683,o),
(140,683,cs),
(161,683,o),
(258,676,o),
(258,667,cs),
(258,654,o),
(252,616,o),
(252,595,cs),
(252,572,o),
(259,561,o),
(267,561,cs),
(273,561,o),
(276,566,o),
(276,574,cs),
(276,590,o),
(266,594,o),
(266,621,cs),
(266,654,o),
(277,687,o),
(277,706,cs),
(277,711,o),
(274,714,o),
(270,714,cs),
(266,714,o),
(263,711,o),
(263,706,cs),
(263,701,o),
(261,700,o),
(255,700,cs),
(251,700,o),
(219,698,o),
(148,698,cs)
);
},
{
closed = 1;
nodes = (
(135,2,o),
(141,2,o),
(148,2,cs),
(219,2,o),
(259,0,o),
(263,0,cs),
(269,0,o),
(271,-1,o),
(271,-6,cs),
(271,-11,o),
(274,-14,o),
(278,-14,cs),
(282,-14,o),
(285,-11,o),
(285,-6,cs),
(285,13,o),
(274,49,o),
(274,82,cs),
(274,109,o),
(285,117,o),
(285,133,cs),
(285,142,o),
(281,149,o),
(275,149,cs),
(265,149,o),
(260,138,o),
(260,115,cs),
(260,94,o),
(266,49,o),
(266,36,cs),
(266,27,o),
(161,17,o),
(145,17,cs),
(130,17,o),
(128,16,o),
(128,41,c),
(119,55,l),
(119,2,l)
);
},
{
closed = 1;
nodes = (
(126,338,l),
(126,358,o),
(131,357,o),
(161,357,cs),
(219,357,o),
(226,352,o),
(226,338,cs),
(226,299,o),
(223,290,o),
(223,275,cs),
(223,269,o),
(226,262,o),
(234,262,cs),
(240,262,o),
(244,265,o),
(244,275,cs),
(244,291,o),
(239,305,o),
(239,363,cs),
(239,439,o),
(244,438,o),
(244,454,cs),
(244,462,o),
(239,466,o),
(233,466,cs),
(225,466,o),
(223,458,o),
(223,452,cs),
(223,436,o),
(226,426,o),
(226,388,cs),
(226,377,o),
(219,373,o),
(161,373,cs),
(131,373,o),
(126,372,o),
(126,392,c),
(117,392,l),
(117,338,l)
);
}
);
width = 315;
},
{
associatedMasterId = m002;
background = {
shapes = (
{
ref = H;
}
);
};
hints = (
{
name = _corner.LeftSerifL;
options = 2;
origin = (0,1);
type = Corner;
},
{
name = _corner.LeftSerifL;
origin = (0,2);
scale = (-1,1);
type = Corner;
},
{
name = _segment.curve.capheight.outer;
origin = (0,2);
type = Segment;
},
{
name = _segment.curve.capheight.inner;
origin = (0,0);
type = Segment;
}
);
layerId = "5DA3C8CE-531F-44B0-A31F-C363E7EB1E93";
name = "17 Dec 22 at 21:34";
shapes = (
{
closed = 1;
nodes = (
(130,698,l),
(66,700,l),
(66,0,l),
(130,2,l)
);
},
{
closed = 1;
nodes = (
(141,698,o),
(135,698,o),
(119,698,c),
(119,663,l),
(128,663,l),
(128,684,o),
(133,683,o),
(140,683,cs),
(161,683,o),
(258,676,o),
(258,667,cs),
(258,654,o),
(252,616,o),
(252,595,cs),
(252,572,o),
(259,561,o),
(267,561,cs),
(273,561,o),
(276,566,o),
(276,574,cs),
(276,590,o),
(266,594,o),
(266,621,cs),
(266,654,o),
(277,687,o),
(277,706,cs),
(277,711,o),
(274,714,o),
(270,714,cs),
(266,714,o),
(263,711,o),
(263,706,cs),
(263,701,o),
(261,700,o),
(255,700,cs),
(251,700,o),
(219,698,o),
(148,698,cs)
);
},
{
closed = 1;
nodes = (
(135,2,o),
(141,2,o),
(148,2,cs),
(224,2,o),
(264,0,o),
(268,0,cs),
(274,0,o),
(276,-1,o),
(276,-6,cs),
(276,-11,o),
(279,-14,o),
(283,-14,cs),
(287,-14,o),
(291,-11,o),
(291,-4,cs),
(291,13,o),
(280,59,o),
(280,92,cs),
(280,119,o),
(290,127,o),
(290,143,cs),
(290,152,o),
(286,159,o),
(280,159,cs),
(270,159,o),
(265,148,o),
(265,125,cs),
(265,104,o),
(271,49,o),
(271,36,cs),
(271,27,o),
(161,17,o),
(145,17,cs),
(130,17,o),
(128,16,o),
(128,41,c),
(119,55,l),
(119,2,l)
);
},
{
closed = 1;
nodes = (
(126,338,l),
(126,358,o),
(131,357,o),
(153,357,cs),
(171,357,o),
(226,352,o),
(226,343,cs),
(226,307,o),
(222,282,o),
(222,273,cs),
(222,263,o),
(227,258,o),
(235,258,cs),
(241,258,o),
(246,263,o),
(246,273,cs),
(246,289,o),
(238,305,o),
(238,363,cs),
(238,429,o),
(248,436,o),
(248,452,cs),
(248,460,o),
(242,466,o),
(236,466,cs),
(228,466,o),
(224,460,o),
(224,452,cs),
(224,441,o),
(226,424,o),
(226,387,cs),
(226,378,o),
(171,373,o),
(153,373,cs),
(131,373,o),
(126,372,o),
(126,392,c),
(117,392,l),
(117,338,l)
);
}
);
width = 315;
},
{
associatedMasterId = m002;
background = {
shapes = (
{
ref = H;
}
);
};
hints = (
{
name = _corner.LeftSerifL;
options = 2;
origin = (0,1);
type = Corner;
},
{
name = _corner.LeftSerifL;
origin = (0,2);
scale = (-1,1);
type = Corner;
},
{
name = _segment.curve.capheight.outer;
origin = (0,2);
type = Segment;
},
{
name = _segment.curve.capheight.inner;
origin = (0,0);
type = Segment;
}
);
layerId = "57353F1B-20B3-4A94-827B-76C33D1EF15B";
name = "17 Dec 22 at 23:03";
shapes = (
{
closed = 1;
nodes = (
(130,698,l),
(66,700,l),
(66,0,l),
(130,2,l)
);
},
{
closed = 1;
nodes = (
(135,2,o),
(141,2,o),
(148,2,cs),
(224,2,o),
(264,0,o),
(268,0,cs),
(274,0,o),
(276,-1,o),
(276,-6,cs),
(276,-11,o),
(279,-14,o),
(283,-14,cs),
(287,-14,o),
(291,-11,o),
(291,-4,cs),
(291,13,o),
(280,59,o),
(280,92,cs),
(280,119,o),
(290,127,o),
(290,143,cs),
(290,152,o),
(286,159,o),
(280,159,cs),
(270,159,o),
(265,148,o),
(265,125,cs),
(265,104,o),
(271,49,o),
(271,46,cs),
(271,27,o),
(161,17,o),
(145,17,cs),
(130,17,o),
(128,16,o),
(128,41,c),
(119,55,l),
(119,2,l)
);
},
{
closed = 1;
nodes = (
(126,338,l),
(126,358,o),
(131,357,o),
(153,357,cs),
(171,357,o),
(226,352,o),
(226,343,cs),
(226,307,o),
(222,282,o),
(222,273,cs),
(222,263,o),
(227,258,o),
(235,258,cs),
(241,258,o),
(245,263,o),
(245,273,cs),
(245,289,o),
(237,285,o),
(237,363,cs),
(237,449,o),
(245,436,o),
(245,452,cs),
(245,460,o),
(240,466,o),
(234,466,cs),
(226,466,o),
(222,460,o),
(222,452,cs),
(222,441,o),
(226,424,o),
(226,387,cs),
(226,378,o),
(171,373,o),
(153,373,cs),
(131,373,o),
(126,372,o),
(126,392,c),
(117,392,l),
(117,338,l)
);
},
{
ref = _Etop;
}
);
width = 311;
},
{
associatedMasterId = m002;
background = {
shapes = (
{
ref = H;
}
);
};
hints = (
{
name = _corner.LeftSerifL;
options = 2;
origin = (0,1);
type = Corner;
},
{
name = _corner.LeftSerifL;
origin = (0,2);
scale = (-1,1);
type = Corner;
},
{
name = _segment.curve.capheight.outer;
origin = (0,2);
type = Segment;
},
{
name = _segment.curve.capheight.inner;
origin = (0,0);
type = Segment;
}
);
layerId = "F1782375-AE4A-400C-BCAF-8E434DF5233E";
name = "17 Dec 22 at 23:52";
shapes = (
{
closed = 1;
nodes = (
(130,698,l),
(66,700,l),
(66,0,l),
(130,2,l)
);
},
{
closed = 1;
nodes = (
(135,2,o),
(141,2,o),
(148,2,cs),
(224,2,o),
(264,0,o),
(268,0,cs),
(274,0,o),
(276,-1,o),
(276,-6,cs),
(276,-11,o),
(279,-14,o),
(283,-14,cs),
(287,-14,o),
(291,-11,o),
(291,-4,cs),
(291,13,o),
(280,59,o),
(280,92,cs),
(280,119,o),
(290,127,o),
(290,143,cs),
(290,152,o),
(286,159,o),
(280,159,cs),
(270,159,o),
(265,148,o),
(265,125,cs),
(265,104,o),
(271,49,o),
(271,46,cs),
(271,27,o),
(161,17,o),
(145,17,cs),
(130,17,o),
(128,16,o),
(128,41,c),
(119,55,l),
(119,2,l)
);
},
{
closed = 1;
nodes = (
(126,338,l),
(126,358,o),
(131,357,o),
(153,357,cs),
(171,357,o),
(201,341,o),
(205,333,cs),
(225,297,o),
(217,282,o),
(217,273,cs),
(217,263,o),
(222,258,o),
(230,258,cs),
(236,258,o),
(240,263,o),
(240,273,cs),
(240,309,o),
(212,334,o),
(212,363,cs),
(212,391,o),
(240,416,o),
(240,452,cs),
(240,460,o),
(235,466,o),
(229,466,cs),
(221,466,o),
(217,460,o),
(217,452,cs),
(217,441,o),
(225,434,o),
(205,397,cs),
(201,389,o),
(171,373,o),
(153,373,cs),
(131,373,o),
(126,372,o),
(126,392,c),
(117,392,l),
(117,338,l)
);
},
{
ref = _Etop;
}
);
width = 311;
},
{
associatedMasterId = m002;
background = {
shapes = (
{
ref = H;
}
);
};
hints = (
{
name = _corner.LeftSerifL;
options = 2;
origin = (0,1);
type = Corner;
},
{
name = _corner.LeftSerifL;
origin = (0,2);
scale = (-1,1);
type = Corner;
},
{
name = _segment.curve.capheight.outer;
origin = (0,2);
type = Segment;
},
{
name = _segment.curve.capheight.inner;
origin = (0,0);
type = Segment;
}
);
layerId = "3484A80B-D982-4109-A40F-37FE90A26512";
name = "19 Dec 22 at 16:34";
shapes = (
{
closed = 1;
nodes = (
(130,698,l),
(66,700,l),
(67,0,l),
(131,2,l)
);
},
{
closed = 1;
nodes = (
(136,2,o),
(142,2,o),
(149,2,cs),
(221,2,o),
(261,0,o),
(265,0,cs),
(271,0,o),
(273,-1,o),
(273,-6,cs),
(273,-11,o),
(276,-14,o),
(280,-14,cs),
(284,-14,o),
(288,-11,o),
(288,-4,cs),
(288,13,o),
(277,59,o),
(277,92,cs),
(277,119,o),
(287,127,o),
(287,143,cs),
(287,152,o),
(283,159,o),
(277,159,cs),
(267,159,o),
(262,148,o),
(262,125,cs),
(262,104,o),
(268,49,o),
(268,46,cs),
(268,27,o),
(162,17,o),
(146,17,cs),
(131,17,o),
(129,16,o),
(129,41,c),
(120,55,l),
(120,2,l)
);
},
{
closed = 1;
nodes = (
(126,338,l),
(126,358,o),
(132,357,o),
(154,357,cs),
(199,357,o),
(227,356,o),
(227,268,cs),
(227,261,o),
(230,256,o),
(235,256,cs),
(239,256,o),
(243,259,o),
(243,267,cs),
(243,290,o),
(233,306,o),
(233,365,cs),
(233,428,o),
(243,438,o),
(243,459,cs),
(243,467,o),
(239,470,o),
(235,470,cs),
(230,470,o),
(227,465,o),
(227,458,cs),
(227,367,o),
(197,373,o),
(154,373,cs),
(132,373,o),
(126,372,o),
(126,396,c),
(117,396,l),
(117,338,l)
);
},
{
ref = _Etop;
}
);
width = 308;
},
{
associatedMasterId = m003;
layerId = "B2DA110A-38A4-419B-853E-D7226147048C";
width = 600;
}
);
metricLeft = H;
metricRight = "=H-5";
unicode = 69;
}
